<?xml version="1.0" encoding="utf-8"?><svg xmlns="http://www.w3.org/2000/svg" xmlns:xlink="http://www.w3.org/1999/xlink"><symbol viewBox="0 0 67 47" id="age" xmlns="http://www.w3.org/2000/svg"><circle stroke="#F54C28" stroke-width="2.014" stroke-miterlimit="10" cx="10.623" cy="13.151" r="3.356"/><path stroke="#F54C28" stroke-width="2.014" stroke-miterlimit="10" d="M13.979 24.967v6.535l.003.045 1.677 12.448a.35.35 0 0 1-.065.255c-1.008 1.331-2.511.702-2.646-.424l-1.384-11.583a.335.335 0 0 0-.333-.296h-1.217a.335.335 0 0 0-.333.296L8.238 44.328a.343.343 0 0 1-.124.227c-1.305 1.046-2.611.062-2.459-1.066l1.609-11.944a.34.34 0 0 0 .003-.045v-6.535c0-.353-.474-.467-.635-.152l-2.465 4.834a.347.347 0 0 1-.193.17c-1.583.54-2.483-.824-1.966-1.839l2.17-4.261 1.382-2.714c.307-.603.535-1.226 1.18-1.552a2.4 2.4 0 0 1 .706-.222c.702-.114 1.443-.037 2.152-.037h1.865c1.079 0 2.571-.272 3.44.534.513.476.767 1.25 1.082 1.868l.897 1.762 1.815 3.564.769 1.51c.04.079.05.175.024.26-.496 1.595-2.126 1.52-2.643.506l-2.234-4.382c-.159-.314-.634-.2-.634.153z"/><circle stroke="#F54C28" stroke-width="2.014" stroke-miterlimit="10" cx="31.342" cy="8.597" r="3.836"/><path stroke="#F54C28" stroke-width="2.014" stroke-miterlimit="10" d="M35.179 22.102v7.469l.003.051 1.917 14.228a.405.405 0 0 1-.074.292c-1.153 1.522-2.87.803-3.024-.485l-1.582-13.24a.384.384 0 0 0-.381-.338h-1.39a.384.384 0 0 0-.381.338l-1.65 13.814a.4.4 0 0 1-.141.26c-1.491 1.196-2.984.071-2.811-1.218l1.839-13.652a.436.436 0 0 0 .003-.051v-7.469c0-.403-.542-.533-.725-.174l-2.817 5.525a.394.394 0 0 1-.221.194c-1.809.617-2.838-.942-2.247-2.102l2.48-4.87 1.58-3.102c.351-.689.612-1.401 1.349-1.774a2.78 2.78 0 0 1 .807-.254c.802-.13 1.649-.042 2.46-.042h2.132c1.233 0 2.938-.311 3.932.611.586.544.877 1.429 1.237 2.135l1.026 2.014 2.074 4.073.879 1.726c.046.09.057.2.028.297-.567 1.823-2.43 1.738-3.021.579l-2.554-5.009c-.185-.36-.727-.23-.727.174z"/><circle stroke="#F54C28" stroke-width="2.014" stroke-miterlimit="10" cx="55" cy="5.561" r="4.156"/><path stroke="#F54C28" stroke-width="2.014" stroke-miterlimit="10" d="M59.156 20.192v8.092c0 .019.001.037.004.055l2.077 15.415a.434.434 0 0 1-.081.316c-1.249 1.649-3.11.87-3.276-.525l-1.714-14.344a.415.415 0 0 0-.413-.366h-1.506a.416.416 0 0 0-.413.366l-1.788 14.967a.434.434 0 0 1-.153.282c-1.616 1.296-3.233.077-3.045-1.32l1.992-14.79a.509.509 0 0 0 .004-.055v-8.092c0-.437-.587-.578-.786-.189l-3.052 5.986a.428.428 0 0 1-.239.211c-1.96.668-3.074-1.021-2.434-2.278l2.687-5.277 1.711-3.36c.38-.747.663-1.518 1.462-1.922.273-.138.572-.227.874-.275.869-.141 1.787-.046 2.665-.046h2.31c1.336 0 3.183-.337 4.26.662.635.589.95 1.548 1.34 2.313l1.111 2.182L65 22.613l.952 1.87c.05.098.062.217.03.321-.614 1.976-2.633 1.883-3.273.627l-2.767-5.427c-.198-.39-.786-.249-.786.188z"/></symbol><symbol viewBox="0 0 60 70" id="apparatus" xmlns="http://www.w3.org/2000/svg"><path stroke="#F54C28" stroke-width="2.177" stroke-linecap="round" stroke-linejoin="round" stroke-miterlimit="10" d="M38.675 69H26.336l2.177-67.5h7.984zM25.973 57.024H4.199a2.177 2.177 0 0 1-2.177-2.177v-2.903c0-1.203.975-2.177 2.177-2.177h21.774v7.257zM7.828 68.637V57.75m47.177-14.516H44.118a2.177 2.177 0 0 1-2.177-2.177v-.726c0-1.203.975-2.177 2.177-2.177h10.887c1.203 0 2.177.975 2.177 2.177v.726a2.176 2.176 0 0 1-2.177 2.177zm0 5.806H44.118a2.177 2.177 0 0 1-2.177-2.177v-.726c0-1.203.975-2.177 2.177-2.177h10.887c1.203 0 2.177.975 2.177 2.177v.726a2.176 2.176 0 0 1-2.177 2.177zm0 5.081H44.118a2.177 2.177 0 0 1-2.177-2.177v-.726c0-1.203.975-2.177 2.177-2.177h10.887c1.203 0 2.177.975 2.177 2.177v.726a2.176 2.176 0 0 1-2.177 2.177z"/><path stroke="#F54C28" stroke-width="2.177" stroke-linecap="round" stroke-linejoin="round" stroke-miterlimit="10" d="M53.554 12.387v25.766H45.57V19.195a6.866 6.866 0 0 1-5.56-4.994H17.263v3.019c0 .16-.053.316-.151.443l-3.479 4.522-3.479-4.522a.723.723 0 0 1-.151-.443v-4.47a7.258 7.258 0 0 1 7.258-7.258h29.395a6.896 6.896 0 0 1 6.898 6.895zM15.086 35.976h-2.903a2.177 2.177 0 0 1-2.177-2.177v-2.903c0-1.203.975-2.177 2.177-2.177h2.903c1.203 0 2.177.975 2.177 2.177v2.903a2.177 2.177 0 0 1-2.177 2.177z"/><circle stroke="#F54C28" stroke-width="2.177" stroke-linecap="round" stroke-linejoin="round" stroke-miterlimit="10" cx="46.659" cy="12.387" r="3.266"/><path stroke="#F54C28" stroke-width="2.177" stroke-linecap="round" stroke-linejoin="round" stroke-miterlimit="10" d="M46.659 12.024V2.589"/><path stroke="#F54C28" stroke-width="2.177" stroke-miterlimit="10" d="M13.634 22.185v7.259"/></symbol><symbol viewBox="0 0 32 32" id="appstore" xmlns="http://www.w3.org/2000/svg"><path d="M16 3C8.832 3 3 8.832 3 16s5.832 13 13 13 13-5.832 13-13S23.168 3 16 3zm0 2c6.086 0 11 4.914 11 11s-4.914 11-11 11S5 22.086 5 16 9.914 5 16 5zm-.031 3.25a.781.781 0 0 0-.25.094l-.5.281a.616.616 0 0 0-.219.844l4.281 7.344 1.563-.907-4.282-7.344a.602.602 0 0 0-.593-.312zm-1.313 2.438a.641.641 0 0 0-.625.312l-.531.938 1.625.937.531-.938a.616.616 0 0 0-.219-.843l-.562-.313c-.074-.043-.14-.082-.219-.094zm-1.281 1.468l-3.781 6.469 1.594.938 3.78-6.47zM8 15.094v1.812h2.281l1.063-1.812zm6.063 0l-1 1.812h5.843l-1-1.812zm6.687 0l.969 1.812h2.25v-1.812zm.281 1.125l-1.562.906.906 1.563 1.563-.907zm.813 1.968a.467.467 0 0 0-.157.063c-.253.145-.62.367-.843.5-.418.25-.094.996 0 1.156.543.91 1.11.793 1.531 1.438.23.351.145.508.219.625.027.043.12.082.156.031.652-.902.473-2.469 0-3.156-.191-.282-.54-.719-.906-.657zm-12.469.782l-.781 2.937a.151.151 0 0 0 .062.157c.047.027.117.007.156-.032L11 19.906z"/></symbol><symbol viewBox="0 0 40 35" id="attention" xmlns="http://www.w3.org/2000/svg"><path stroke="#F54C28" stroke-width="1.239" stroke-linecap="round" stroke-linejoin="round" stroke-miterlimit="10" d="M39 33.978H1L20 .935z"/><circle cx="20" cy="30.261" r="1.446"/><path stroke="#F54C28" stroke-width="1.652" stroke-linecap="round" stroke-linejoin="round" stroke-miterlimit="10" d="M20 26.543V10.435"/></symbol><symbol viewBox="0 0 43 45" id="calendar" xmlns="http://www.w3.org/2000/svg"><path stroke="#F54C28" stroke-width="1.846" stroke-linecap="round" stroke-linejoin="round" stroke-miterlimit="10" d="M39.693 44.146H3.307A2.307 2.307 0 0 1 1 41.839V8.87a2.307 2.307 0 0 1 2.307-2.307h36.386A2.307 2.307 0 0 1 42 8.87v32.969a2.307 2.307 0 0 1-2.307 2.307zm-5.38-42.708v9.395M8.688 1.438v9.395m32.458 5.98H1.854"/><path d="M13.582 25.354h-3.81a.231.231 0 0 1-.231-.231v-3.809c0-.127.103-.231.231-.231h3.809c.127 0 .231.103.231.231v3.809a.23.23 0 0 1-.23.231zm9.823 0h-3.809a.231.231 0 0 1-.231-.231v-3.809c0-.127.103-.231.231-.231h3.809c.127 0 .231.103.231.231v3.809a.232.232 0 0 1-.231.231zm9.823 0h-3.809a.231.231 0 0 1-.231-.231v-3.809c0-.127.103-.231.231-.231h3.809c.127 0 .231.103.231.231v3.809a.232.232 0 0 1-.231.231zm-19.646 6.834h-3.81a.231.231 0 0 1-.231-.231v-3.809c0-.127.103-.231.231-.231h3.809c.127 0 .231.103.231.231v3.809a.23.23 0 0 1-.23.231zm9.823 0h-3.809a.231.231 0 0 1-.231-.231v-3.809c0-.127.103-.231.231-.231h3.809c.127 0 .231.103.231.231v3.809a.232.232 0 0 1-.231.231zm9.823 0h-3.809a.231.231 0 0 1-.231-.231v-3.809c0-.127.103-.231.231-.231h3.809c.127 0 .231.103.231.231v3.809a.232.232 0 0 1-.231.231zm-19.646 6.833h-3.81a.231.231 0 0 1-.231-.231v-3.809c0-.127.103-.231.231-.231h3.809c.127 0 .231.103.231.231v3.809a.23.23 0 0 1-.23.231zm9.823 0h-3.809a.231.231 0 0 1-.231-.231v-3.809c0-.127.103-.231.231-.231h3.809c.127 0 .231.103.231.231v3.809a.232.232 0 0 1-.231.231z"/></symbol><symbol viewBox="0 0 50 50" id="calendar_new" xmlns="http://www.w3.org/2000/svg"><path d="M12 0c-1.1 0-2 .9-2 2v2H4c-.5 0-1.1.2-1.4.6-.4.3-.6.9-.6 1.4v40c0 .5.2 1.1.6 1.4.3.4.9.6 1.4.6h42c.5 0 1.1-.2 1.4-.6.4-.4.6-.9.6-1.4V6c0-.5-.2-1.1-.6-1.4-.3-.4-.9-.6-1.4-.6h-6V2c0-1.1-.9-2-2-2h-2c-1.1 0-2 .9-2 2v2H16V2c0-1.1-.9-2-2-2h-2zm0 2h2v6h-2V2zm24 0h2v6h-2V2zM4 6h6v2c0 1.1.9 2 2 2h2c1.1 0 2-.9 2-2V6h18v2c0 1.1.9 2 2 2h2c1.1 0 2-.9 2-2V6h6v7H4V6zm0 9h42v31H4V15zm6 4v23h30V19H10zm2 2h5v5h-5v-5zm7 0h5v5h-5v-5zm7 0h5v5h-5v-5zm7 0h5v5h-5v-5zm-21 7h5v5h-5v-5zm7 0h5v5h-5v-5zm7 0h5v5h-5v-5zm7 0h5v5h-5v-5zm-21 7h5v5h-5v-5zm7 0h5v5h-5v-5zm7 0h5v5h-5v-5zm7 0h5v5h-5v-5z"/></symbol><symbol viewBox="0 0 67 47" id="card" xmlns="http://www.w3.org/2000/svg"><path stroke="#F54C28" stroke-width="2.268" stroke-miterlimit="10" d="M65.5 5.435v6.804H2V5.435a3.781 3.781 0 0 1 3.78-3.78h55.94a3.78 3.78 0 0 1 3.78 3.78zM2 18.286h63.5V41.72a3.781 3.781 0 0 1-3.78 3.78H5.78A3.78 3.78 0 0 1 2 41.72V18.286z"/><path stroke="#F54C28" stroke-width="2.268" stroke-miterlimit="10" d="M2 12.238h63.5v6.048H2z"/><path stroke="#F54C28" stroke-width="2.268" stroke-linecap="round" stroke-linejoin="round" stroke-miterlimit="10" d="M10.315 28.869h12.096m-12.096 6.804h22.679"/></symbol><symbol viewBox="0 0 45 41" id="cardio" xmlns="http://www.w3.org/2000/svg"><path stroke="#F54C28" stroke-width="1.89" stroke-linecap="round" stroke-linejoin="round" stroke-miterlimit="10" d="M2.174 15.943a12.491 12.491 0 0 1-.229-2.379c0-6.785 5.5-12.286 12.286-12.286 3.421 0 6.516 1.403 8.742 3.662a12.238 12.238 0 0 1 8.742-3.662C38.5 1.278 44 6.778 44 13.564c0 1.862-.421 3.766-1.266 5.443-.822 1.63-2.103 2.84-3.341 4.144L23.658 39.706a.945.945 0 0 1-1.37 0L10.189 26.978"/><path stroke="#F54C28" stroke-width="1.89" stroke-linecap="round" stroke-linejoin="round" stroke-miterlimit="10" d="M1 22.542h9.451l4.252-10.869 6.616 16.539 5.197-5.67h3.781"/></symbol><symbol viewBox="0 0 45 44" id="children" xmlns="http://www.w3.org/2000/svg"><path stroke="#F54C28" stroke-width="1.888" stroke-linecap="round" stroke-linejoin="round" stroke-miterlimit="10" d="M42.528 43H1.944A.944.944 0 0 1 1 42.056v-2.831c0-.521.423-.944.944-.944h40.584c.521 0 .944.423.944.944v2.831a.944.944 0 0 1-.944.944zm.944-11.798a7.076 7.076 0 0 1-6.177 7.017 6.843 6.843 0 0 0-7.904-5.983 7.081 7.081 0 0 1 6.173-8.06 6.838 6.838 0 0 0 7.753 5.535c.098.481.155.982.155 1.491z"/><path stroke="#F54C28" stroke-width="1.888" stroke-linecap="round" stroke-linejoin="round" stroke-miterlimit="10" d="M43.316 29.711a6.837 6.837 0 0 1-7.753-5.535c.269-.038.547-.052.831-.052a7.084 7.084 0 0 1 6.922 5.587zm-6.021 8.509a6.362 6.362 0 0 1-.901.061 7.082 7.082 0 0 1-7.003-6.045 6.844 6.844 0 0 1 7.904 5.984zM13.27 33.562a4.721 4.721 0 0 1-4.719 4.719 4.72 4.72 0 0 1-4.719-4.719c0-1.619.816-3.049 2.062-3.898a4.675 4.675 0 0 1 2.657-.821 4.72 4.72 0 0 1 4.719 4.719zm12.269 0a4.72 4.72 0 1 1-4.719-4.719c.986 0 1.902.302 2.657.821a4.708 4.708 0 0 1 2.062 3.898z"/><path stroke="#F54C28" stroke-width="1.888" stroke-linecap="round" stroke-linejoin="round" stroke-miterlimit="10" d="M23.652 27.899c0 .378-.024.746-.071 1.114a7.725 7.725 0 0 1-.104.651 4.549 4.549 0 0 0-1.293-.618 4.63 4.63 0 0 0-1.364-.203 4.49 4.49 0 0 0-1.137.142 4.713 4.713 0 0 0-3.582 4.578c0 1.118.392 2.152 1.043 2.959a8.822 8.822 0 0 1-2.459.345 8.832 8.832 0 0 1-2.459-.345 4.705 4.705 0 0 0 1.043-2.959 4.723 4.723 0 0 0-4.719-4.719c-.467 0-.916.066-1.34.198-.477.137-.92.349-1.317.623a7.416 7.416 0 0 1-.099-.632 8.189 8.189 0 0 1-.075-1.133c0-4.95 4.016-8.966 8.966-8.966s8.967 4.015 8.967 8.965zM22.236 7.72a7.98 7.98 0 0 1 .472 2.718c0 4.431-3.591 8.022-8.022 8.022s-8.022-3.591-8.022-8.022c0-.953.165-1.869.472-2.718a3.774 3.774 0 1 1 5.496-5.04c.656-.175 1.34-.264 2.053-.264s1.397.09 2.053.264a3.774 3.774 0 0 1 6.913 2.095 3.75 3.75 0 0 1-1.415 2.945z"/><circle stroke="#F54C28" stroke-width=".944" stroke-linecap="round" stroke-linejoin="round" stroke-miterlimit="10" cx="14.685" cy="11.382" r="1.416"/><path stroke="#F54C28" stroke-width=".944" stroke-linecap="round" stroke-linejoin="round" stroke-miterlimit="10" d="M17.517 14.685a1.416 1.416 0 0 1-2.832 0m0 0a1.416 1.416 0 0 1-2.832 0m2.832-1.887v2.359"/><path stroke="#F54C28" stroke-width="1.888" stroke-linecap="round" stroke-linejoin="round" stroke-miterlimit="10" d="M27.899 26.011c0 2.19-1.661 2.86-4.318 3.001.047-.368.071-.736.071-1.114 0-4.95-4.016-8.966-8.966-8.966S5.72 22.948 5.72 27.898c0 .382.024.76.075 1.133C2.864 28.947 1 28.333 1 26.011c0-4.172 6.022-7.551 13.449-7.551s13.45 3.38 13.45 7.551z"/></symbol><symbol viewBox="0 0 43 55" id="dance" xmlns="http://www.w3.org/2000/svg"><circle stroke="#F54C28" stroke-width="1.63" stroke-linecap="round" stroke-linejoin="round" stroke-miterlimit="10" cx="22.328" cy="9.79" r="4.074"/><path stroke="#F54C28" stroke-width="1.63" stroke-linecap="round" stroke-linejoin="round" stroke-miterlimit="10" d="M30.514 44.842c-.315 1.907-.331 3.873-.967 5.709-.424 1.239-1.238 2.254-2.602 2.423-4.346.543-1.63-7.605-1.63-10.864 0-2.412-2.178-4.661-4.395-6.459-1.771-1.439-3.574-2.597-4.297-3.319-1.602-1.602-2.156-7.947 6.127-1.912.125.087.255.185.391.282 2.928 2.2 5.997 4.959 7.192 8.539.599 1.788.485 3.771.181 5.601z"/><path stroke="#F54C28" stroke-width="1.63" stroke-linecap="round" stroke-linejoin="round" stroke-miterlimit="10" d="M31.29 24.184c-2.716 1.086-7.605-2.173-7.605-2.173-2.716 1.63-.929 8.403-.929 8.403l-.005.005c-8.284-6.035-7.73.31-6.127 1.912.722.722 2.526 1.879 4.297 3.319.011.158.027.321.049.483.543 3.802-1.63 9.234-3.802 11.407s-5.975 7.062-8.691 4.889 1.63-5.432 4.889-8.691 1.901-6.79 1.358-13.308.815-7.876 1.901-11.136c-3.797-.424-7.675-1.733-9.376-5.394-.69-1.494-3.449-8.729.141-8.729 3.802 0 2.716 5.975 4.346 8.148s5.975 1.63 9.234 1.63 6.518 5.975 8.691 5.432c1.901-.473.543-7.062 4.346-6.518 3.226.462-.001 9.235-2.717 10.321z"/><circle stroke="#F54C28" stroke-width="1.086" stroke-miterlimit="10" cx="2.175" cy="29.616" r="1.086"/><circle stroke="#F54C28" stroke-width="1.086" stroke-miterlimit="10" cx="5.325" cy="26.466" r=".978"/><path stroke="#F54C28" stroke-width="1.086" stroke-linecap="round" stroke-linejoin="round" stroke-miterlimit="10" d="M3.261 29.399L.654 24.184l3.911-2.172 1.304 3.476"/><circle stroke="#F54C28" stroke-width=".877" stroke-miterlimit="10" cx="36.115" cy="8.003" r=".877"/><circle stroke="#F54C28" stroke-width=".877" stroke-miterlimit="10" cx="39.707" cy="8.23" r=".79"/><path stroke="#F54C28" stroke-width=".877" stroke-linecap="round" stroke-linejoin="round" stroke-miterlimit="10" d="M36.827 8.545l1.768-4.364L42 5.39l-1.41 2.647"/><circle stroke="#F54C28" stroke-width="1.086" stroke-miterlimit="10" cx="35.636" cy="32.333" r="1.086"/><path stroke="#F54C28" stroke-width="1.086" stroke-linecap="round" stroke-linejoin="round" stroke-miterlimit="10" d="M36.645 32.791l.932-5.755.599 1.771"/><circle stroke="#F54C28" stroke-width=".764" stroke-miterlimit="10" cx="7.035" cy="36.733" r=".764"/><path stroke="#F54C28" stroke-width=".764" stroke-linecap="round" stroke-linejoin="round" stroke-miterlimit="10" d="M7.787 36.938l-.002-4.101.616 1.162"/></symbol><symbol viewBox="0 0 40 40" id="date" xmlns="http://www.w3.org/2000/svg"><circle stroke="#F54C28" stroke-width="1.617" stroke-miterlimit="10" cx="20" cy="20" r="19"/><path stroke="#F54C28" stroke-width="1.617" stroke-linecap="round" stroke-miterlimit="10" d="M20 7.468V20l7.277 5.66"/><circle cx="12.319" cy="6.66" r="1.011"/><circle cx="27.883" cy="6.862" r="1.011"/><circle cx="33.543" cy="12.117" r="1.011"/><circle cx="6.457" cy="12.117" r="1.011"/><circle cx="4.436" cy="20.202" r="1.011"/><circle cx="35.564" cy="20.202" r="1.011"/><circle cx="33.543" cy="27.883" r="1.011"/><circle cx="6.862" cy="27.883" r="1.011"/><circle cx="12.319" cy="33.34" r="1.011"/><circle cx="27.916" cy="33.595" r="1.011"/><circle cx="20.202" cy="4.436" r="1.011"/><circle cx="20.202" cy="35.564" r="1.011"/></symbol><symbol viewBox="0 0 52 60" id="direction" xmlns="http://www.w3.org/2000/svg"><path stroke="#F54C28" stroke-width="1.825" stroke-linecap="round" stroke-miterlimit="10" d="M36.598 59H21.386a1.825 1.825 0 0 1-1.825-1.825v-3.042c0-1.008.817-1.825 1.825-1.825h15.212c1.008 0 1.825.817 1.825 1.825v3.042A1.825 1.825 0 0 1 36.598 59zM31.122 7.28v3.651h-4.868V7.28h.511c.542.383 1.205.608 1.923.608s1.381-.225 1.923-.608h.511zm-4.868 14.604h4.868v4.868h-4.868zm0 15.82h4.868v14.603h-4.868z"/><path stroke="#F54C28" stroke-width="1.825" stroke-linecap="round" stroke-miterlimit="10" d="M32.034 4.542c0 1.132-.56 2.136-1.424 2.738-.542.383-1.205.608-1.923.608s-1.381-.225-1.923-.608a3.329 3.329 0 0 1-1.424-2.738c0-1.85 1.497-3.347 3.347-3.347s3.347 1.498 3.347 3.347zm4.405 32.182c.316.395.03.98-.475.98H7.452c-.432 0-.852-.152-1.18-.432L1.215 32.97a.608.608 0 0 1-.024-.907l5.062-4.807a1.838 1.838 0 0 1 1.26-.505h28.452c.505 0 .791.584.475.98l-3.493 4.497 3.492 4.496zm13.91-19.574l-5.056 4.302a1.82 1.82 0 0 1-1.18.432H20.467a.605.605 0 0 1-.475-.98l3.493-4.497-3.493-4.497a.605.605 0 0 1 .475-.98h23.584c.469 0 .919.183 1.26.505l5.062 4.807a.609.609 0 0 1-.024.908z"/></symbol><symbol viewBox="0 0 129 129" id="down-arrow" xmlns="http://www.w3.org/2000/svg"><path d="M121.3 34.6c-1.6-1.6-4.2-1.6-5.8 0l-51 51.1-51.1-51.1c-1.6-1.6-4.2-1.6-5.8 0-1.6 1.6-1.6 4.2 0 5.8l53.9 53.9c.8.8 1.8 1.2 2.9 1.2 1 0 2.1-.4 2.9-1.2l53.9-53.9c1.7-1.6 1.7-4.2.1-5.8z"/></symbol><symbol viewBox="0 0 50 50" id="exit" xmlns="http://www.w3.org/2000/svg"><path d="M7.719 6.281L6.28 7.72 23.563 25 6.28 42.281l1.44 1.439L25 26.437 42.281 43.72l1.438-1.438L26.437 25 43.72 7.719 42.28 6.28 25 23.563z"/></symbol><symbol viewBox="0 0 10 19" id="facebook" xmlns="http://www.w3.org/2000/svg"><path d="M10 6.65H6.651v-1.9c0-.981.08-1.598 1.485-1.598h1.775V.13a24.83 24.83 0 0 0-2.602-.131c-2.578 0-4.459 1.574-4.459 4.465V6.65H0v3.8l2.85-.001v8.552h3.8v-8.554l2.913-.001L10 6.65z"/></symbol><symbol viewBox="0 0 19 20" id="google_play" xmlns="http://www.w3.org/2000/svg"><path d="M1.946.017l-.043.007a.64.64 0 0 0-.239.105 1.04 1.04 0 0 0-.298.274 1.02 1.02 0 0 0-.176.57v18.163c0 .27.119.554.34.72.017.013.031.032.047.045a.44.44 0 0 0 .179.088.644.644 0 0 0 .186.007c.059-.003.117-.003.175-.01a1.066 1.066 0 0 0 .404-.13c.368-.214 7.893-4.564 7.893-4.564l3.926-2.269a.116.116 0 0 0 .027-.014l.054-.027s.053-.027.068-.041l3.777-2.174c.306-.177.548-.464.543-.815-.005-.352-.253-.625-.53-.774-.153-.082-1.145-.649-2.065-1.182-.92-.533-1.793-1.046-1.793-1.046l-4.007-2.309L2.698.185a1.346 1.346 0 0 0-.489-.176 1.06 1.06 0 0 0-.263.008zm.114 1.16l8.857 8.789-8.857 8.79V1.177zm2.065.829L9.98 5.389l3.505 2.024-1.956 1.943-7.404-7.35zm10.134 5.855c.209.122.74.431 1.521.883.92.533 1.865 1.073 2.092 1.195.022.012.015.019.027.027a.64.64 0 0 1-.068.041c-.418.241-3.126 1.814-3.559 2.065L12.14 9.967l2.119-2.106zm-2.731 2.703l1.97 1.956-3.518 2.025-5.841 3.369 7.389-7.35z"/></symbol><symbol viewBox="0 0 154 100" id="gym" xmlns="http://www.w3.org/2000/svg"><g stroke="#F54C28" stroke-linecap="round" stroke-miterlimit="10"><path stroke-width="3.896" d="M119 98h-19a2 2 0 0 1-2-2V4a2 2 0 0 1 2-2h19a2 2 0 0 1 2 2v92a2 2 0 0 1-2 2z"/><path stroke-width="4" d="M137.99 84h-15.48a1.51 1.51 0 0 1-1.51-1.51V17.51c0-.834.676-1.51 1.51-1.51h15.481c.834 0 1.51.676 1.51 1.51v64.98A1.511 1.511 0 0 1 137.99 84zm13.379-24h-9.737a.631.631 0 0 1-.631-.631V40.631c0-.349.283-.631.631-.631h9.737c.349 0 .631.283.631.631v18.737a.632.632 0 0 1-.631.632z"/><path stroke-width="3.896" d="M35 98h19a2 2 0 0 0 2-2V4a2 2 0 0 0-2-2H35a2 2 0 0 0-2 2v92a2 2 0 0 0 2 2z"/><path stroke-width="4" d="M16.01 84h15.48A1.51 1.51 0 0 0 33 82.49V17.51A1.51 1.51 0 0 0 31.49 16H16.01a1.51 1.51 0 0 0-1.51 1.51v64.98c0 .834.676 1.51 1.51 1.51zM2.631 60h9.737a.632.632 0 0 0 .632-.631V40.631a.632.632 0 0 0-.631-.631H2.631a.632.632 0 0 0-.631.631v18.737c0 .349.283.632.631.632zM56 41h42M56 60h42"/></g></symbol><symbol viewBox="0 0 40 45" id="gymnastic" xmlns="http://www.w3.org/2000/svg"><path stroke="#F54C28" stroke-width="1.39" stroke-linecap="round" stroke-linejoin="round" stroke-miterlimit="10" d="M17.008 28.363c-.301.347-.57.723-.829 1.098-1.186 1.742-2.293 3.507-3.456 5.263-6.347-2.511-10.836-8.7-10.836-15.941 0-6.037 3.123-11.346 7.843-14.399a6.8 6.8 0 0 0 .032.963v6.486l4.633 5.559c-1.223 6.921 1.849 10.262 2.613 10.971zm14.042 2.636a17.084 17.084 0 0 1-12.022 4.925 17.01 17.01 0 0 1-2.724-.218c.208-.334.426-.667.653-.991 1.144-1.612 2.529-2.956 3.924-4.35.171-.171.375-.385.574-.625.12.051.236.107.352.162 1.488.744 5.37 1.189 9.243 1.097zm5.119-12.217c0 2.984-.76 5.786-2.103 8.228-3.382.412-7.955 1.056-11.332-.352-5.559-2.316-3.706-9.729-4.17-10.655-.463-.927-5.096-5.096-5.096-5.096V5.348c0-.565.171-1.821-.222-2.71a17.19 17.19 0 0 1 5.782-.996c9.465-.002 17.141 7.675 17.141 17.14z"/><circle stroke="#F54C28" stroke-width="1.39" stroke-linecap="round" stroke-linejoin="round" stroke-miterlimit="10" cx="19.26" cy="9.285" r="3.011"/><path stroke="#F54C28" stroke-width="1.39" stroke-linecap="round" stroke-linejoin="round" stroke-miterlimit="10" d="M20.881 30.364c-1.394 1.394-2.78 2.738-3.924 4.35-.227.324-.445.658-.653.991-1.038 1.654-1.862 3.414-2.882 5.087-.663 1.089-2.08 3.331-3.66 2.543-1.853-.927-1.853-1.853 2.78-8.339.06-.093.12-.181.181-.273 1.163-1.756 2.27-3.521 3.456-5.263.537-.788 1.13-1.557 1.909-2.108 1.033-.732 3.081-1.2 3.943.083.662.983-.501 2.28-1.15 2.929z"/><path stroke="#F54C28" stroke-width="1.39" stroke-linecap="round" stroke-linejoin="round" stroke-miterlimit="10" d="M34.066 27.01a17.048 17.048 0 0 1-3.016 3.989c-3.873.093-7.755-.352-9.242-1.098a8.055 8.055 0 0 0-.352-.162c.556-.681 1.066-1.58.574-2.302-.862-1.283-2.909-.815-3.943-.083-.403.287-.76.635-1.079 1.01-.764-.709-3.836-4.049-2.613-10.97l-4.633-5.559V5.347s-.051-.412-.032-.964c.032-1.093.343-2.743 1.886-2.743.903 0 1.385.422 1.631.996.394.89.222 2.145.222 2.71v5.559s4.633 4.17 5.096 5.096c.463.927-1.39 8.339 4.17 10.655 3.377 1.41 7.949.766 11.331.354z"/><path stroke="#F54C28" stroke-width="1.39" stroke-linecap="round" stroke-linejoin="round" stroke-miterlimit="10" d="M33.853 30.827c-.913.093-1.858.148-2.803.171a17.048 17.048 0 0 0 3.016-3.989c2.187-.264 3.873-.435 4.42.111 1.39 1.391 0 3.244-4.633 3.707z"/></symbol><symbol viewBox="0 0 26 26" id="hamburger" xmlns="http://www.w3.org/2000/svg"><path d="M0 4v2h26V4zm0 8v2h26v-2zm0 8v2h26v-2z"/></symbol><symbol viewBox="0 0 55 45" id="hammock" xmlns="http://www.w3.org/2000/svg"><circle stroke="#F54C28" stroke-width="1.727" stroke-linecap="round" stroke-linejoin="round" stroke-miterlimit="10" cx="7.332" cy="3.878" r="2.878"/><circle stroke="#F54C28" stroke-width="1.727" stroke-linecap="round" stroke-linejoin="round" stroke-miterlimit="10" cx="47.053" cy="3.878" r="2.878"/><path stroke="#F54C28" stroke-width="1.727" stroke-linecap="round" stroke-linejoin="round" stroke-miterlimit="10" d="M7.332 6.757v19.572m35.691 0h-1.928M3.47 13.785l1.6-8.128L1 26.329M9.595 5.656l4.07 20.673M47.053 6.757v19.572M44.79 5.656l-4.069 20.673h12.664l-4.07-20.673"/><path stroke="#F54C28" stroke-width="1.727" stroke-linecap="round" stroke-linejoin="round" stroke-miterlimit="10" d="M27.48 42.58a20.048 20.048 0 0 1-6.332 1.019c-10.149 0-18.749-7.507-20.148-17.27h12.665c1.093 7.633 6.671 13.891 13.815 16.251zm25.905-16.251c-1.399 9.763-9.424 17.27-19.572 17.27-2.211 0-4.34-.357-6.332-1.019 7.144-2.36 12.146-8.618 13.24-16.251"/><path stroke="#F54C28" stroke-width="1.151" stroke-linecap="round" stroke-linejoin="round" stroke-miterlimit="10" d="M7.332 26.329c.288 8.347 5.181 16.119 20.148 16.119m19.573-16.119c-.288 8.347-4.605 16.119-19.572 16.119"/></symbol><symbol viewBox="0 0 52 49" id="hockey" xmlns="http://www.w3.org/2000/svg"><path d="M47.267 36.13c1.144 0 2.348.698 3.1 1.527 1.215 1.341.456 3.148-.403 4.452-.828 1.257-2.05 3.064-3.727 3.064h-11.6a11.305 11.305 0 0 1-9.419-5.053L1.212 3.948a1.13 1.13 0 0 1 .224-1.495l.853-.702a1.13 1.13 0 0 1 1.609.176L27.27 31.793a11.305 11.305 0 0 0 8.902 4.338l11.095-.001zm-9.114.566l-2.261 7.913m8.479-7.913l-2.261 7.913M5.809 10.875l2.953-2.44m-.41 5.548l2.954-2.439" stroke="#F54C28" stroke-width="1.696" stroke-linecap="round" stroke-linejoin="round" stroke-miterlimit="10"/><g stroke="#F54C28" stroke-width="1.696" stroke-linecap="round" stroke-linejoin="round" stroke-miterlimit="10"><path d="M21.197 44.043v1.13a2.827 2.827 0 0 1-2.826 2.826H7.632a2.827 2.827 0 0 1-2.826-2.826v-1.13a2.827 2.827 0 0 1 2.826-2.826h10.739a2.828 2.828 0 0 1 2.826 2.826z"/><path d="M50.791 3.947l-4.595 6.93-19.415 29.244a11.201 11.201 0 0 1-5.584 4.375v-.452a2.827 2.827 0 0 0-2.826-2.826H7.632a2.827 2.827 0 0 0-2.826 2.826v.961c0-.002-.725-.385-.795-.44-.261-.206-.457-.453-.646-.723-1.448-2.061-3.711-4.338-1.317-6.632a3.9 3.9 0 0 1 2.685-1.08h11.101c3.476 0 6.754-1.6 8.902-4.335L48.107 1.924a1.13 1.13 0 0 1 1.605-.175l.853.707c.447.366.543 1.011.226 1.491zM13.849 36.696l1.131 4.521m-7.348-4.521l1.13 4.521m37.432-30.342l-2.954-2.44m.41 5.548l-2.953-2.439"/></g></symbol><symbol viewBox="0 0 52 45" id="ice-rink" xmlns="http://www.w3.org/2000/svg"><path stroke="#F54C28" stroke-width="2.174" stroke-linecap="round" stroke-linejoin="round" stroke-miterlimit="10" d="M2 43.5h40.758s8.152 0 8.152-6.521m-4.997-10.297c.332 1.126.12 2.383-.231 3.502-.298.952-.909 1.631-1.837 2.001-.777.31-1.837.446-3.261.446H8.32c-.929 0-1.848.114-2.755-.136a4.874 4.874 0 0 1-1.391-.62C2.924 31.099 2 29.795 2 28.284c0-3.261 1.63-10.325 1.63-13.586.544-3.261.544-13.042.544-13.042h2.717s1.63 3.261 6.521 4.347 5.434.543 5.434.543 2.717 9.238 9.238 11.956c3.109 1.295 6.402 2.057 9.599 3.093 1.503.487 2.977 1.035 4.393 1.737 1.231.61 2.582 1.201 3.379 2.379.21.307.358.633.458.971z"/><path stroke="#F54C28" stroke-width="2.174" stroke-linecap="round" stroke-linejoin="round" stroke-miterlimit="10" d="M43.844 32.186v2.619c0 1.5-1.217 2.717-2.717 2.717H6.891a2.718 2.718 0 0 1-2.717-2.717v-2.929a4.93 4.93 0 0 0 1.391.62c.908.25 1.826.136 2.755.136h32.264c1.424-.001 2.483-.137 3.26-.446zM9.699 37.522v5.435m14.582-5.435v5.435m14.673-5.435v5.435"/><circle cx="16.673" cy="11.981" r="1.63"/><circle cx="19.933" cy="17.415" r="1.63"/><circle cx="24.824" cy="21.763" r="1.63"/><circle cx="30.802" cy="23.936" r="1.63"/><path stroke="#F54C28" stroke-width="2.174" stroke-miterlimit="10" d="M16.673 11.981l3.858-1.385m-.598 6.819l2.718-2.174m2.173 6.522l2.174-3.261m3.804 5.434l.543-4.347"/><path stroke="#F54C28" stroke-width="2.174" stroke-linecap="round" stroke-linejoin="round" stroke-miterlimit="10" d="M13.975 6.125c2.154-2.839 9.219-5.013 9.219-2.839 0 1.63-1.087 9.782.543 11.956"/></symbol><symbol viewBox="0 0 20 20" id="instagram" xmlns="http://www.w3.org/2000/svg"><path d="M5.909 0A5.916 5.916 0 0 0 0 5.909v8.182A5.916 5.916 0 0 0 5.909 20h8.182A5.916 5.916 0 0 0 20 14.091V5.909A5.916 5.916 0 0 0 14.091 0H5.909zm0 .909h8.182c2.767 0 5 2.233 5 5v8.182c0 2.767-2.233 5-5 5H5.909c-2.767 0-5-2.233-5-5V5.909c0-2.766 2.234-5 5-5zm9.546 2.727a.909.909 0 1 0 0 1.818.909.909 0 0 0 0-1.818zM10 5c-2.756 0-5 2.244-5 5s2.244 5 5 5 5-2.244 5-5-2.244-5-5-5zm0 .909c2.265 0 4.091 1.826 4.091 4.091S12.265 14.091 10 14.091 5.909 12.265 5.909 10 7.735 5.909 10 5.909z"/></symbol><symbol viewBox="0 0 40 46" id="locker" xmlns="http://www.w3.org/2000/svg"><path stroke="#F54C28" stroke-width="1.877" stroke-linecap="round" stroke-linejoin="round" stroke-miterlimit="10" d="M39 45.099H1V1.938C1 1.42 1.42 1 1.938 1h36.123c.519 0 .939.42.939.938v43.161zM20 1v44.099m19-22.05H20.235M5.691 34.778h9.383m-9.383 4.691h9.383m0-19.234v5.16m9.383-15.012v3.753m0 17.358v3.753"/></symbol><symbol viewBox="0 0 200 46" id="logo" xmlns="http://www.w3.org/2000/svg"><path fill-rule="evenodd" clip-rule="evenodd" d="M40.452 23.95c.388.544 1.137.584 1.909.552h1.314l1.724-5.091c.112-.287.121-.499-.101-.676-.178-.133-.411-.171-.677-.167h-.511c-.803.014-1.448.122-2.061.593-.553.375-1.231 2.375-1.446 2.957-.197.555-.446 1.391-.151 1.832zm4.774 5.468c-1.315 1.029-2.985 1.36-4.669 1.35h-6.525l.741-2.068h5.247c.634.018 1.308-.018 1.924-.322.579-.335.825-.713 1.157-1.258h-4.375a6.207 6.207 0 0 1-1.809-.19c-.502-.133-.876-.455-1.119-1.014-.414-1.084.09-2.732.504-3.879.528-1.493 1.422-3.829 2.835-4.851 1.281-.979 2.536-1.243 4.169-1.234h5.059c.644-.013 1.372.031 1.782.405.329.368.284.883.091 1.37l-2.908 8.397c-.42 1.217-1.005 2.424-2.104 3.294zm22.789-5.575l1.608-4.49a.852.852 0 0 1 .294-.368c.085-.053.293-.133.407-.138h1.608c.162-.012.401.028.704.128.358.118.511.439.571.791.029.513-.175 1.079-.353 1.564-.191.552-.423 1.195-.883 1.687-.493.551-1.25.807-1.974.826h-1.982zm-1.028 2.868h3.348c.66.025 1.416-.05 2.269-.223.857-.175 1.697-.595 2.519-1.26 1.222-1.095 2.009-2.763 2.504-4.212.215-.542.381-1.185.493-1.932.11-.734-.024-1.397-.4-1.98a2.729 2.729 0 0 0-1.569-.954c-.624-.132-1.156-.188-1.598-.17H68.85c-.681-.013-1.279.088-1.89.388-.763.401-1.194.934-1.429 1.658l-4.615 12.711h4.569l1.502-4.026zm-11.343-7.955c-.557.237-.884 1.019-1.035 1.563h3.657c.467-.016.808-.151.959-.564.191-.519.038-.994-.462-1.102a7.494 7.494 0 0 0-1.184-.082c-.511-.004-1.483.01-1.935.185zm-.032 5.997c-.707.022-1.787.073-2.107-.663-.141-.414.152-1.078.317-1.518h6.908c.442.011.773-.05 1.153-.262.728-.431 1.077-1.079 1.312-1.808.23-.592.506-1.598.582-2.252.072-.614-.074-1.095-.436-1.479-.306-.28-.817-.47-1.591-.55-.794-.082-1.809-.117-3.035-.105a27.154 27.154 0 0 0-3.36.145c-1.047.113-1.917.398-2.635.854a4.45 4.45 0 0 0-1.496 1.794c-.356.767-.816 2.018-1.138 2.995-.336.917-1.178 3.07-.881 3.966.227.6.635.941 1.234 1.067.664.14 1.457.197 2.372.168h7.552l.842-2.351-5.593-.001zm-44.891.273c1.835-1.656 3.176-4.354 3.983-6.544.622-1.688 1.935-3.592 3.8-3.743.288-.023.611.025.611.025L14.661 27.12h3.962l5.322-14.778-5.065.004c-3.602-.064-6.48 1.811-7.836 5.134-.626 1.707-1.742 4.255-3.101 5.481-1.403 1.199-2.959 1.64-4.621 1.582H.772L0 27.166h4.523c2.267.077 4.341-.547 6.198-2.14zm11.418 1.267c.609.665 1.911.822 2.91.832l8.091-.004 3.965-11.133h-3.962L30.416 23.7c-.1.32-.263.577-.578.796-.315.211-.699.277-1.046.278h-.83c-.752.03-1.563-.125-1.925-.803-.278-.58.029-1.524.21-2.035l2.095-5.947H24.38l-2.323 6.584c-.462 1.228-.862 2.763.082 3.72zm144.021-4.578l.141-.396c.468-1.365.582-2.656-.39-3.438-1.441-.955-4.471-.938-6.121-.914-2.287-.033-4.866.014-6.998.992-1.807.932-2.755 2.433-3.231 3.895-.487 1.269-.705 2.702.329 3.549 1.45.973 4.471.95 6.136.926 2.45.036 5.015-.083 6.998-.992 1.695-.875 2.634-2.249 3.136-3.622zm1.067-.146l1.121-3.161c.152-.49.481-.893 1.256-1.221.636-.25 1.29-.334 2.063-.323h7.234c1.167-.037 2.674.122 3.627.901.818.861.576 2.123.164 3.134-.435 1.306-1.189 2.817-2.469 3.777-.895.595-1.812.957-2.761 1.107-1.015.161-1.925.229-2.713.207h-4.743l-1.355 3.781h-4.345l2.729-7.659.114-.329.078-.214zm-28.755-1.928l-2.308 6.512h-4.345l2.73-7.705c.102-.345.3-.643.78-.909.896-.445 2.086-.543 3.283-.514h5.413c1.676-.026 3.328.087 4.492.799.869.616 1.036 1.339.619 2.346l-2.12 5.981h-4.345l1.568-4.425c.213-.566.552-1.56-.107-2.384-.622-.797-1.824-.876-2.685-.875h-1.021a2.684 2.684 0 0 0-1.164.228c-.464.246-.676.56-.79.946zm-11.731 4.384c-1.448.028-4.353.184-5.196-1.418-.407-.721.029-2.064.267-2.762.306-.926.977-2.328 1.879-3.118 1.578-1.287 3.64-1.277 5.53-1.236h4.37l.761-2.149h-7.141c-2.553-.056-5.198.288-7.438 1.679-1.929 1.276-2.919 3.496-3.532 5.301-.451 1.276-1.063 3.23-.015 4.387 1.289 1.501 4.177 1.481 5.899 1.463h8.619l.761-2.149h-4.764v.002zm59.312 2.052h4.345l2.694-7.605 5.793-.001a1.67 1.67 0 0 0-.469-.64c-.896-.659-2.572-.884-4.027-.881h-7.326c-1.228-.024-2.121.08-2.949.6a2.349 2.349 0 0 0-.374.309c.078.172.153.429.198.61l4.812.003-2.697 7.605zm-1.374 1.01l2.696-7.605h-3.365c-.038.593-.199 1.196-.428 1.77-.468 1.403-1.322 3.141-2.845 4.273-1 .665-2.051 1.086-3.135 1.257-1.072.169-2.026.24-2.86.217h-4.078l-1.355 3.781h-6.376l1.975-5.53a7.462 7.462 0 0 1-1.497 1.008c-2.184 1.002-4.932 1.115-7.377 1.079-1.949.028-4.995.042-6.686-1.107a2.925 2.925 0 0 1-.909-1.22l-.763 2.152h-6.377l2.057-5.805c.233-.62.302-1.049.05-1.365-.296-.378-1.014-.575-1.954-.573.016 0-1.22.008-1.221 0-.531 0-.719.251-.863.559l-2.545 7.183-14.693.02c-2.073.022-5.06-.003-6.593-1.778-1.364-1.507-.786-3.735-.187-5.431.638-1.881 1.728-4.364 3.938-5.821 2.394-1.487 5.198-1.878 7.928-1.82.022.01 8.511 0 8.511 0l-1.478 4.168h-5.043c-1.624-.036-3.555-.093-4.917 1.011-.728.637-1.313 1.859-1.582 2.672-.094.277-.523 1.615-.34 1.917.565 1.074 3.43.932 4.369.914h5.179l1.731-4.883c.189-.636.583-1.127 1.272-1.502 1.103-.548 2.478-.642 3.699-.613h5.4c1.677-.026 3.596.079 5.015.961.674.478 1.078 1.059 1.216 1.719a7.301 7.301 0 0 1 2.157-1.661c2.268-1.04 4.944-1.114 7.378-1.079 1.942-.028 5.003-.037 6.686 1.107.444.357.733.773.908 1.216l.071-.199c.264-.848.852-1.431 1.821-1.839.778-.305 1.555-.4 2.404-.387h7.206c1.44-.046 3.108.182 4.275 1.151.165-.1.315-.217.471-.321 1.06-.665 2.172-.768 3.442-.743h7.321c1.469-.003 3.453.219 4.613 1.095.81.693.923 1.434.999 2.445l-6.25.001-2.694 7.605h-6.377v.001zm-29.054-7.815c.836-.617 2.188-.768 3.179-.783.852.013 2.333.12 2.871.948.501.672.217 1.7-.029 2.412-.239.699-.628 1.535-1.458 2.125-.812.641-2.195.816-3.181.833-.781-.02-2.392-.141-2.874-1.009-.471-.648-.197-1.672.036-2.357.288-.772.752-1.724 1.456-2.169zm-.644 4.025c-.319-.392-.065-1.076.081-1.507.2-.534.568-1.36 1.076-1.668.572-.431 1.674-.609 2.673-.624.457.008 1.821.088 2.101.539.23.294-.051 1.156-.158 1.466-.21.616-.521 1.226-1.105 1.641-.539.437-1.652.637-2.647.654-.926-.026-1.519-.117-2.021-.501zm18.458-3.795l-1.521 3.958h2.068c.946-.019 1.805-.289 2.273-.732.431-.387.634-.898.827-1.468.133-.363.32-.847.259-1.246-.202-.534-.981-.647-1.453-.618h-2.029a1.348 1.348 0 0 0-.424.106zm-.435-.898c-.253.141-.513.388-.625.69l-1.835 5.175h3.455c1.046-.021 2.167-.308 2.879-.975.634-.571.899-1.297 1.095-1.874.223-.607.418-1.222.288-1.882-.36-1.058-1.423-1.397-2.384-1.352h-2.037a2.302 2.302 0 0 0-.836.218zm-84.082 4.185h2.063c.307-1.34 1.017-4.414 1.232-5.119.922-3.105 2.108-6.173 4.396-8.284 2.368-2.059 5.14-2.821 8.236-2.719h9.334l.47-2.012h-9.772c-3.615-.115-6.861.833-9.623 3.243-2.72 2.508-4.035 6.05-4.967 9.187-.249.823-1.159 4.788-1.369 5.704zm-5.966 0c.422-1.835 1.297-5.606 1.57-6.495 1.188-4.002 2.849-8.458 6.263-11.607 3.473-3.031 7.552-4.216 12.099-4.07h12.649l-.411 2.011h-12.27c-4.026-.133-7.636.868-10.714 3.546-2.983 2.752-4.514 6.734-5.692 10.704-.246.803-.992 4.005-1.431 5.911h-2.063zm29.256-7.403c-1.187 3.995-2.821 8.357-6.15 11.429-3.386 2.955-7.367 4.113-11.831 3.97h-13.01l1.159-5.268h9.875c3.174.105 6.047-.683 8.504-2.819 2.373-2.189 3.587-5.351 4.51-8.463.202-.66.834-3.381 1.17-4.84h7.226c-.447 1.937-1.204 5.176-1.453 5.991zm81.293 27.12h.413c.135-.005.283.01.444.043a.776.776 0 0 1 .42.238c.118.126.181.325.186.599-.014.395-.138.645-.371.751a1.645 1.645 0 0 1-.769.139h-.324v-1.77h.001zm0-2.441h1.831c.175-.068.195-.102.206-.143l.179-.637c-.043-.181-.075-.189-.116-.188h-3.14l-.18 5.966 1.812.179c.633-.012 1.099-.128 1.398-.347.299-.219.489-.47.574-.753.084-.283.121-.526.111-.73-.008-.435-.08-.775-.217-1.019-.136-.244-.291-.422-.465-.533a1.729 1.729 0 0 0-.679-.269 3.684 3.684 0 0 0-.686-.054h-.629v-1.472h.001zm-18.42 3.446l-.081.297c-.013.062-.043.14-.088.237a.74.74 0 0 1-.213.261.658.658 0 0 1-.399.123.84.84 0 0 1-.266-.047 1.6 1.6 0 0 1-.3-.142l-.191-.048-.32.721c.017.155.09.203.216.26.348.151.683.226 1.004.224.237-.002.437-.033.598-.092.162-.06.291-.133.389-.221.133-.122.241-.268.322-.437.081-.169.141-.328.181-.478l1.382-4.791c.033-.2.01-.228-.031-.24l-.947-.119c-.169.092-.187.141-.197.198l-.557 2.135-.137.53-.177.753-.235-.692-.179-.591-.691-2.154c-.098-.18-.173-.185-.296-.17l-.808.072a.872.872 0 0 0-.197.034l-.018.226 1.535 4.073.701.078zm-19.342-3.338h.908v4.891c.043.155.098.175.188.178h.852l.179-5.965c-.091-.174-.132-.183-.179-.18h-2.88c-.175.092-.183.133-.18.18l-.009 1.408-.016.721-.039.819-.052.703c-.038.438-.12.769-.248.993-.128.225-.347.354-.658.388-.206.024-.235.043-.25.077l.223.927.305.063c.081-.007.197-.029.348-.066.151-.037.307-.102.469-.193.368-.227.611-.524.729-.894.118-.369.189-.795.212-1.278l.033-.502.035-.71.021-.718.009-.842zm-19.618 5.069l.18-2.71h.386c.268.008.445.075.529.2a.906.906 0 0 1 .153.402l.215 1.077c.022.148.057.301.105.461.048.16.138.302.272.427.17.13.352.212.547.248.195.036.324.051.386.047.17-.066.187-.097.197-.134l.234-.681-.323-.233c-.129-.026-.218-.082-.268-.166-.05-.085-.092-.23-.127-.435l-.143-.754a1.58 1.58 0 0 0-.08-.276 1.128 1.128 0 0 0-.728-.674c.238-.115.407-.237.508-.391a1.22 1.22 0 0 0 .192-.506l.108-.637c.035-.216.084-.362.147-.435a.42.42 0 0 1 .248-.139l.225-.054c.101-.102.103-.143.09-.188l-.189-.637c-.264-.109-.381-.091-.522-.056a1.52 1.52 0 0 0-.411.173.999.999 0 0 0-.402.433 1.988 1.988 0 0 0-.146.527l-.134.762c-.048.267-.134.448-.257.542-.123.093-.292.137-.506.131h-.305v-2.288c-.092-.174-.133-.183-.18-.18h-.86l-.18 5.966 1.039.178zm-32.431-1.058c-.148-.088-.182-.077-.219-.055-.243.146-.365.201-.487.239a1.245 1.245 0 0 1-.371.059 1.007 1.007 0 0 1-.499-.122.913.913 0 0 1-.291-.256 1.613 1.613 0 0 1-.234-.589 4.903 4.903 0 0 1-.097-.709 7.387 7.387 0 0 1-.018-.56c-.001-.584.029-1.029.091-1.336.063-.307.16-.526.295-.656a.879.879 0 0 1 .313-.211 1.09 1.09 0 0 1 .414-.076.897.897 0 0 1 .393.091c.12.059.237.136.352.232.123.085.156.097.189.099l.43-.592c.046-.143.033-.175.007-.213-.317-.292-.532-.406-.775-.479a2.437 2.437 0 0 0-.704-.106c-.327-.01-.665.07-1.013.242-.348.172-.643.498-.885.978s-.369 1.176-.379 2.091c-.004.325.02.667.073 1.028.052.36.157.7.313 1.019.156.319.388.579.696.781.308.201.716.305 1.223.311.274-.001.536-.039.784-.113.249-.074.454-.176.616-.308l.098-.21-.315-.579zm-20.368-1.66h1.508l.179-.789-1.687-.18v-1.49h1.768l.35-.807-3.158-.162-.179 5.966 3.086.179.18-.788c-.097-.172-.137-.182-.18-.179h-1.867v-1.75zm-20.964 2.54l1.04.178.179-2.71h1.697v2.531l1.04.178c.174-.091.183-.132.179-.178v-5.787l-1.04-.18-.179 2.468h-1.697v-2.288c-.092-.174-.133-.183-.179-.18h-.861l-.179 5.968zm-16.137-4.891h1.131c.142-.043.169-.082.188-.144l.197-.744c.012-.161-.032-.184-.117-.188h-3.813l-.135.941 1.328.134v4.891l1.04.178.181-5.068zM27.91 39.097c-.184.084-.21.13-.233.189l-1.131 2.44-.182.412-.224.524-.187.455-.018-.687.013-.284.005-.286v-2.584l-1.04-.18-.179 5.966 1.04.178c.163-.065.187-.102.206-.151l1.239-2.665.218-.473c.079-.18.174-.422.285-.73l.011.52-.011.467v2.853l1.04.178c.172-.096.182-.135.179-.178v-5.787l-1.031-.177zM5.901 43.359a.858.858 0 0 1-.435-.092c-.13-.067-.233-.203-.31-.407-.077-.205-.116-.51-.118-.918.002-.407.041-.714.118-.918.077-.205.18-.341.31-.408a.86.86 0 0 1 .435-.092h.198v2.836h-.198v-.001zm1.561-2.836a.869.869 0 0 1 .435.092c.129.067.233.203.309.408.077.204.116.51.118.918-.002.408-.041.714-.118.918-.077.205-.18.341-.309.407a.863.863 0 0 1-.435.092h-.197v-2.836h.197v.001zm-.368 4.719c.195-.098.202-.141.197-.187v-.773h.314c.127.004.289-.011.484-.045s.395-.111.601-.232c.206-.121.389-.309.549-.565.103-.169.179-.378.23-.626a4.52 4.52 0 0 0 .075-.882 4.64 4.64 0 0 0-.051-.744 2.09 2.09 0 0 0-.253-.737c-.16-.262-.342-.453-.547-.575a1.767 1.767 0 0 0-.599-.233 2.546 2.546 0 0 0-.488-.043h-.314v-.673c-.043-.171-.098-.188-.188-.188H6.26c-.171.043-.188.098-.188.188v.673h-.314c-.13-.004-.293.01-.488.043a1.767 1.767 0 0 0-.599.233c-.205.122-.387.313-.547.575a2.09 2.09 0 0 0-.253.737 4.42 4.42 0 0 0-.051.744c0 .34.025.634.075.882.05.248.127.457.23.626.16.256.343.444.549.565.206.121.406.199.601.232.195.034.356.049.484.045h.314v.773c.04.165.099.185.197.187h.824z"/></symbol><symbol viewBox="0 0 35 26" id="mail" xmlns="http://www.w3.org/2000/svg"><path d="M34.5 1.854v3.781l-16.227 8.191a1.713 1.713 0 0 1-1.545.003L.5 5.662V1.854C.5.906 1.269.137 2.217.137h30.566A1.717 1.717 0 0 1 34.5 1.854z"/><path d="M18.256 15.903L34.5 7.86v15.973c0 .948-.769 1.717-1.717 1.717H2.217A1.717 1.717 0 0 1 .5 23.833V8.025l16.241 7.885c.481.23 1.037.23 1.515-.007z"/></symbol><symbol viewBox="0 0 115 100" id="many" xmlns="http://www.w3.org/2000/svg"><path stroke="#F54C28" stroke-width="4" stroke-linecap="round" stroke-miterlimit="10" d="M51 7.5a5.5 5.5 0 1 1 11 0m4 14a5.5 5.5 0 1 1 11 0m-41 0a5.5 5.5 0 1 1 11 0m-26 15a5.5 5.5 0 1 1 11 0m19 0a5.5 5.5 0 1 1 11 0m19 0a5.5 5.5 0 1 1 11 0"/><circle stroke="#F54C28" stroke-width="4" stroke-linecap="round" stroke-miterlimit="10" cx="11.5" cy="52" r="5.5"/><circle stroke="#F54C28" stroke-width="4" stroke-linecap="round" stroke-miterlimit="10" cx="41" cy="52" r="5.5"/><circle stroke="#F54C28" stroke-width="4" stroke-linecap="round" stroke-miterlimit="10" cx="72" cy="52" r="5.5"/><circle stroke="#F54C28" stroke-width="4" stroke-linecap="round" stroke-miterlimit="10" cx="102" cy="52" r="5.5"/><path stroke="#F54C28" stroke-width="4" stroke-linecap="round" stroke-miterlimit="10" d="M20.5 65.5v12c0 3-4 5-4 7v10.83c0 1.2-.97 2.17-2.17 2.17H8.67c-1.2 0-2.17-.97-2.17-2.17V84.5c0-2-4-4-4-7v-12c0-1.1.9-2 2-2h14c1.1 0 2 .9 2 2zm60.5 0v12c0 3-4 5-4 7v10.83c0 1.2-.97 2.17-2.17 2.17h-5.66c-1.2 0-2.17-.97-2.17-2.17V84.5c0-2-4-4-4-7v-12c0-1.1.9-2 2-2h14c1.1 0 2 .9 2 2zm-29.5 15c0 5-5 5-5 7l-1 9.83c0 .09-.08.17-.17.17h-7.66c-.09 0-.17-.08-.17-.17l-1-9.83c0-2-5-2-5-7 0-3.493 4.574-13.847 5.735-16.417a.992.992 0 0 1 .909-.583H45.5s6 13 6 17zm61 0c0 5-5 5-5 7l-1 9.83c0 .09-.08.17-.17.17h-7.66c-.09 0-.17-.08-.17-.17l-1-9.83c0-2-5-2-5-7 0-3.493 4.574-13.847 5.735-16.417a.992.992 0 0 1 .909-.583h7.356s6 13 6 17z"/></symbol><symbol viewBox="0 0 40 40" id="pause" xmlns="http://www.w3.org/2000/svg"><circle stroke="#F54C28" stroke-width="1.67" stroke-linecap="round" stroke-linejoin="round" stroke-miterlimit="10" cx="20" cy="20" r="19"/><path stroke="#F54C28" stroke-width="1.67" stroke-linecap="round" stroke-linejoin="round" stroke-miterlimit="10" d="M16.242 30.44h-2.923a1.67 1.67 0 0 1-1.67-1.67V10.813c0-.922.748-1.67 1.67-1.67h2.923c.922 0 1.67.748 1.67 1.67v17.956a1.67 1.67 0 0 1-1.67 1.671zm10.439 0h-2.923a1.67 1.67 0 0 1-1.67-1.67V10.813c0-.922.748-1.67 1.67-1.67h2.923c.922 0 1.67.748 1.67 1.67v17.956a1.67 1.67 0 0 1-1.67 1.671z"/></symbol><symbol viewBox="0 0 30 30" id="phone" xmlns="http://www.w3.org/2000/svg"><path d="M28.532 24.091c1.036 1.036.929 2.771-.258 3.631-8.745 6.332-21.713-8.469-21.713-8.469C-1.185 10.45.793 4.722 2.85 1.956a2.403 2.403 0 0 1 3.629-.261l4.324 4.324a1.722 1.722 0 0 1 0 2.436l-2.91 2.91c.688 1.376 3.44 5.16 3.44 5.16s4.472 5.16 7.912 5.848l2.568-2.568a1.72 1.72 0 0 1 2.433 0l4.286 4.286z"/></symbol><symbol viewBox="0 0 100 100" id="plan" xmlns="http://www.w3.org/2000/svg"><g stroke="#F54C28" stroke-width="4" stroke-linecap="round" stroke-miterlimit="10"><path d="M2 38.4V3a1 1 0 0 1 1-1h94a1 1 0 0 1 1 1v94a1 1 0 0 1-1 1H3a1 1 0 0 1-1-1V62.24M50 2v14"/><path d="M50 25v20a1 1 0 0 0 1 1h46M60 74V46M3 69h38a1 1 0 0 1 1 1v5m0 23V85m18 13V85"/><path d="M2 38.4V3a1 1 0 0 1 1-1h94a1 1 0 0 1 1 1v94a1 1 0 0 1-1 1H3a1 1 0 0 1-1-1V62.24M50 2v14"/><path d="M50 25v20a1 1 0 0 0 1 1h46M60 74V46M3 69h38a1 1 0 0 1 1 1v5m0 23V85m18 13V85"/></g></symbol><symbol viewBox="0 0 41.999 41.999" id="play" xmlns="http://www.w3.org/2000/svg"><path d="M36.068 20.176l-29-20A1 1 0 1 0 5.5.999v40a1 1 0 0 0 1.568.823l29-20a.999.999 0 0 0 0-1.646zM7.5 39.095V2.904L33.739 21 7.5 39.095z"/></symbol><symbol viewBox="0 0 106 100" id="ring" xmlns="http://www.w3.org/2000/svg"><path stroke="#F54C28" stroke-width="4" stroke-linecap="round" stroke-miterlimit="10" d="M2.5 25v49.685a2 2 0 0 0 1.208 1.836l48.987 21.132a1.999 1.999 0 0 0 1.606-.01l48.513-21.615A2 2 0 0 0 104 74.201V25.5"/><path stroke="#F54C28" stroke-width="4" stroke-linecap="round" stroke-miterlimit="10" d="M3.708 53.521l48.987 21.132a1.999 1.999 0 0 0 1.606-.01l48.513-21.615"/><path stroke="#F54C28" stroke-width="4" stroke-linecap="round" stroke-miterlimit="10" d="M3.708 42.521l48.987 21.132a1.999 1.999 0 0 0 1.606-.01l48.513-21.615"/><path stroke="#F54C28" stroke-width="4" stroke-linecap="round" stroke-miterlimit="10" d="M3.708 31.521l48.987 21.132a1.999 1.999 0 0 0 1.606-.01l48.513-21.615M3.708 28.479L52.695 7.347a1.999 1.999 0 0 1 1.606.01l48.513 21.615"/><path stroke="#F54C28" stroke-width="4" stroke-linecap="round" stroke-miterlimit="10" d="M3.708 39.479l48.987-21.132a1.999 1.999 0 0 1 1.606.01l48.513 21.615"/><path stroke="#F54C28" stroke-width="4" stroke-linecap="round" stroke-miterlimit="10" d="M3.708 50.479l48.987-21.132a1.999 1.999 0 0 1 1.606.01l48.513 21.615M53.5 49v49m0-95v26"/></symbol><symbol viewBox="0 0 100 100" id="sale" xmlns="http://www.w3.org/2000/svg"><path stroke="#F54C28" stroke-width="4" stroke-linecap="round" stroke-miterlimit="10" d="M63.33 4.759l4.561 9.454a2.033 2.033 0 0 0 2.072 1.135L80.385 14.1a2.033 2.033 0 0 1 2.273 2.087l-.355 10.49a2.033 2.033 0 0 0 1.308 1.968l9.808 3.738a2.033 2.033 0 0 1 1.043 2.904l-5.19 9.124a2.032 2.032 0 0 0 .243 2.35l6.947 7.868a2.032 2.032 0 0 1-.426 3.056l-8.835 5.667a2.033 2.033 0 0 0-.877 2.194l2.495 10.195a2.032 2.032 0 0 1-1.798 2.508l-10.457.912a2.032 2.032 0 0 0-1.796 1.535L72.24 90.885a2.032 2.032 0 0 1-2.757 1.385L59.8 88.218a2.034 2.034 0 0 0-2.304.525l-6.973 7.845a2.033 2.033 0 0 1-3.085-.055l-6.69-8.088a2.033 2.033 0 0 0-2.284-.606l-9.82 3.706a2.032 2.032 0 0 1-2.706-1.482L23.77 79.792a2.033 2.033 0 0 0-1.741-1.598l-10.418-1.282a2.032 2.032 0 0 1-1.708-2.57l2.855-10.101a2.034 2.034 0 0 0-.799-2.224L3.333 56.04a2.033 2.033 0 0 1-.318-3.069l7.222-7.617a2.03 2.03 0 0 0 .326-2.34L5.7 33.712a2.032 2.032 0 0 1 1.145-2.865l9.935-3.388a2.033 2.033 0 0 0 1.377-1.92l.017-10.496a2.033 2.033 0 0 1 2.346-2.005l10.371 1.617a2.031 2.031 0 0 0 2.111-1.061l4.893-9.286a2.033 2.033 0 0 1 3.009-.685l8.432 6.252a2.033 2.033 0 0 0 2.362.042l8.648-5.948a2.032 2.032 0 0 1 2.984.79z"/><path stroke="#F54C28" stroke-width="4" stroke-linecap="round" stroke-miterlimit="10" d="M37.5 47h0a5 5 0 0 1-5-5v-8a5 5 0 0 1 5-5h0a5 5 0 0 1 5 5v8a5 5 0 0 1-5 5zm24 24h0a5 5 0 0 1-5-5v-8a5 5 0 0 1 5-5h0a5 5 0 0 1 5 5v8a5 5 0 0 1-5 5zm1-44l-25 44"/></symbol><symbol viewBox="0 0 45 45" id="sauna" xmlns="http://www.w3.org/2000/svg"><path stroke="#F54C28" stroke-width="1.87" stroke-linecap="round" stroke-linejoin="round" stroke-miterlimit="10" d="M40.728 44H4.272L1 19.696h43zM2.87 31.38h39.26M3.337 34.652h37.859M4.739 41.196h35.457m-8.114-21.5V31.38m-7.245-11.684V31.38m-4.674-11.684V31.38M8.478 19.696V31.38m4.207-11.684V31.38m23.369-11.684V31.38m-3.972 3.272v6.544m-7.245-6.544v6.544m-4.674-6.544v6.544M8.478 34.652v6.544m4.207-6.544v6.544m23.369-6.544v6.544"/><circle stroke="#F54C28" stroke-width="1.87" stroke-linecap="round" stroke-linejoin="round" stroke-miterlimit="10" cx="37.69" cy="13.853" r="2.571"/><circle stroke="#F54C28" stroke-width="1.87" stroke-linecap="round" stroke-linejoin="round" stroke-miterlimit="10" cx="9.647" cy="13.853" r="2.571"/><circle stroke="#F54C28" stroke-width="1.87" stroke-linecap="round" stroke-linejoin="round" stroke-miterlimit="10" cx="5.207" cy="4.739" r="3.739"/><circle stroke="#F54C28" stroke-width="1.87" stroke-linecap="round" stroke-linejoin="round" stroke-miterlimit="10" cx="40.027" cy="4.505" r="3.505"/><path stroke="#F54C28" stroke-width="1.87" stroke-linecap="round" stroke-linejoin="round" stroke-miterlimit="10" d="M17.53 2.745c.847.959 1.858 1.797 2.467 2.943.5.942.641 2.056.141 3.03-.428.832-1.215 1.406-1.663 2.226a4.305 4.305 0 0 0-.434 2.97 4.243 4.243 0 0 0 1.863 2.637m3.234-13.806c.847.959 1.858 1.797 2.467 2.943.5.942.641 2.056.141 3.03-.428.832-1.215 1.406-1.663 2.226a4.305 4.305 0 0 0-.434 2.97 4.243 4.243 0 0 0 1.863 2.637"/></symbol><symbol viewBox="0 0 38 49" id="test" xmlns="http://www.w3.org/2000/svg"><path stroke="#F54C28" stroke-width="2" stroke-linecap="round" stroke-linejoin="round" stroke-miterlimit="10" d="M37 6.292v39.5a2 2 0 0 1-2 2H3a2 2 0 0 1-2-2v-39.5a2 2 0 0 1 2-2h10.81l5.19 3 5.375-3H35a2 2 0 0 1 2 2z"/><path stroke="#F54C28" stroke-width="2" stroke-linecap="round" stroke-linejoin="round" stroke-miterlimit="10" d="M24.375 4.292l-5.375 3-5.19-3 5.19-3zM7 13.292h15m-15 7h15m-15 7.5h15m-15 7h15m-15 7.5h15"/><path stroke="#F54C28" stroke-width="1.5" stroke-linecap="round" stroke-linejoin="round" stroke-miterlimit="10" d="M27.5 11.292l3.5 3.5m0-3.5l-3.5 3.5m0 11.5l3.5 3.5m0-3.5l-3.5 3.5m0 11l3.5 3.5m0-3.5l-3.5 3.5m.5-24l1 2.5 2.5-4.5m-3.5 16.5l1 2.5 2.5-4.5"/></symbol><symbol viewBox="0 0 30 30" id="time" xmlns="http://www.w3.org/2000/svg"><circle cx="15" cy="15" r="15"/><path stroke="#FFF" stroke-width="1.277" stroke-linecap="round" stroke-miterlimit="10" d="M15 5.106v9.574c0 .177.143.32.319.32h7.979"/></symbol><symbol viewBox="0 0 45 45" id="towel" xmlns="http://www.w3.org/2000/svg"><path stroke="#F54C28" stroke-width="1.83" stroke-linecap="round" stroke-linejoin="round" stroke-miterlimit="10" d="M2.372 4.66H4.66v5.032H2.372A1.372 1.372 0 0 1 1 8.319V6.032A1.37 1.37 0 0 1 2.372 4.66z"/><path stroke="#F54C28" stroke-width="1.83" stroke-linecap="round" stroke-linejoin="round" stroke-miterlimit="10" d="M35.766 1v.059a1.825 1.825 0 0 0-1.372 1.77v37.053h.032l-.032.915a3.2 3.2 0 0 1-3.202 3.202H7.862a3.2 3.2 0 0 1-3.202-3.202V4.202A3.2 3.2 0 0 1 7.862 1h27.904zM5.117 30.734h29.277M5.117 35.766h29.277"/><path stroke="#F54C28" stroke-width="1.83" stroke-linecap="round" stroke-linejoin="round" stroke-miterlimit="10" d="M44 6.032v2.287a1.37 1.37 0 0 1-1.372 1.372h-8.234V4.66h8.234A1.37 1.37 0 0 1 44 6.032z"/><path stroke="#F54C28" stroke-width="1.83" stroke-linecap="round" stroke-linejoin="round" stroke-miterlimit="10" d="M41.164 4.66h-6.77V2.83c0-.851.581-1.569 1.372-1.77.146-.042.297-.06.457-.06h.457a4.584 4.584 0 0 1 4.484 3.66zm.091 5.031v28.362a1.83 1.83 0 0 1-1.83 1.83h-5.032V9.691h6.862z"/></symbol><symbol viewBox="0 0 121 100" id="trainer" xmlns="http://www.w3.org/2000/svg"><path stroke="#F54C28" stroke-width="4" stroke-linecap="round" stroke-linejoin="round" stroke-miterlimit="10" d="M87.73 19.79C77.13 22.48 69.87 32.37 70 43.3v.16c.02 1.05-1.06 1.74-2.01 1.3A18.908 18.908 0 0 0 60 43c-11.2 0-20.15 9.71-18.88 21.17.03.27.11.81.11.81S37.78 54.46 33 49c-7-8-16-17-15-21 0 0 1-9 4-6l1.45 2.03c1.83 2.57 5.56 2.81 7.72.5L37 18.29c2.1-2.25 1.69-5.85-.86-7.56l-8.16-5.5a10.01 10.01 0 0 0-9.88-1.58C11.88 6.05 3 11.64 3 24c0 8.14.87 16.3 2.12 24.32 1.24 8.02 3.13 15.94 5.83 23.59 1.83 5.18 5.13 9.68 8.74 13.77 1.87 2.1 3.83 4.12 5.79 6.13 1.63 1.66 3.59 4.68 5.91 5.25 2.56.64 5.29.57 7.81-.21 1-.31 1.94-.74 2.9-1.11 1.3-.5 2.62-.88 4.12-.65 1.59.25 3.14.8 4.68 1.26 4.61 1.36 9.28 2.13 14.1 1.65 10-1 28-7 31-30 .05-.37.09-.73.12-1.09a22.57 22.57 0 0 0 5.06-1.01h.01c9.38-2.96 16.3-11.61 16.78-21.72.76-15.85-13.88-28.53-30.24-24.39z"/><path stroke="#F54C28" stroke-width="4" stroke-linecap="round" stroke-linejoin="round" stroke-miterlimit="10" d="M101.18 65.9a22.57 22.57 0 0 1-5.06 1.01c-.03.36-.07.72-.12 1.09-3 23-21 29-31 30-4.82.48-9.49-.29-14.1-1.65-1.54-.46-3.09-1.01-4.68-1.26-1.5-.23-2.82.15-4.12.65.69-1.67 4.91-10.83 14.9-11.74 11-1 16 0 20-2s14.36-18.19 24.18-16.1z"/><circle cx="56" cy="93" r="2"/><circle cx="62.5" cy="85.5" r="2"/><circle cx="70.5" cy="93.5" r="2"/><circle cx="77" cy="85" r="2"/><circle cx="87" cy="78" r="2"/></symbol><symbol viewBox="0 0 68 57" id="treadmil" xmlns="http://www.w3.org/2000/svg"><path stroke="#F54C28" stroke-width="2.053" stroke-linecap="round" stroke-linejoin="round" stroke-miterlimit="10" d="M66.325 52.517v1.43A2.05 2.05 0 0 1 64.272 56H4.053A2.05 2.05 0 0 1 2 53.947v-3.353c0-1.163.958-2.094 2.121-2.053l1.225.041 20.365.65 38.629 1.232a2.054 2.054 0 0 1 1.985 2.053z"/><path stroke="#F54C28" stroke-width="2.053" stroke-linecap="round" stroke-linejoin="round" stroke-miterlimit="10" d="M25.711 49.232l-20.365-.65c.13-1.471.486-2.956 1.293-4.188a4.028 4.028 0 0 1 1.608-1.417 4.599 4.599 0 0 1 1.321-.411 5.976 5.976 0 0 1 2.121.062c.233.048.465.103.691.171.862.246 1.69.623 2.484 1.033.965.5 1.937.917 2.922 1.382a187.015 187.015 0 0 1 6.426 3.223c.5.261 1 .521 1.499.795z"/><path stroke="#F54C28" stroke-width="2.053" stroke-linecap="round" stroke-linejoin="round" stroke-miterlimit="10" d="M15.686 20.279L12.381 42.8a8.01 8.01 0 0 0-.691-.171 6 6 0 0 0-2.121-.062c-.465.075-.91.205-1.321.411l4.017-27.352h.479l2.286 3.962c.163.294.396.527.656.691z"/><path stroke="#F54C28" stroke-width="2.053" stroke-linecap="round" stroke-linejoin="round" stroke-miterlimit="10" d="M18.779 19.793l-.951.547a2.042 2.042 0 0 1-2.142-.062 1.933 1.933 0 0 1-.657-.691l-2.286-3.962L8.87 8.926a2.054 2.054 0 0 1 .746-2.805l.951-.547a2.052 2.052 0 0 1 2.806.753l6.159 10.668c.561.978.226 2.23-.753 2.798z"/><circle stroke="#F54C28" stroke-width="2.053" stroke-linecap="round" stroke-linejoin="round" stroke-miterlimit="10" cx="37.584" cy="5.361" r="4.106"/><path stroke="#F54C28" stroke-width="2.053" stroke-linecap="round" stroke-linejoin="round" stroke-miterlimit="10" d="M40.349 12.309l.101-.025c2.695-.663 6.034-1.079 8.738-.246 1.322.407 2.501 1.221 3.468 2.197 1.245 1.257 3.168 4.224 3.168 4.224l1.435 2.219c.465.719.254 1.68-.469 2.138h0a1.533 1.533 0 0 1-1.975-.278 858.83 858.83 0 0 0-4.145-4.677c-1.148-1.253-3.181-1.479-4.825-1.506.264.902.858 1.798 1.275 2.648.5 1.017.997 2.036 1.494 3.055.97 1.992 1.874 4.032 2.913 5.989l6.343 12.989c.452.926.876 1.874 1.36 2.785a1.98 1.98 0 0 1-1.182 2.756c-.84.268-1.755-.104-2.268-.821l-9.3-13.022-5.474.684 3.173 3.626a2.052 2.052 0 0 1-.489 3.112l-.027.016a2.052 2.052 0 0 1-2.414-.221l-7.774-6.859c-1.2-1.059-.781-3.022.746-3.499l4.854-1.517a2.053 2.053 0 0 0 1.096-3.098l-3.084-4.626a2.053 2.053 0 0 0-2.357-.809l-1.748.583a2.051 2.051 0 0 1-1.668-.165l-7.009-4.005c-.78-.446-1.163-1.412-.8-2.234a1.743 1.743 0 0 1 2.377-.868l5.511 1.847c.461.155.964.136 1.417-.042 2.556-1.008 4.707-1.641 7.539-2.35z"/></symbol><symbol viewBox="0 0 33 20" id="vk" xmlns="http://www.w3.org/2000/svg"><path d="M31.491 19.429l-4.396-.012s-.094.012-.248.012c-.354 0-1.084-.094-1.945-.684-1.544-1.073-3.017-3.736-4.184-3.736a.701.701 0 0 0-.224.035c-1.014.318-1.32 1.332-1.32 2.57 0 .436-.306.636-1.132.636h-2.275c-2.546 0-5.009-.059-7.779-3.088C3.91 10.695.091 2.751.091 2.751s-.212-.46.012-.731c.212-.247.707-.271.895-.271h4.786s.436.083.754.318c.271.2.413.566.413.566s.802 1.556 1.803 3.312c1.686 2.9 2.593 3.866 3.241 3.866a.64.64 0 0 0 .318-.083c.967-.53.684-4.821.684-4.821s.012-1.556-.495-2.239c-.389-.542-1.132-.695-1.462-.743-.259-.035.165-.648.731-.931C12.502.64 13.716.57 15.177.57h.707c1.379.024 1.414.165 1.957.295 1.627.389 1.073 1.909 1.073 5.552 0 1.167-.212 2.805.625 3.359a.482.482 0 0 0 .248.059c.542 0 1.709-.695 3.571-3.842 1.037-1.792 1.839-3.571 1.839-3.571s.177-.318.448-.483c.259-.153.259-.153.601-.153h.035c.377 0 4.125-.035 4.95-.035h.094c.79 0 1.509.012 1.638.495.189.731-.578 2.039-2.593 4.75-3.324 4.444-3.701 4.114-.943 6.683 2.64 2.452 3.182 3.642 3.277 3.795 1.097 1.814-1.213 1.955-1.213 1.955z"/></symbol><symbol viewBox="0 0 24 45" id="water" xmlns="http://www.w3.org/2000/svg"><path stroke="#F54C28" stroke-width="1.833" stroke-linecap="round" stroke-linejoin="round" stroke-miterlimit="10" d="M6.5 1h11v4.125h-11zM2.375 36.292h19.25v5.5c0 1.013-.82 1.833-1.833 1.833H4.208a1.832 1.832 0 0 1-1.833-1.833v-5.5zm19.255-8.25H2.37c-.032-3.768-.275-7.549.133-11.307.215-1.985.619-3.955 1.329-5.821.435-1.15.889-2.31 1.733-3.218.513-.554 1.109-1.026 1.723-1.466.252-.179 1.22-1.105 1.504-1.105h6.417c.284 0 1.251.926 1.503 1.105.614.44 1.21.912 1.723 1.467.843.907 1.297 2.067 1.733 3.218.71 1.865 1.114 3.836 1.329 5.821.408 3.757.165 7.538.133 11.306z"/><path stroke="#F54C28" stroke-width="1.833" stroke-linecap="round" stroke-linejoin="round" stroke-miterlimit="10" d="M16.583 19.333a4.583 4.583 0 0 1-9.166 0c0-2.531 4.583-6.875 4.583-6.875s4.583 4.344 4.583 6.875zM1 28.042h22v4.125H1zm0 4.125h22v4.125H1z"/></symbol></svg>