<?xml version="1.0" encoding="utf-8"?>
<!-- Generator: Adobe Illustrator 23.0.2, SVG Export Plug-In . SVG Version: 6.00 Build 0)  -->
<svg version="1.1" id="Layer_1" xmlns="http://www.w3.org/2000/svg" xmlns:xlink="http://www.w3.org/1999/xlink" x="0px" y="0px"
	 width="67px" height="47px" viewBox="0 0 67 47" enable-background="new 0 0 67 47" xml:space="preserve">
<circle fill="none" stroke="#F54C28" stroke-width="2.0138" stroke-miterlimit="10" cx="10.623" cy="13.151" r="3.356"/>
<path fill="none" stroke="#F54C28" stroke-width="2.0138" stroke-miterlimit="10" d="M13.979,24.967v6.535
	c0,0.015,0.001,0.03,0.003,0.045l1.677,12.448c0.012,0.089-0.011,0.184-0.065,0.255c-1.008,1.331-2.511,0.702-2.646-0.424
	l-1.384-11.583c-0.02-0.169-0.163-0.296-0.333-0.296h-1.217c-0.17,0-0.313,0.127-0.333,0.296L8.238,44.328
	c-0.01,0.088-0.055,0.172-0.124,0.227c-1.305,1.046-2.611,0.062-2.459-1.066l1.609-11.944c0.002-0.015,0.003-0.03,0.003-0.045
	v-6.535c0-0.353-0.474-0.467-0.635-0.152l-2.465,4.834c-0.04,0.078-0.11,0.142-0.193,0.17c-1.583,0.54-2.483-0.824-1.966-1.839
	c0.723-1.42,1.447-2.841,2.17-4.261c0.461-0.905,0.921-1.809,1.382-2.714c0.307-0.603,0.535-1.226,1.18-1.552
	c0.221-0.112,0.462-0.183,0.706-0.222c0.702-0.114,1.443-0.037,2.152-0.037c0.622,0,1.243,0,1.865,0c1.079,0,2.571-0.272,3.44,0.534
	c0.513,0.476,0.767,1.25,1.082,1.868c0.299,0.587,0.598,1.175,0.897,1.762c0.605,1.188,1.21,2.376,1.815,3.564l0.769,1.51
	c0.04,0.079,0.05,0.175,0.024,0.26c-0.496,1.595-2.126,1.52-2.643,0.506l-2.234-4.382C14.454,24.5,13.979,24.614,13.979,24.967z"/>
<circle fill="none" stroke="#F54C28" stroke-width="2.0138" stroke-miterlimit="10" cx="31.342" cy="8.597" r="3.836"/>
<path fill="none" stroke="#F54C28" stroke-width="2.0138" stroke-miterlimit="10" d="M35.179,22.102v7.469
	c0,0.017,0.001,0.034,0.003,0.051l1.917,14.228c0.014,0.101-0.013,0.21-0.074,0.292c-1.153,1.522-2.87,0.803-3.024-0.485
	l-1.582-13.24c-0.023-0.193-0.187-0.338-0.381-0.338h-1.39c-0.194,0-0.358,0.145-0.381,0.338l-1.65,13.814
	c-0.012,0.1-0.063,0.197-0.141,0.26c-1.491,1.196-2.984,0.071-2.811-1.218l1.839-13.652c0.002-0.017,0.003-0.034,0.003-0.051v-7.469
	c0-0.403-0.542-0.533-0.725-0.174l-2.817,5.525c-0.045,0.089-0.126,0.162-0.221,0.194c-1.809,0.617-2.838-0.942-2.247-2.102
	c0.827-1.623,1.654-3.247,2.48-4.87c0.527-1.034,1.053-2.068,1.58-3.102c0.351-0.689,0.612-1.401,1.349-1.774
	c0.252-0.127,0.528-0.209,0.807-0.254c0.802-0.13,1.649-0.042,2.46-0.042c0.711,0,1.421,0,2.132,0c1.233,0,2.938-0.311,3.932,0.611
	c0.586,0.544,0.877,1.429,1.237,2.135c0.342,0.671,0.684,1.343,1.026,2.014c0.691,1.358,1.383,2.715,2.074,4.073l0.879,1.726
	c0.046,0.09,0.057,0.2,0.028,0.297c-0.567,1.823-2.43,1.738-3.021,0.579l-2.554-5.009C35.721,21.568,35.179,21.698,35.179,22.102z"
	/>
<circle fill="none" stroke="#F54C28" stroke-width="2.0138" stroke-miterlimit="10" cx="55" cy="5.561" r="4.156"/>
<path fill="none" stroke="#F54C28" stroke-width="2.0138" stroke-miterlimit="10" d="M59.156,20.192v8.092
	c0,0.019,0.001,0.037,0.004,0.055l2.077,15.415c0.015,0.11-0.014,0.228-0.081,0.316c-1.249,1.649-3.11,0.87-3.276-0.525
	l-1.714-14.344c-0.025-0.209-0.202-0.366-0.413-0.366h-1.506c-0.21,0-0.388,0.157-0.413,0.366l-1.788,14.967
	c-0.013,0.108-0.068,0.213-0.153,0.282c-1.616,1.296-3.233,0.077-3.045-1.32l1.992-14.79c0.002-0.018,0.004-0.037,0.004-0.055
	v-8.092c0-0.437-0.587-0.578-0.786-0.189l-3.052,5.986c-0.049,0.097-0.136,0.176-0.239,0.211c-1.96,0.668-3.074-1.021-2.434-2.278
	c0.896-1.759,1.791-3.518,2.687-5.277c0.57-1.12,1.141-2.24,1.711-3.36c0.38-0.747,0.663-1.518,1.462-1.922
	c0.273-0.138,0.572-0.227,0.874-0.275c0.869-0.141,1.787-0.046,2.665-0.046c0.77,0,1.54,0,2.31,0c1.336,0,3.183-0.337,4.26,0.662
	c0.635,0.589,0.95,1.548,1.34,2.313c0.37,0.727,0.741,1.455,1.111,2.182c0.749,1.471,1.498,2.942,2.247,4.413l0.952,1.87
	c0.05,0.098,0.062,0.217,0.03,0.321c-0.614,1.976-2.633,1.883-3.273,0.627l-2.767-5.427C59.744,19.614,59.156,19.755,59.156,20.192z
	"/>
</svg>
