<?xml version="1.0" encoding="utf-8"?>
<!-- Generator: Adobe Illustrator 23.0.2, SVG Export Plug-In . SVG Version: 6.00 Build 0)  -->
<svg version="1.1" id="Layer_2" xmlns="http://www.w3.org/2000/svg" xmlns:xlink="http://www.w3.org/1999/xlink" x="0px" y="0px"
	 width="21px" height="21px" viewBox="0 0 21 21" enable-background="new 0 0 21 21" xml:space="preserve">
<g>
	<g>
		<path id="App_Store" fill="#F54C28" d="M6,10.972V9.751c0-0.112,0.092-0.203,0.204-0.203h2.158l-0.94,1.628H6.204
			C6.092,11.176,6,11.084,6,10.972z M7.537,13.473l-0.689,0.467c-0.093,0.063-0.158,0.023-0.145-0.088l0.092-0.798
			c0.013-0.111,0.103-0.157,0.2-0.101l0.533,0.304C7.626,13.312,7.63,13.41,7.537,13.473z M7.703,13.023L7.17,12.718
			c-0.097-0.056-0.132-0.18-0.075-0.278l2.468-4.278c0.056-0.097,0.182-0.131,0.28-0.075l0.533,0.304
			c0.098,0.056,0.131,0.181,0.075,0.278l-2.468,4.279C7.926,13.045,7.8,13.078,7.703,13.023z M9.581,11.176l0.94-1.628h0.541
			l0.763,1.628H9.581z M12.641,11.662c-0.213-0.107-1.276-2.548-1.548-3.185C10.82,7.84,9.997,6.145,10.264,6.013
			c0.189-0.095,0.869,1.24,1.379,2.042c0.509,0.802,1.573,2.868,1.704,3.103c0.13,0.236-0.125,0.433-0.268,0.492
			C12.937,11.709,12.855,11.767,12.641,11.662z M13.34,12.784l-0.321-0.505c-0.066-0.105-0.032-0.235,0.076-0.29l0.306-0.157
			c0.108-0.055,0.243-0.01,0.3,0.1l0.253,0.485c0.058,0.11,0.018,0.251-0.086,0.313l-0.219,0.13
			C13.546,12.922,13.406,12.888,13.34,12.784z M14.521,14.108c-0.067-0.214-0.579-0.228-0.809-0.55
			c-0.23-0.321-0.04-0.487,0.04-0.563C14.683,12.473,14.521,14.108,14.521,14.108z M15,10.972c0,0.112-0.092,0.204-0.204,0.204
			h-1.08c-0.012-0.063-0.031-0.126-0.064-0.184c-0.028-0.05-0.099-0.185-0.198-0.374c-0.143-0.272-0.348-0.661-0.568-1.07h1.91
			C14.908,9.547,15,9.639,15,9.751L15,10.972L15,10.972L15,10.972z"/>
	</g>
	<path fill="#F54C28" d="M10.5,18C6.364,18,3,14.636,3,10.5S6.364,3,10.5,3S18,6.364,18,10.5S14.636,18,10.5,18z M10.5,4
		C6.916,4,4,6.916,4,10.5S6.916,17,10.5,17s6.5-2.916,6.5-6.5S14.084,4,10.5,4z"/>
	<path fill="#F54C28" d="M18,1c1.103,0,2,0.897,2,2v15c0,1.103-0.897,2-2,2H3c-1.103,0-2-0.897-2-2V3c0-1.103,0.897-2,2-2H18 M18,0
		H3C1.343,0,0,1.343,0,3v15c0,1.657,1.343,3,3,3h15c1.657,0,3-1.343,3-3V3C21,1.343,19.657,0,18,0L18,0z"/>
</g>
</svg>
