<?xml version="1.0" encoding="utf-8"?>
<!-- Generator: Adobe Illustrator 23.0.2, SVG Export Plug-In . SVG Version: 6.00 Build 0)  -->
<svg version="1.1" id="Layer_1" xmlns="http://www.w3.org/2000/svg" xmlns:xlink="http://www.w3.org/1999/xlink" x="0px" y="0px"
	 width="45px" height="44px" viewBox="0 0 45 44" enable-background="new 0 0 45 44" xml:space="preserve">
<path fill="none" stroke="#F54C28" stroke-width="1.8876" stroke-linecap="round" stroke-linejoin="round" stroke-miterlimit="10" d="
	M42.528,43H1.944C1.423,43,1,42.577,1,42.056v-2.831c0-0.521,0.423-0.944,0.944-0.944h40.584c0.521,0,0.944,0.423,0.944,0.944v2.831
	C43.472,42.577,43.049,43,42.528,43z"/>
<path fill="none" stroke="#F54C28" stroke-width="1.8876" stroke-linecap="round" stroke-linejoin="round" stroke-miterlimit="10" d="
	M43.472,31.202c0,3.601-2.695,6.578-6.177,7.017c-0.382-3.417-3.28-6.073-6.8-6.073c-0.378,0-0.746,0.028-1.104,0.09
	c-0.052-0.335-0.075-0.68-0.075-1.033c0-3.624,2.732-6.616,6.248-7.027c0.576,3.19,3.369,5.611,6.729,5.611
	c0.349,0,0.689-0.024,1.024-0.076C43.415,30.192,43.472,30.693,43.472,31.202z"/>
<path fill="none" stroke="#F54C28" stroke-width="1.8876" stroke-linecap="round" stroke-linejoin="round" stroke-miterlimit="10" d="
	M43.316,29.711c-0.335,0.052-0.675,0.076-1.024,0.076c-3.36,0-6.154-2.421-6.729-5.611c0.269-0.038,0.547-0.052,0.831-0.052
	C39.791,24.124,42.627,26.516,43.316,29.711z"/>
<path fill="none" stroke="#F54C28" stroke-width="1.8876" stroke-linecap="round" stroke-linejoin="round" stroke-miterlimit="10" d="
	M37.295,38.22c-0.293,0.042-0.595,0.061-0.901,0.061c-3.553,0-6.503-2.624-7.003-6.045c0.359-0.061,0.727-0.09,1.104-0.09
	C34.015,32.146,36.912,34.803,37.295,38.22z"/>
<path fill="none" stroke="#F54C28" stroke-width="1.8876" stroke-linecap="round" stroke-linejoin="round" stroke-miterlimit="10" d="
	M13.27,33.562c0,1.118-0.392,2.152-1.043,2.959c-0.868,1.071-2.19,1.76-3.676,1.76c-2.605,0-4.719-2.114-4.719-4.719
	c0-1.619,0.816-3.049,2.062-3.898c0.755-0.519,1.671-0.821,2.657-0.821C11.156,28.843,13.27,30.957,13.27,33.562z"/>
<path fill="none" stroke="#F54C28" stroke-width="1.8876" stroke-linecap="round" stroke-linejoin="round" stroke-miterlimit="10" d="
	M25.539,33.562c0,2.605-2.114,4.719-4.719,4.719c-1.487,0-2.808-0.689-3.676-1.76c-0.651-0.807-1.043-1.84-1.043-2.959
	c0-2.605,2.114-4.719,4.719-4.719c0.986,0,1.902,0.302,2.657,0.821C24.723,30.513,25.539,31.943,25.539,33.562z"/>
<path fill="none" stroke="#F54C28" stroke-width="1.8876" stroke-linecap="round" stroke-linejoin="round" stroke-miterlimit="10" d="
	M23.652,27.899c0,0.378-0.024,0.746-0.071,1.114c-0.024,0.217-0.061,0.434-0.104,0.651c-0.392-0.269-0.826-0.481-1.293-0.618
	c-0.429-0.132-0.887-0.203-1.364-0.203c-0.392,0-0.774,0.047-1.137,0.142c-2.058,0.505-3.582,2.364-3.582,4.578
	c0,1.118,0.392,2.152,1.043,2.959c-0.783,0.227-1.609,0.345-2.459,0.345c-0.849,0-1.675-0.118-2.459-0.345
	c0.651-0.807,1.043-1.84,1.043-2.959c0-2.232-1.553-4.101-3.634-4.592c-0.349-0.085-0.713-0.127-1.085-0.127
	c-0.467,0-0.916,0.066-1.34,0.198c-0.477,0.137-0.92,0.349-1.317,0.623c-0.042-0.208-0.075-0.42-0.099-0.632
	c-0.052-0.373-0.075-0.75-0.075-1.133c0-4.95,4.016-8.966,8.966-8.966S23.652,22.949,23.652,27.899z"/>
<path fill="none" stroke="#F54C28" stroke-width="1.8876" stroke-linecap="round" stroke-linejoin="round" stroke-miterlimit="10" d="
	M22.236,7.72c0.307,0.849,0.472,1.765,0.472,2.718c0,4.431-3.591,8.022-8.022,8.022s-8.022-3.591-8.022-8.022
	c0-0.953,0.165-1.869,0.472-2.718C6.271,7.031,5.719,5.969,5.719,4.775C5.719,2.689,7.409,1,9.494,1c1.312,0,2.463,0.665,3.138,1.68
	c0.656-0.175,1.34-0.264,2.053-0.264s1.397,0.09,2.053,0.264C17.413,1.665,18.564,1,19.876,1c2.086,0,3.775,1.689,3.775,3.775
	C23.652,5.969,23.1,7.031,22.236,7.72z"/>
<circle fill="none" stroke="#F54C28" stroke-width="0.9438" stroke-linecap="round" stroke-linejoin="round" stroke-miterlimit="10" cx="14.685" cy="11.382" r="1.416"/>
<path fill="none" stroke="#F54C28" stroke-width="0.9438" stroke-linecap="round" stroke-linejoin="round" stroke-miterlimit="10" d="
	M17.517,14.685c0,0.782-0.634,1.416-1.416,1.416c-0.782,0-1.416-0.634-1.416-1.416"/>
<path fill="none" stroke="#F54C28" stroke-width="0.9438" stroke-linecap="round" stroke-linejoin="round" stroke-miterlimit="10" d="
	M14.685,14.685c0,0.782-0.634,1.416-1.416,1.416s-1.416-0.634-1.416-1.416"/>
<line fill="none" stroke="#F54C28" stroke-width="0.9438" stroke-linecap="round" stroke-linejoin="round" stroke-miterlimit="10" x1="14.685" y1="12.798" x2="14.685" y2="15.157"/>
<path fill="none" stroke="#F54C28" stroke-width="1.8876" stroke-linecap="round" stroke-linejoin="round" stroke-miterlimit="10" d="
	M27.899,26.011c0,2.19-1.661,2.86-4.318,3.001c0.047-0.368,0.071-0.736,0.071-1.114c0-4.95-4.016-8.966-8.966-8.966
	s-8.966,4.016-8.966,8.966c0,0.382,0.024,0.76,0.075,1.133C2.864,28.947,1,28.333,1,26.011c0-4.172,6.022-7.551,13.449-7.551
	S27.899,21.84,27.899,26.011z"/>
</svg>
