<?xml version="1.0" encoding="utf-8"?>
<!-- Generator: Adobe Illustrator 23.0.2, SVG Export Plug-In . SVG Version: 6.00 Build 0)  -->
<svg version="1.1" id="Layer_1" xmlns="http://www.w3.org/2000/svg" xmlns:xlink="http://www.w3.org/1999/xlink" x="0px" y="0px"
	 width="43px" height="55px" viewBox="0 0 43 55" enable-background="new 0 0 43 55" xml:space="preserve">
<circle fill="none" stroke="#F54C28" stroke-width="1.6296" stroke-linecap="round" stroke-linejoin="round" stroke-miterlimit="10" cx="22.328" cy="9.79" r="4.074"/>
<path fill="none" stroke="#F54C28" stroke-width="1.6296" stroke-linecap="round" stroke-linejoin="round" stroke-miterlimit="10" d="
	M30.514,44.842c-0.315,1.907-0.331,3.873-0.967,5.709c-0.424,1.239-1.238,2.254-2.602,2.423c-4.346,0.543-1.63-7.605-1.63-10.864
	c0-2.412-2.178-4.661-4.395-6.459c-1.771-1.439-3.574-2.597-4.297-3.319c-1.602-1.602-2.156-7.947,6.127-1.912
	c0.125,0.087,0.255,0.185,0.391,0.282c2.928,2.2,5.997,4.959,7.192,8.539C30.932,41.029,30.818,43.012,30.514,44.842z"/>
<path fill="none" stroke="#F54C28" stroke-width="1.6296" stroke-linecap="round" stroke-linejoin="round" stroke-miterlimit="10" d="
	M31.29,24.184c-2.716,1.086-7.605-2.173-7.605-2.173c-2.716,1.63-0.929,8.403-0.929,8.403s0,0-0.005,0.005
	c-8.284-6.035-7.73,0.31-6.127,1.912c0.722,0.722,2.526,1.879,4.297,3.319c0.011,0.158,0.027,0.321,0.049,0.483
	c0.543,3.802-1.63,9.234-3.802,11.407s-5.975,7.062-8.691,4.889s1.63-5.432,4.889-8.691s1.901-6.79,1.358-13.308
	s0.815-7.876,1.901-11.136c-3.797-0.424-7.675-1.733-9.376-5.394c-0.69-1.494-3.449-8.729,0.141-8.729
	c3.802,0,2.716,5.975,4.346,8.148s5.975,1.63,9.234,1.63s6.518,5.975,8.691,5.432c1.901-0.473,0.543-7.062,4.346-6.518
	C37.233,14.325,34.006,23.098,31.29,24.184z"/>
<circle fill="none" stroke="#F54C28" stroke-width="1.0864" stroke-miterlimit="10" cx="2.175" cy="29.616" r="1.086"/>
<circle fill="none" stroke="#F54C28" stroke-width="1.0864" stroke-miterlimit="10" cx="5.325" cy="26.466" r="0.978"/>
<polyline fill="none" stroke="#F54C28" stroke-width="1.0864" stroke-linecap="round" stroke-linejoin="round" stroke-miterlimit="10" points="
	3.261,29.399 0.654,24.184 4.565,22.012 5.869,25.488 "/>
<circle fill="none" stroke="#F54C28" stroke-width="0.8775" stroke-miterlimit="10" cx="36.115" cy="8.003" r="0.877"/>
<circle fill="none" stroke="#F54C28" stroke-width="0.8775" stroke-miterlimit="10" cx="39.707" cy="8.23" r="0.79"/>
<polyline fill="none" stroke="#F54C28" stroke-width="0.8775" stroke-linecap="round" stroke-linejoin="round" stroke-miterlimit="10" points="
	36.827,8.545 38.595,4.181 42,5.39 40.59,8.037 "/>
<circle fill="none" stroke="#F54C28" stroke-width="1.0864" stroke-miterlimit="10" cx="35.636" cy="32.333" r="1.086"/>
<polyline fill="none" stroke="#F54C28" stroke-width="1.0864" stroke-linecap="round" stroke-linejoin="round" stroke-miterlimit="10" points="
	36.645,32.791 37.577,27.036 38.176,28.807 "/>
<circle fill="none" stroke="#F54C28" stroke-width="0.7641" stroke-miterlimit="10" cx="7.035" cy="36.733" r="0.764"/>
<polyline fill="none" stroke="#F54C28" stroke-width="0.7641" stroke-linecap="round" stroke-linejoin="round" stroke-miterlimit="10" points="
	7.787,36.938 7.785,32.837 8.401,33.999 "/>
</svg>
