<?xml version="1.0" encoding="utf-8"?>
<!-- Generator: Adobe Illustrator 23.0.2, SVG Export Plug-In . SVG Version: 6.00 Build 0)  -->
<svg version="1.1" id="Layer_1" xmlns="http://www.w3.org/2000/svg" xmlns:xlink="http://www.w3.org/1999/xlink" x="0px" y="0px"
	 width="19px" height="20px" viewBox="0 0 19 20" enable-background="new 0 0 19 20" xml:space="preserve">
<g id="surface1">
	<path fill="#F54C28" d="M1.946,0.017C1.932,0.019,1.917,0.021,1.903,0.024C1.815,0.038,1.738,0.082,1.664,0.129
		C1.548,0.202,1.446,0.291,1.366,0.403c-0.111,0.16-0.172,0.354-0.176,0.57v18.163c0,0.27,0.119,0.554,0.34,0.72
		c0.017,0.013,0.031,0.032,0.047,0.045c0.017,0.014,0.036,0.027,0.055,0.039c0.039,0.023,0.081,0.039,0.124,0.049
		C1.817,20.003,1.88,20,1.942,19.996c0.059-0.003,0.117-0.003,0.175-0.01c0.116-0.013,0.23-0.044,0.336-0.094
		c0.023-0.011,0.046-0.023,0.068-0.036c0.368-0.214,7.893-4.564,7.893-4.564l3.926-2.269c0.008-0.003,0.019-0.008,0.027-0.014
		l0.054-0.027c0,0,0.053-0.027,0.068-0.041c0.117-0.068,3.333-1.919,3.777-2.174c0.306-0.177,0.548-0.464,0.543-0.815
		c-0.005-0.352-0.253-0.625-0.53-0.774c-0.153-0.082-1.145-0.649-2.065-1.182c-0.92-0.533-1.793-1.046-1.793-1.046l-4.007-2.309
		c0,0-7.286-4.208-7.716-4.456C2.547,0.099,2.376,0.029,2.209,0.009C2.121-0.002,2.038,0.006,1.946,0.017z M2.06,1.177l8.857,8.789
		L2.06,18.756V1.177z M4.125,2.006C6.335,3.283,9.98,5.389,9.98,5.389l3.505,2.024l-1.956,1.943L4.125,2.006z M14.259,7.861
		c0.209,0.122,0.74,0.431,1.521,0.883c0.92,0.533,1.865,1.073,2.092,1.195c0.022,0.012,0.015,0.019,0.027,0.027
		c-0.017,0.012-0.022,0.015-0.068,0.041c-0.418,0.241-3.126,1.814-3.559,2.065L12.14,9.967L14.259,7.861z M11.528,10.564l1.97,1.956
		L9.98,14.545c0,0-3.549,2.048-5.841,3.369L11.528,10.564z"/>
</g>
</svg>
