<?xml version="1.0" encoding="utf-8"?>
<!-- Generator: Adobe Illustrator 23.0.2, SVG Export Plug-In . SVG Version: 6.00 Build 0)  -->
<svg version="1.1" id="Layer_1" xmlns="http://www.w3.org/2000/svg" xmlns:xlink="http://www.w3.org/1999/xlink" x="0px" y="0px"
	 width="40px" height="45px" viewBox="0 0 40 45" enable-background="new 0 0 40 45" xml:space="preserve">
<path fill="none" stroke="#F54C28" stroke-width="1.3898" stroke-linecap="round" stroke-linejoin="round" stroke-miterlimit="10" d="
	M17.008,28.363c-0.301,0.347-0.57,0.723-0.829,1.098c-1.186,1.742-2.293,3.507-3.456,5.263c-6.347-2.511-10.836-8.7-10.836-15.941
	c0-6.037,3.123-11.346,7.843-14.399C9.711,4.934,9.762,5.347,9.762,5.347v6.486l4.633,5.559
	C13.172,24.313,16.244,27.654,17.008,28.363z"/>
<path fill="none" stroke="#F54C28" stroke-width="1.3898" stroke-linecap="round" stroke-linejoin="round" stroke-miterlimit="10" d="
	M31.05,30.999c-3.095,3.044-7.334,4.925-12.022,4.925c-0.927,0-1.835-0.074-2.724-0.218c0.208-0.334,0.426-0.667,0.653-0.991
	c1.144-1.612,2.529-2.956,3.924-4.35c0.171-0.171,0.375-0.385,0.574-0.625c0.12,0.051,0.236,0.107,0.352,0.162
	C23.295,30.646,27.177,31.091,31.05,30.999z"/>
<path fill="none" stroke="#F54C28" stroke-width="1.3898" stroke-linecap="round" stroke-linejoin="round" stroke-miterlimit="10" d="
	M36.169,18.782c0,2.984-0.76,5.786-2.103,8.228c-3.382,0.412-7.955,1.056-11.332-0.352c-5.559-2.316-3.706-9.729-4.17-10.655
	c-0.463-0.927-5.096-5.096-5.096-5.096s0-4.633,0-5.559c0-0.565,0.171-1.821-0.222-2.71c1.807-0.644,3.753-0.996,5.782-0.996
	C28.493,1.64,36.169,9.317,36.169,18.782z"/>
<circle fill="none" stroke="#F54C28" stroke-width="1.3898" stroke-linecap="round" stroke-linejoin="round" stroke-miterlimit="10" cx="19.26" cy="9.285" r="3.011"/>
<path fill="none" stroke="#F54C28" stroke-width="1.3898" stroke-linecap="round" stroke-linejoin="round" stroke-miterlimit="10" d="
	M20.881,30.364c-1.394,1.394-2.78,2.738-3.924,4.35c-0.227,0.324-0.445,0.658-0.653,0.991c-1.038,1.654-1.862,3.414-2.882,5.087
	c-0.663,1.089-2.08,3.331-3.66,2.543c-1.853-0.927-1.853-1.853,2.78-8.339c0.06-0.093,0.12-0.181,0.181-0.273
	c1.163-1.756,2.27-3.521,3.456-5.263c0.537-0.788,1.13-1.557,1.909-2.108c1.033-0.732,3.081-1.2,3.943,0.083
	C22.693,28.418,21.53,29.715,20.881,30.364z"/>
<path fill="none" stroke="#F54C28" stroke-width="1.3898" stroke-linecap="round" stroke-linejoin="round" stroke-miterlimit="10" d="
	M34.066,27.01c-0.806,1.478-1.825,2.817-3.016,3.989c-3.873,0.093-7.755-0.352-9.242-1.098c-0.116-0.056-0.232-0.111-0.352-0.162
	c0.556-0.681,1.066-1.58,0.574-2.302c-0.862-1.283-2.909-0.815-3.943-0.083c-0.403,0.287-0.76,0.635-1.079,1.01
	c-0.764-0.709-3.836-4.049-2.613-10.97l-4.633-5.559V5.347c0,0-0.051-0.412-0.032-0.964C9.762,3.29,10.073,1.64,11.616,1.64
	c0.903,0,1.385,0.422,1.631,0.996c0.394,0.89,0.222,2.145,0.222,2.71c0,0.927,0,5.559,0,5.559s4.633,4.17,5.096,5.096
	c0.463,0.927-1.39,8.339,4.17,10.655C26.112,28.066,30.684,27.422,34.066,27.01z"/>
<path fill="none" stroke="#F54C28" stroke-width="1.3898" stroke-linecap="round" stroke-linejoin="round" stroke-miterlimit="10" d="
	M33.853,30.827c-0.913,0.093-1.858,0.148-2.803,0.171c1.191-1.172,2.21-2.511,3.016-3.989c2.187-0.264,3.873-0.435,4.42,0.111
	C39.876,28.511,38.486,30.364,33.853,30.827z"/>
</svg>
