<?xml version="1.0" encoding="utf-8"?>
<!-- Generator: Adobe Illustrator 23.0.2, SVG Export Plug-In . SVG Version: 6.00 Build 0)  -->
<svg version="1.1" id="Layer_1" xmlns="http://www.w3.org/2000/svg" xmlns:xlink="http://www.w3.org/1999/xlink" x="0px" y="0px"
	 width="52px" height="49px" viewBox="0 0 52 49" enable-background="new 0 0 52 49" xml:space="preserve">
<g>
	
		<path fill="none" stroke="#F54C28" stroke-width="1.6956" stroke-linecap="round" stroke-linejoin="round" stroke-miterlimit="10" d="
		M47.267,36.13c1.144,0,2.348,0.698,3.1,1.527c1.215,1.341,0.456,3.148-0.403,4.452c-0.828,1.257-2.05,3.064-3.727,3.064
		c-0.001,0-11.6,0-11.6,0c-3.788,0-7.324-1.897-9.419-5.053L1.212,3.948C0.893,3.466,0.99,2.82,1.436,2.453l0.853-0.702
		c0.49-0.404,1.217-0.324,1.609,0.176L27.27,31.793c2.143,2.738,5.426,4.338,8.902,4.338C36.172,36.13,47.257,36.13,47.267,36.13z"
		/>
	
		<line fill="none" stroke="#F54C28" stroke-width="1.6956" stroke-linecap="round" stroke-linejoin="round" stroke-miterlimit="10" x1="38.153" y1="36.696" x2="35.892" y2="44.609"/>
	
		<line fill="none" stroke="#F54C28" stroke-width="1.6956" stroke-linecap="round" stroke-linejoin="round" stroke-miterlimit="10" x1="44.371" y1="36.696" x2="42.11" y2="44.609"/>
	
		<line fill="none" stroke="#F54C28" stroke-width="1.6956" stroke-linecap="round" stroke-linejoin="round" stroke-miterlimit="10" x1="5.809" y1="10.875" x2="8.762" y2="8.435"/>
	
		<line fill="none" stroke="#F54C28" stroke-width="1.6956" stroke-linecap="round" stroke-linejoin="round" stroke-miterlimit="10" x1="8.352" y1="13.983" x2="11.306" y2="11.544"/>
</g>
<g>
	
		<path fill="none" stroke="#F54C28" stroke-width="1.6956" stroke-linecap="round" stroke-linejoin="round" stroke-miterlimit="10" d="
		M21.197,44.043v1.13c0,1.56-1.266,2.826-2.826,2.826H7.632c-1.56,0-2.826-1.266-2.826-2.826v-1.13c0-1.56,1.266-2.826,2.826-2.826
		h10.739C19.931,41.217,21.197,42.484,21.197,44.043z"/>
	
		<path fill="none" stroke="#F54C28" stroke-width="1.6956" stroke-linecap="round" stroke-linejoin="round" stroke-miterlimit="10" d="
		M50.791,3.947l-4.595,6.93L26.781,40.121c-1.357,2.052-3.329,3.572-5.584,4.375v-0.452c0-1.56-1.266-2.826-2.826-2.826H7.632
		c-1.56,0-2.826,1.266-2.826,2.826c0,0,0,0.96,0,0.961c0-0.002-0.725-0.385-0.795-0.44c-0.261-0.206-0.457-0.453-0.646-0.723
		c-1.448-2.061-3.711-4.338-1.317-6.632c0.719-0.689,1.69-1.08,2.685-1.08c0,0,11.101,0,11.101,0c3.476,0,6.754-1.6,8.902-4.335
		L48.107,1.924c0.39-0.497,1.119-0.577,1.605-0.175l0.853,0.707C51.012,2.822,51.108,3.467,50.791,3.947z"/>
	
		<line fill="none" stroke="#F54C28" stroke-width="1.6956" stroke-linecap="round" stroke-linejoin="round" stroke-miterlimit="10" x1="13.849" y1="36.696" x2="14.98" y2="41.217"/>
	
		<line fill="none" stroke="#F54C28" stroke-width="1.6956" stroke-linecap="round" stroke-linejoin="round" stroke-miterlimit="10" x1="7.632" y1="36.696" x2="8.762" y2="41.217"/>
	
		<line fill="none" stroke="#F54C28" stroke-width="1.6956" stroke-linecap="round" stroke-linejoin="round" stroke-miterlimit="10" x1="46.194" y1="10.875" x2="43.24" y2="8.435"/>
	
		<line fill="none" stroke="#F54C28" stroke-width="1.6956" stroke-linecap="round" stroke-linejoin="round" stroke-miterlimit="10" x1="43.65" y1="13.983" x2="40.697" y2="11.544"/>
</g>
</svg>
