<?xml version="1.0" encoding="utf-8"?>
<!-- Generator: Adobe Illustrator 23.0.2, SVG Export Plug-In . SVG Version: 6.00 Build 0)  -->
<svg version="1.1" id="Layer_1" xmlns="http://www.w3.org/2000/svg" xmlns:xlink="http://www.w3.org/1999/xlink" x="0px" y="0px"
	 width="115px" height="100px" viewBox="0 0 115 100" enable-background="new 0 0 115 100" xml:space="preserve">
<path fill="none" stroke="#F54C28" stroke-width="4" stroke-linecap="round" stroke-miterlimit="10" d="M51,7.5
	C51,4.462,53.462,2,56.5,2S62,4.462,62,7.5"/>
<path fill="none" stroke="#F54C28" stroke-width="4" stroke-linecap="round" stroke-miterlimit="10" d="M66,21.5
	c0-3.038,2.462-5.5,5.5-5.5s5.5,2.462,5.5,5.5"/>
<path fill="none" stroke="#F54C28" stroke-width="4" stroke-linecap="round" stroke-miterlimit="10" d="M36,21.5
	c0-3.038,2.462-5.5,5.5-5.5s5.5,2.462,5.5,5.5"/>
<path fill="none" stroke="#F54C28" stroke-width="4" stroke-linecap="round" stroke-miterlimit="10" d="M21,36.5
	c0-3.038,2.462-5.5,5.5-5.5s5.5,2.462,5.5,5.5"/>
<path fill="none" stroke="#F54C28" stroke-width="4" stroke-linecap="round" stroke-miterlimit="10" d="M51,36.5
	c0-3.038,2.462-5.5,5.5-5.5s5.5,2.462,5.5,5.5"/>
<path fill="none" stroke="#F54C28" stroke-width="4" stroke-linecap="round" stroke-miterlimit="10" d="M81,36.5
	c0-3.038,2.462-5.5,5.5-5.5s5.5,2.462,5.5,5.5"/>
<circle fill="none" stroke="#F54C28" stroke-width="4" stroke-linecap="round" stroke-miterlimit="10" cx="11.5" cy="52" r="5.5"/>
<circle fill="none" stroke="#F54C28" stroke-width="4" stroke-linecap="round" stroke-miterlimit="10" cx="41" cy="52" r="5.5"/>
<circle fill="none" stroke="#F54C28" stroke-width="4" stroke-linecap="round" stroke-miterlimit="10" cx="72" cy="52" r="5.5"/>
<circle fill="none" stroke="#F54C28" stroke-width="4" stroke-linecap="round" stroke-miterlimit="10" cx="102" cy="52" r="5.5"/>
<path fill="none" stroke="#F54C28" stroke-width="4" stroke-linecap="round" stroke-miterlimit="10" d="M20.5,65.5v12c0,3-4,5-4,7
	v10.83c0,1.2-0.97,2.17-2.17,2.17H8.67c-1.2,0-2.17-0.97-2.17-2.17V84.5c0-2-4-4-4-7v-12c0-1.1,0.9-2,2-2h14
	C19.6,63.5,20.5,64.4,20.5,65.5z"/>
<path fill="none" stroke="#F54C28" stroke-width="4" stroke-linecap="round" stroke-miterlimit="10" d="M81,65.5v12c0,3-4,5-4,7
	v10.83c0,1.2-0.97,2.17-2.17,2.17h-5.66c-1.2,0-2.17-0.97-2.17-2.17V84.5c0-2-4-4-4-7v-12c0-1.1,0.9-2,2-2h14
	C80.1,63.5,81,64.4,81,65.5z"/>
<path fill="none" stroke="#F54C28" stroke-width="4" stroke-linecap="round" stroke-miterlimit="10" d="M51.5,80.5c0,5-5,5-5,7
	l-1,9.83c0,0.09-0.08,0.17-0.17,0.17h-7.66c-0.09,0-0.17-0.08-0.17-0.17l-1-9.83c0-2-5-2-5-7c0-3.493,4.574-13.847,5.735-16.417
	c0.162-0.358,0.516-0.583,0.909-0.583H45.5C45.5,63.5,51.5,76.5,51.5,80.5z"/>
<path fill="none" stroke="#F54C28" stroke-width="4" stroke-linecap="round" stroke-miterlimit="10" d="M112.5,80.5c0,5-5,5-5,7
	l-1,9.83c0,0.09-0.08,0.17-0.17,0.17h-7.66c-0.09,0-0.17-0.08-0.17-0.17l-1-9.83c0-2-5-2-5-7c0-3.493,4.574-13.847,5.735-16.417
	c0.162-0.358,0.516-0.583,0.909-0.583h7.356C106.5,63.5,112.5,76.5,112.5,80.5z"/>
</svg>
