<?xml version="1.0" encoding="utf-8"?>
<!-- Generator: Adobe Illustrator 23.0.2, SVG Export Plug-In . SVG Version: 6.00 Build 0)  -->
<svg version="1.1" id="Layer_1" xmlns="http://www.w3.org/2000/svg" xmlns:xlink="http://www.w3.org/1999/xlink" x="0px" y="0px"
	 width="40px" height="40px" viewBox="0 0 40 40" enable-background="new 0 0 40 40" xml:space="preserve">
<circle fill="none" stroke="#F54C28" stroke-width="1.6703" stroke-linecap="round" stroke-linejoin="round" stroke-miterlimit="10" cx="20" cy="20" r="19"/>
<path fill="none" stroke="#F54C28" stroke-width="1.6703" stroke-linecap="round" stroke-linejoin="round" stroke-miterlimit="10" d="
	M16.242,30.44h-2.923c-0.922,0-1.67-0.748-1.67-1.67V10.813c0-0.922,0.748-1.67,1.67-1.67h2.923c0.922,0,1.67,0.748,1.67,1.67
	v17.956C17.912,29.692,17.164,30.44,16.242,30.44z"/>
<path fill="none" stroke="#F54C28" stroke-width="1.6703" stroke-linecap="round" stroke-linejoin="round" stroke-miterlimit="10" d="
	M26.681,30.44h-2.923c-0.922,0-1.67-0.748-1.67-1.67V10.813c0-0.922,0.748-1.67,1.67-1.67h2.923c0.922,0,1.67,0.748,1.67,1.67
	v17.956C28.352,29.692,27.604,30.44,26.681,30.44z"/>
</svg>
