<?xml version="1.0" encoding="utf-8"?>
<!-- Generator: Adobe Illustrator 23.0.2, SVG Export Plug-In . SVG Version: 6.00 Build 0)  -->
<svg version="1.1" id="Layer_1" xmlns="http://www.w3.org/2000/svg" xmlns:xlink="http://www.w3.org/1999/xlink" x="0px" y="0px"
	 width="30px" height="30px" viewBox="0 0 30 30" enable-background="new 0 0 30 30" xml:space="preserve">
<path fill="#F54C28" d="M28.532,24.091c1.036,1.036,0.929,2.771-0.258,3.631c-8.745,6.332-21.713-8.469-21.713-8.469
	C-1.185,10.45,0.793,4.722,2.85,1.956c0.874-1.18,2.594-1.297,3.629-0.261l4.324,4.324c0.673,0.673,0.673,1.763,0,2.436l-2.91,2.91
	c0.688,1.376,3.44,5.16,3.44,5.16s4.472,5.16,7.912,5.848l2.568-2.568c0.672-0.672,1.761-0.672,2.433,0L28.532,24.091z"/>
</svg>
