<?xml version="1.0" encoding="utf-8"?>
<!-- Generator: Adobe Illustrator 23.0.2, SVG Export Plug-In . SVG Version: 6.00 Build 0)  -->
<svg version="1.1" id="Layer_1" xmlns="http://www.w3.org/2000/svg" xmlns:xlink="http://www.w3.org/1999/xlink" x="0px" y="0px"
	 width="121px" height="100px" viewBox="0 0 121 100" enable-background="new 0 0 121 100" xml:space="preserve">
<path fill="none" stroke="#F54C28" stroke-width="4" stroke-linecap="round" stroke-linejoin="round" stroke-miterlimit="10" d="
	M87.73,19.79C77.13,22.48,69.87,32.37,70,43.3v0.16c0.02,1.05-1.06,1.74-2.01,1.3C65.56,43.63,62.85,43,60,43
	c-11.2,0-20.15,9.71-18.88,21.17c0.03,0.27,0.11,0.81,0.11,0.81S37.78,54.46,33,49c-7-8-16-17-15-21c0,0,1-9,4-6l1.45,2.03
	c1.83,2.57,5.56,2.81,7.72,0.5L37,18.29c2.1-2.25,1.69-5.85-0.86-7.56l-8.16-5.5c-2.78-2.25-6.55-2.86-9.88-1.58
	C11.88,6.05,3,11.64,3,24c0,8.14,0.87,16.3,2.12,24.32c1.24,8.02,3.13,15.94,5.83,23.59c1.83,5.18,5.13,9.68,8.74,13.77
	c1.87,2.1,3.83,4.12,5.79,6.13c1.63,1.66,3.59,4.68,5.91,5.25c2.56,0.64,5.29,0.57,7.81-0.21c1-0.31,1.94-0.74,2.9-1.11
	c1.3-0.5,2.62-0.88,4.12-0.65c1.59,0.25,3.14,0.8,4.68,1.26c4.61,1.36,9.28,2.13,14.1,1.65c10-1,28-7,31-30
	c0.05-0.37,0.09-0.73,0.12-1.09c0.08,0,0.17-0.01,0.25-0.02c1.66-0.16,3.27-0.49,4.81-0.99h0.01c9.38-2.96,16.3-11.61,16.78-21.72
	C118.73,28.33,104.09,15.65,87.73,19.79z"/>
<path fill="none" stroke="#F54C28" stroke-width="4" stroke-linecap="round" stroke-linejoin="round" stroke-miterlimit="10" d="
	M101.18,65.9c-1.54,0.5-3.15,0.83-4.81,0.99c-0.08,0.01-0.17,0.02-0.25,0.02C96.09,67.27,96.05,67.63,96,68c-3,23-21,29-31,30
	c-4.82,0.48-9.49-0.29-14.1-1.65c-1.54-0.46-3.09-1.01-4.68-1.26c-1.5-0.23-2.82,0.15-4.12,0.65C42.79,94.07,47.01,84.91,57,84
	c11-1,16,0,20-2S91.36,63.81,101.18,65.9z"/>
<circle fill="#F54C28" cx="56" cy="93" r="2"/>
<circle fill="#F54C28" cx="62.5" cy="85.5" r="2"/>
<circle fill="#F54C28" cx="70.5" cy="93.5" r="2"/>
<circle fill="#F54C28" cx="77" cy="85" r="2"/>
<circle fill="#F54C28" cx="87" cy="78" r="2"/>
</svg>
