<?xml version="1.0" encoding="utf-8"?>
<!-- Generator: Adobe Illustrator 23.0.2, SVG Export Plug-In . SVG Version: 6.00 Build 0)  -->
<svg version="1.1" id="Layer_1" xmlns="http://www.w3.org/2000/svg" xmlns:xlink="http://www.w3.org/1999/xlink" x="0px" y="0px"
	 width="60px" height="70px" viewBox="0 0 60 70" enable-background="new 0 0 60 70" xml:space="preserve">
<polygon fill="none" stroke="#F54C28" stroke-width="2.1774" stroke-linecap="round" stroke-linejoin="round" stroke-miterlimit="10" points="
	38.675,69 26.336,69 28.513,1.5 36.497,1.5 "/>
<path fill="none" stroke="#F54C28" stroke-width="2.1774" stroke-linecap="round" stroke-linejoin="round" stroke-miterlimit="10" d="
	M25.973,57.024H4.199c-1.203,0-2.177-0.975-2.177-2.177v-2.903c0-1.203,0.975-2.177,2.177-2.177h21.774V57.024z"/>
<line fill="none" stroke="#F54C28" stroke-width="2.1774" stroke-linecap="round" stroke-linejoin="round" stroke-miterlimit="10" x1="7.828" y1="68.637" x2="7.828" y2="57.75"/>
<path fill="none" stroke="#F54C28" stroke-width="2.1774" stroke-linecap="round" stroke-linejoin="round" stroke-miterlimit="10" d="
	M55.005,43.234H44.118c-1.203,0-2.177-0.975-2.177-2.177v-0.726c0-1.203,0.975-2.177,2.177-2.177h10.887
	c1.203,0,2.177,0.975,2.177,2.177v0.726C57.183,42.259,56.208,43.234,55.005,43.234z"/>
<path fill="none" stroke="#F54C28" stroke-width="2.1774" stroke-linecap="round" stroke-linejoin="round" stroke-miterlimit="10" d="
	M55.005,49.04H44.118c-1.203,0-2.177-0.975-2.177-2.177v-0.726c0-1.203,0.975-2.177,2.177-2.177h10.887
	c1.203,0,2.177,0.975,2.177,2.177v0.726C57.183,48.065,56.208,49.04,55.005,49.04z"/>
<path fill="none" stroke="#F54C28" stroke-width="2.1774" stroke-linecap="round" stroke-linejoin="round" stroke-miterlimit="10" d="
	M55.005,54.121H44.118c-1.203,0-2.177-0.975-2.177-2.177v-0.726c0-1.203,0.975-2.177,2.177-2.177h10.887
	c1.203,0,2.177,0.975,2.177,2.177v0.726C57.183,53.146,56.208,54.121,55.005,54.121z"/>
<path fill="none" stroke="#F54C28" stroke-width="2.1774" stroke-linecap="round" stroke-linejoin="round" stroke-miterlimit="10" d="
	M53.554,12.387v25.766H45.57V19.195c-2.693-0.421-4.863-2.402-5.56-4.994H17.263v3.019c0,0.16-0.053,0.316-0.151,0.443l-3.479,4.522
	l-3.479-4.522c-0.098-0.127-0.151-0.282-0.151-0.443V12.75c0-4.009,3.25-7.258,7.258-7.258h29.395
	C50.467,5.492,53.554,8.579,53.554,12.387z"/>
<path fill="none" stroke="#F54C28" stroke-width="2.1774" stroke-linecap="round" stroke-linejoin="round" stroke-miterlimit="10" d="
	M15.086,35.976h-2.903c-1.203,0-2.177-0.975-2.177-2.177v-2.903c0-1.203,0.975-2.177,2.177-2.177h2.903
	c1.203,0,2.177,0.975,2.177,2.177v2.903C17.263,35.001,16.289,35.976,15.086,35.976z"/>
<circle fill="none" stroke="#F54C28" stroke-width="2.1774" stroke-linecap="round" stroke-linejoin="round" stroke-miterlimit="10" cx="46.659" cy="12.387" r="3.266"/>
<line fill="none" stroke="#F54C28" stroke-width="2.1774" stroke-linecap="round" stroke-linejoin="round" stroke-miterlimit="10" x1="46.659" y1="12.024" x2="46.659" y2="2.589"/>
<line fill="none" stroke="#F54C28" stroke-width="2.1774" stroke-miterlimit="10" x1="13.634" y1="22.185" x2="13.634" y2="29.444"/>
</svg>
