<?xml version="1.0" encoding="utf-8"?>
<!-- Generator: Adobe Illustrator 23.0.2, SVG Export Plug-In . SVG Version: 6.00 Build 0)  -->
<svg version="1.1" id="Capa_1" xmlns="http://www.w3.org/2000/svg" xmlns:xlink="http://www.w3.org/1999/xlink" x="0px" y="0px"
	 width="100px" height="100px" viewBox="0 0 100 100" style="enable-background:new 0 0 100 100;" xml:space="preserve">
<style type="text/css">
	.st0{fill:#F54C28;}
</style>
<g>
	<g>
		<path class="st0" d="M50,34.4c-1.7,0-2.8,1.9-2.8,3.9v23.3c0,2.3,1.1,3.9,2.8,3.9s2.8-1.9,2.8-3.9V38.3
			C52.7,35.9,51.6,34.4,50,34.4z"/>
		<circle class="st0" cx="50" cy="77.1" r="3.9"/>
		<path class="st0" d="M98.1,79.4L56.2,11.5c-3.5-5.4-8.9-5.4-12.4,0L1.9,79.4c-4.3,7.4-1.2,13.2,7.4,13.2h81.1
			C99.2,92.6,102.3,86.8,98.1,79.4z M91.5,88.7h-83c-4.3,0-5.8-3.1-3.5-6.6l42.7-69.1c1.2-2.3,3.5-2.3,5.1,0l42.7,69.1
			C97.3,85.6,95.8,88.7,91.5,88.7z"/>
	</g>
</g>
</svg>
