<?xml version="1.0" encoding="utf-8"?>
<!-- Generator: Adobe Illustrator 23.0.2, SVG Export Plug-In . SVG Version: 6.00 Build 0)  -->
<svg version="1.1" id="Layer_1" xmlns="http://www.w3.org/2000/svg" xmlns:xlink="http://www.w3.org/1999/xlink" x="0px" y="0px"
	 width="43px" height="45px" viewBox="0 0 43 45" enable-background="new 0 0 43 45" xml:space="preserve">
<path fill="none" stroke="#F54C28" stroke-width="1.8456" stroke-linecap="round" stroke-linejoin="round" stroke-miterlimit="10" d="
	M39.693,44.146H3.307C2.033,44.146,1,43.113,1,41.839V8.87c0-1.274,1.033-2.307,2.307-2.307h36.386C40.967,6.563,42,7.595,42,8.87
	v32.969C42,43.113,40.967,44.146,39.693,44.146z"/>
<line fill="none" stroke="#F54C28" stroke-width="1.8456" stroke-linecap="round" stroke-linejoin="round" stroke-miterlimit="10" x1="34.313" y1="1.438" x2="34.313" y2="10.833"/>
<line fill="none" stroke="#F54C28" stroke-width="1.8456" stroke-linecap="round" stroke-linejoin="round" stroke-miterlimit="10" x1="8.688" y1="1.438" x2="8.688" y2="10.833"/>
<line fill="none" stroke="#F54C28" stroke-width="1.8456" stroke-linecap="round" stroke-linejoin="round" stroke-miterlimit="10" x1="41.146" y1="16.813" x2="1.854" y2="16.813"/>
<g>
	<path fill="#F54C28" d="M13.582,25.354H9.772c-0.127,0-0.231-0.103-0.231-0.231v-3.809c0-0.127,0.103-0.231,0.231-0.231h3.809
		c0.127,0,0.231,0.103,0.231,0.231v3.809C13.813,25.251,13.709,25.354,13.582,25.354z"/>
	<path fill="#F54C28" d="M23.405,25.354h-3.809c-0.127,0-0.231-0.103-0.231-0.231v-3.809c0-0.127,0.103-0.231,0.231-0.231h3.809
		c0.127,0,0.231,0.103,0.231,0.231v3.809C23.635,25.251,23.532,25.354,23.405,25.354z"/>
	<path fill="#F54C28" d="M33.228,25.354h-3.809c-0.127,0-0.231-0.103-0.231-0.231v-3.809c0-0.127,0.103-0.231,0.231-0.231h3.809
		c0.127,0,0.231,0.103,0.231,0.231v3.809C33.458,25.251,33.355,25.354,33.228,25.354z"/>
	<path fill="#F54C28" d="M13.582,32.188H9.772c-0.127,0-0.231-0.103-0.231-0.231v-3.809c0-0.127,0.103-0.231,0.231-0.231h3.809
		c0.127,0,0.231,0.103,0.231,0.231v3.809C13.813,32.084,13.709,32.188,13.582,32.188z"/>
	<path fill="#F54C28" d="M23.405,32.188h-3.809c-0.127,0-0.231-0.103-0.231-0.231v-3.809c0-0.127,0.103-0.231,0.231-0.231h3.809
		c0.127,0,0.231,0.103,0.231,0.231v3.809C23.635,32.084,23.532,32.188,23.405,32.188z"/>
	<path fill="#F54C28" d="M33.228,32.188h-3.809c-0.127,0-0.231-0.103-0.231-0.231v-3.809c0-0.127,0.103-0.231,0.231-0.231h3.809
		c0.127,0,0.231,0.103,0.231,0.231v3.809C33.458,32.084,33.355,32.188,33.228,32.188z"/>
	<path fill="#F54C28" d="M13.582,39.021H9.772c-0.127,0-0.231-0.103-0.231-0.231v-3.809c0-0.127,0.103-0.231,0.231-0.231h3.809
		c0.127,0,0.231,0.103,0.231,0.231v3.809C13.813,38.918,13.709,39.021,13.582,39.021z"/>
	<path fill="#F54C28" d="M23.405,39.021h-3.809c-0.127,0-0.231-0.103-0.231-0.231v-3.809c0-0.127,0.103-0.231,0.231-0.231h3.809
		c0.127,0,0.231,0.103,0.231,0.231v3.809C23.635,38.918,23.532,39.021,23.405,39.021z"/>
</g>
</svg>
