<?xml version="1.0" encoding="utf-8"?>
<!-- Generator: Adobe Illustrator 23.0.2, SVG Export Plug-In . SVG Version: 6.00 Build 0)  -->
<svg version="1.1" id="Layer_1" xmlns="http://www.w3.org/2000/svg" xmlns:xlink="http://www.w3.org/1999/xlink" x="0px" y="0px"
	 width="45px" height="41px" viewBox="0 0 45 41" enable-background="new 0 0 45 41" xml:space="preserve">
<path fill="none" stroke="#F54C28" stroke-width="1.8901" stroke-linecap="round" stroke-linejoin="round" stroke-miterlimit="10" d="
	M2.174,15.943c-0.153-0.787-0.229-1.587-0.229-2.379c0-6.785,5.5-12.286,12.286-12.286c3.421,0,6.516,1.403,8.742,3.662
	c2.226-2.259,5.321-3.662,8.742-3.662C38.5,1.278,44,6.778,44,13.564c0,1.862-0.421,3.766-1.266,5.443
	c-0.822,1.63-2.103,2.84-3.341,4.144L23.658,39.706c-0.373,0.392-0.997,0.392-1.37,0L10.189,26.978"/>
<polyline fill="none" stroke="#F54C28" stroke-width="1.8901" stroke-linecap="round" stroke-linejoin="round" stroke-miterlimit="10" points="
	1,22.542 10.451,22.542 14.703,11.673 21.319,28.212 26.516,22.542 30.297,22.542 "/>
</svg>
