<?xml version="1.0" encoding="utf-8"?>
<!-- Generator: Adobe Illustrator 23.0.2, SVG Export Plug-In . SVG Version: 6.00 Build 0)  -->
<svg version="1.1" id="Layer_1" xmlns="http://www.w3.org/2000/svg" xmlns:xlink="http://www.w3.org/1999/xlink" x="0px" y="0px"
	 width="52px" height="60px" viewBox="0 0 52 60" enable-background="new 0 0 52 60" xml:space="preserve">
<path fill="none" stroke="#F54C28" stroke-width="1.8254" stroke-linecap="round" stroke-miterlimit="10" d="M36.598,59H21.386
	c-1.008,0-1.825-0.817-1.825-1.825v-3.042c0-1.008,0.817-1.825,1.825-1.825h15.212c1.008,0,1.825,0.817,1.825,1.825v3.042
	C38.423,58.183,37.606,59,36.598,59z"/>
<path fill="none" stroke="#F54C28" stroke-width="1.8254" stroke-linecap="round" stroke-miterlimit="10" d="M31.122,7.28v3.651
	h-4.868V7.28h0.511c0.542,0.383,1.205,0.608,1.923,0.608s1.381-0.225,1.923-0.608H31.122z"/>
<rect x="26.254" y="21.884" fill="none" stroke="#F54C28" stroke-width="1.8254" stroke-linecap="round" stroke-miterlimit="10" width="4.868" height="4.868"/>
<rect x="26.254" y="37.704" fill="none" stroke="#F54C28" stroke-width="1.8254" stroke-linecap="round" stroke-miterlimit="10" width="4.868" height="14.603"/>
<path fill="none" stroke="#F54C28" stroke-width="1.8254" stroke-linecap="round" stroke-miterlimit="10" d="M32.034,4.542
	c0,1.132-0.56,2.136-1.424,2.738c-0.542,0.383-1.205,0.608-1.923,0.608s-1.381-0.225-1.923-0.608
	c-0.864-0.602-1.424-1.606-1.424-2.738c0-1.85,1.497-3.347,3.347-3.347S32.034,2.693,32.034,4.542z"/>
<path fill="none" stroke="#F54C28" stroke-width="1.8254" stroke-linecap="round" stroke-miterlimit="10" d="M36.439,36.724
	c0.316,0.395,0.03,0.98-0.475,0.98H7.452c-0.432,0-0.852-0.152-1.18-0.432L1.215,32.97c-0.28-0.231-0.286-0.657-0.024-0.907
	l5.062-4.807c0.341-0.322,0.791-0.505,1.26-0.505h28.452c0.505,0,0.791,0.584,0.475,0.98l-3.493,4.497L36.439,36.724z"/>
<path fill="none" stroke="#F54C28" stroke-width="1.8254" stroke-linecap="round" stroke-miterlimit="10" d="M50.349,17.15
	l-5.056,4.302c-0.329,0.28-0.748,0.432-1.18,0.432H20.467c-0.505,0-0.791-0.584-0.475-0.98l3.493-4.497l-3.493-4.497
	c-0.316-0.396-0.03-0.98,0.475-0.98h23.584c0.469,0,0.919,0.183,1.26,0.505l5.062,4.807C50.635,16.493,50.629,16.918,50.349,17.15z"
	/>
</svg>
