<?xml version="1.0" encoding="utf-8"?>
<!-- Generator: Adobe Illustrator 23.0.2, SVG Export Plug-In . SVG Version: 6.00 Build 0)  -->
<svg version="1.1" id="Layer_1" xmlns="http://www.w3.org/2000/svg" xmlns:xlink="http://www.w3.org/1999/xlink" x="0px" y="0px"
	 width="55px" height="45px" viewBox="0 0 55 45" enable-background="new 0 0 55 45" xml:space="preserve">
<circle fill="none" stroke="#F54C28" stroke-width="1.727" stroke-linecap="round" stroke-linejoin="round" stroke-miterlimit="10" cx="7.332" cy="3.878" r="2.878"/>
<circle fill="none" stroke="#F54C28" stroke-width="1.727" stroke-linecap="round" stroke-linejoin="round" stroke-miterlimit="10" cx="47.053" cy="3.878" r="2.878"/>
<line fill="none" stroke="#F54C28" stroke-width="1.727" stroke-linecap="round" stroke-linejoin="round" stroke-miterlimit="10" x1="7.332" y1="6.757" x2="7.332" y2="26.329"/>
<line fill="none" stroke="#F54C28" stroke-width="1.727" stroke-linecap="round" stroke-linejoin="round" stroke-miterlimit="10" x1="43.023" y1="26.329" x2="41.095" y2="26.329"/>
<polyline fill="none" stroke="#F54C28" stroke-width="1.727" stroke-linecap="round" stroke-linejoin="round" stroke-miterlimit="10" points="
	3.47,13.785 5.07,5.657 1,26.329 "/>
<line fill="none" stroke="#F54C28" stroke-width="1.727" stroke-linecap="round" stroke-linejoin="round" stroke-miterlimit="10" x1="9.595" y1="5.656" x2="13.665" y2="26.329"/>
<line fill="none" stroke="#F54C28" stroke-width="1.727" stroke-linecap="round" stroke-linejoin="round" stroke-miterlimit="10" x1="47.053" y1="6.757" x2="47.053" y2="26.329"/>
<polyline fill="none" stroke="#F54C28" stroke-width="1.727" stroke-linecap="round" stroke-linejoin="round" stroke-miterlimit="10" points="
	44.79,5.656 40.721,26.329 53.385,26.329 49.315,5.656 "/>
<path fill="none" stroke="#F54C28" stroke-width="1.727" stroke-linecap="round" stroke-linejoin="round" stroke-miterlimit="10" d="
	M27.48,42.58c-1.992,0.662-4.122,1.019-6.332,1.019c-10.149,0-18.749-7.507-20.148-17.27h6.98h5.685
	C14.758,33.962,20.336,40.22,27.48,42.58z"/>
<path fill="none" stroke="#F54C28" stroke-width="1.727" stroke-linecap="round" stroke-linejoin="round" stroke-miterlimit="10" d="
	M53.385,26.329c-1.399,9.763-9.424,17.27-19.572,17.27c-2.211,0-4.34-0.357-6.332-1.019c7.144-2.36,12.146-8.618,13.24-16.251"/>
<path fill="none" stroke="#F54C28" stroke-width="1.1513" stroke-linecap="round" stroke-linejoin="round" stroke-miterlimit="10" d="
	M7.332,26.329c0.288,8.347,5.181,16.119,20.148,16.119"/>
<path fill="none" stroke="#F54C28" stroke-width="1.1513" stroke-linecap="round" stroke-linejoin="round" stroke-miterlimit="10" d="
	M47.053,26.329c-0.288,8.347-4.605,16.119-19.572,16.119"/>
</svg>
