<?xml version="1.0" encoding="utf-8"?>
<!-- Generator: Adobe Illustrator 23.0.2, SVG Export Plug-In . SVG Version: 6.00 Build 0)  -->
<svg version="1.1" id="Layer_1" xmlns="http://www.w3.org/2000/svg" xmlns:xlink="http://www.w3.org/1999/xlink" x="0px" y="0px"
	 width="52px" height="45px" viewBox="0 0 52 45" enable-background="new 0 0 52 45" xml:space="preserve">
<path fill="none" stroke="#F54C28" stroke-width="2.1737" stroke-linecap="round" stroke-linejoin="round" stroke-miterlimit="10" d="
	M2,43.5h40.758c0,0,8.152,0,8.152-6.521"/>
<path fill="none" stroke="#F54C28" stroke-width="2.1737" stroke-linecap="round" stroke-linejoin="round" stroke-miterlimit="10" d="
	M45.913,26.682c0.332,1.126,0.12,2.383-0.231,3.502c-0.298,0.952-0.909,1.631-1.837,2.001c-0.777,0.31-1.837,0.446-3.261,0.446H8.32
	c-0.929,0-1.848,0.114-2.755-0.136c-0.489-0.13-0.962-0.342-1.391-0.62C2.924,31.099,2,29.795,2,28.284
	c0-3.261,1.63-10.325,1.63-13.586C4.174,11.437,4.174,1.656,4.174,1.656h2.717c0,0,1.63,3.261,6.521,4.347s5.434,0.543,5.434,0.543
	s2.717,9.238,9.238,11.956c3.109,1.295,6.402,2.057,9.599,3.093c1.503,0.487,2.977,1.035,4.393,1.737
	c1.231,0.61,2.582,1.201,3.379,2.379C45.665,26.018,45.813,26.344,45.913,26.682z"/>
<path fill="none" stroke="#F54C28" stroke-width="2.1737" stroke-linecap="round" stroke-linejoin="round" stroke-miterlimit="10" d="
	M43.844,32.186v2.619c0,1.5-1.217,2.717-2.717,2.717H6.891c-1.5,0-2.717-1.217-2.717-2.717v-2.929
	c0.429,0.277,0.902,0.489,1.391,0.62c0.908,0.25,1.826,0.136,2.755,0.136h32.264C42.008,32.631,43.067,32.495,43.844,32.186z"/>
<line fill="none" stroke="#F54C28" stroke-width="2.1737" stroke-linecap="round" stroke-linejoin="round" stroke-miterlimit="10" x1="9.699" y1="37.522" x2="9.699" y2="42.957"/>
<line fill="none" stroke="#F54C28" stroke-width="2.1737" stroke-linecap="round" stroke-linejoin="round" stroke-miterlimit="10" x1="24.281" y1="37.522" x2="24.281" y2="42.957"/>
<line fill="none" stroke="#F54C28" stroke-width="2.1737" stroke-linecap="round" stroke-linejoin="round" stroke-miterlimit="10" x1="38.954" y1="37.522" x2="38.954" y2="42.957"/>
<circle fill="#F54C28" cx="16.673" cy="11.981" r="1.63"/>
<circle fill="#F54C28" cx="19.933" cy="17.415" r="1.63"/>
<circle fill="#F54C28" cx="24.824" cy="21.763" r="1.63"/>
<circle fill="#F54C28" cx="30.802" cy="23.936" r="1.63"/>
<line fill="none" stroke="#F54C28" stroke-width="2.1737" stroke-miterlimit="10" x1="16.673" y1="11.981" x2="20.531" y2="10.596"/>
<line fill="none" stroke="#F54C28" stroke-width="2.1737" stroke-miterlimit="10" x1="19.933" y1="17.415" x2="22.651" y2="15.241"/>
<line fill="none" stroke="#F54C28" stroke-width="2.1737" stroke-miterlimit="10" x1="24.824" y1="21.763" x2="26.998" y2="18.502"/>
<line fill="none" stroke="#F54C28" stroke-width="2.1737" stroke-miterlimit="10" x1="30.802" y1="23.936" x2="31.345" y2="19.589"/>
<path fill="none" stroke="#F54C28" stroke-width="2.1737" stroke-linecap="round" stroke-linejoin="round" stroke-miterlimit="10" d="
	M13.975,6.125c2.154-2.839,9.219-5.013,9.219-2.839c0,1.63-1.087,9.782,0.543,11.956"/>
</svg>
