<?xml version="1.0" encoding="utf-8"?>
<!-- Generator: Adobe Illustrator 23.0.2, SVG Export Plug-In . SVG Version: 6.00 Build 0)  -->
<svg version="1.1" id="Layer_1" xmlns="http://www.w3.org/2000/svg" xmlns:xlink="http://www.w3.org/1999/xlink" x="0px" y="0px"
	 width="20px" height="20px" viewBox="0 0 20 20" enable-background="new 0 0 20 20" xml:space="preserve">
<path fill="#F54C28" d="M5.909,0C2.651,0,0,2.651,0,5.909v8.182C0,17.349,2.651,20,5.909,20h8.182C17.349,20,20,17.349,20,14.091
	V5.909C20,2.651,17.349,0,14.091,0H5.909z M5.909,0.909h8.182c2.767,0,5,2.233,5,5v8.182c0,2.767-2.233,5-5,5H5.909
	c-2.767,0-5-2.233-5-5V5.909C0.909,3.143,3.143,0.909,5.909,0.909z M15.455,3.636c-0.502,0-0.909,0.407-0.909,0.909
	s0.407,0.909,0.909,0.909c0.502,0,0.909-0.407,0.909-0.909S15.957,3.636,15.455,3.636z M10,5c-2.756,0-5,2.244-5,5s2.244,5,5,5
	s5-2.244,5-5S12.756,5,10,5z M10,5.909c2.265,0,4.091,1.826,4.091,4.091S12.265,14.091,10,14.091S5.909,12.265,5.909,10
	S7.735,5.909,10,5.909z"/>
</svg>
