<?xml version="1.0" encoding="utf-8"?>
<!-- Generator: Adobe Illustrator 23.0.2, SVG Export Plug-In . SVG Version: 6.00 Build 0)  -->
<svg version="1.1" id="Layer_1" xmlns="http://www.w3.org/2000/svg" xmlns:xlink="http://www.w3.org/1999/xlink" x="0px" y="0px"
	 width="200px" height="46px" viewBox="0 0 200 46" enable-background="new 0 0 200 46" xml:space="preserve">
<path fill-rule="evenodd" clip-rule="evenodd" fill="#FFFFFF" d="M40.452,23.95c0.388,0.544,1.137,0.584,1.909,0.552h1.314
	l1.724-5.091c0.112-0.287,0.121-0.499-0.101-0.676c-0.178-0.133-0.411-0.171-0.677-0.167H44.11
	c-0.803,0.014-1.448,0.122-2.061,0.593c-0.553,0.375-1.231,2.375-1.446,2.957C40.406,22.673,40.157,23.509,40.452,23.95
	L40.452,23.95z M45.226,29.418c-1.315,1.029-2.985,1.36-4.669,1.35h-6.525l0.741-2.068h5.247c0.634,0.018,1.308-0.018,1.924-0.322
	c0.579-0.335,0.825-0.713,1.157-1.258h-4.375c-0.642,0.023-1.248-0.042-1.809-0.19c-0.502-0.133-0.876-0.455-1.119-1.014
	c-0.414-1.084,0.09-2.732,0.504-3.879c0.528-1.493,1.422-3.829,2.835-4.851c1.281-0.979,2.536-1.243,4.169-1.234h5.059
	c0.644-0.013,1.372,0.031,1.782,0.405c0.329,0.368,0.284,0.883,0.091,1.37l-2.908,8.397C46.91,27.341,46.325,28.548,45.226,29.418
	L45.226,29.418z M68.015,23.843l1.608-4.49c0.05-0.134,0.169-0.282,0.294-0.368c0.085-0.053,0.293-0.133,0.407-0.138l1.608,0
	c0.162-0.012,0.401,0.028,0.704,0.128c0.358,0.118,0.511,0.439,0.571,0.791c0.029,0.513-0.175,1.079-0.353,1.564
	c-0.191,0.552-0.423,1.195-0.883,1.687c-0.493,0.551-1.25,0.807-1.974,0.826H68.015L68.015,23.843z M66.987,26.711h3.348
	c0.66,0.025,1.416-0.05,2.269-0.223c0.857-0.175,1.697-0.595,2.519-1.26c1.222-1.095,2.009-2.763,2.504-4.212
	c0.215-0.542,0.381-1.185,0.493-1.932c0.11-0.734-0.024-1.397-0.4-1.98c-0.415-0.499-0.941-0.822-1.569-0.954
	c-0.624-0.132-1.156-0.188-1.598-0.17H68.85c-0.681-0.013-1.279,0.088-1.89,0.388c-0.763,0.401-1.194,0.934-1.429,1.658
	l-4.615,12.711h4.569L66.987,26.711L66.987,26.711z M55.644,18.756c-0.557,0.237-0.884,1.019-1.035,1.563h3.657
	c0.467-0.016,0.808-0.151,0.959-0.564c0.191-0.519,0.038-0.994-0.462-1.102c-0.383-0.061-0.788-0.083-1.184-0.082
	C57.068,18.567,56.096,18.581,55.644,18.756L55.644,18.756z M55.612,24.753c-0.707,0.022-1.787,0.073-2.107-0.663
	c-0.141-0.414,0.152-1.078,0.317-1.518h6.908c0.442,0.011,0.773-0.05,1.153-0.262c0.728-0.431,1.077-1.079,1.312-1.808
	c0.23-0.592,0.506-1.598,0.582-2.252c0.072-0.614-0.074-1.095-0.436-1.479c-0.306-0.28-0.817-0.47-1.591-0.55
	c-0.794-0.082-1.809-0.117-3.035-0.105c-1.166-0.019-2.288,0.029-3.36,0.145c-1.047,0.113-1.917,0.398-2.635,0.854
	c-0.663,0.47-1.157,1.063-1.496,1.794c-0.356,0.767-0.816,2.018-1.138,2.995c-0.336,0.917-1.178,3.07-0.881,3.966
	c0.227,0.6,0.635,0.941,1.234,1.067c0.664,0.14,1.457,0.197,2.372,0.168h7.552l0.842-2.351L55.612,24.753L55.612,24.753z
	 M10.721,25.026c1.835-1.656,3.176-4.354,3.983-6.544c0.622-1.688,1.935-3.592,3.8-3.743c0.288-0.023,0.611,0.025,0.611,0.025
	l-4.454,12.356h3.962l5.322-14.778l-5.065,0.004c-3.602-0.064-6.48,1.811-7.836,5.134c-0.626,1.707-1.742,4.255-3.101,5.481
	c-1.403,1.199-2.959,1.64-4.621,1.582h-2.55L0,27.166h4.523C6.79,27.243,8.864,26.619,10.721,25.026L10.721,25.026z M22.139,26.293
	c0.609,0.665,1.911,0.822,2.91,0.832l8.091-0.004l3.965-11.133h-3.962l-2.727,7.712c-0.1,0.32-0.263,0.577-0.578,0.796
	c-0.315,0.211-0.699,0.277-1.046,0.278l-0.83,0c-0.752,0.03-1.563-0.125-1.925-0.803c-0.278-0.58,0.029-1.524,0.21-2.035
	l2.095-5.947h-3.962l-2.323,6.584C21.595,23.801,21.195,25.336,22.139,26.293L22.139,26.293z M166.16,21.715l0.141-0.396
	c0.468-1.365,0.582-2.656-0.39-3.438c-1.441-0.955-4.471-0.938-6.121-0.914c-2.287-0.033-4.866,0.014-6.998,0.992
	c-1.807,0.932-2.755,2.433-3.231,3.895c-0.487,1.269-0.705,2.702,0.329,3.549c1.45,0.973,4.471,0.95,6.136,0.926
	c2.45,0.036,5.015-0.083,6.998-0.992C164.719,24.462,165.658,23.088,166.16,21.715L166.16,21.715z M167.227,21.569l1.121-3.161
	c0.152-0.49,0.481-0.893,1.256-1.221c0.636-0.25,1.29-0.334,2.063-0.323l7.234,0c1.167-0.037,2.674,0.122,3.627,0.901
	c0.818,0.861,0.576,2.123,0.164,3.134c-0.435,1.306-1.189,2.817-2.469,3.777c-0.895,0.595-1.812,0.957-2.761,1.107
	c-1.015,0.161-1.925,0.229-2.713,0.207l-4.743,0l-1.355,3.781h-4.345l2.729-7.659l0.114-0.329L167.227,21.569L167.227,21.569z
	 M138.472,19.641l-2.308,6.512h-4.345l2.73-7.705c0.102-0.345,0.3-0.643,0.78-0.909c0.896-0.445,2.086-0.543,3.283-0.514l5.413,0
	c1.676-0.026,3.328,0.087,4.492,0.799c0.869,0.616,1.036,1.339,0.619,2.346l-2.12,5.981h-4.345l1.568-4.425
	c0.213-0.566,0.552-1.56-0.107-2.384c-0.622-0.797-1.824-0.876-2.685-0.875l-1.021,0c-0.393-0.007-0.803,0.061-1.164,0.228
	C138.798,18.941,138.586,19.255,138.472,19.641L138.472,19.641z M126.741,24.025c-1.448,0.028-4.353,0.184-5.196-1.418
	c-0.407-0.721,0.029-2.064,0.267-2.762c0.306-0.926,0.977-2.328,1.879-3.118c1.578-1.287,3.64-1.277,5.53-1.236h4.37l0.761-2.149
	l-7.141,0c-2.553-0.056-5.198,0.288-7.438,1.679c-1.929,1.276-2.919,3.496-3.532,5.301c-0.451,1.276-1.063,3.23-0.015,4.387
	c1.289,1.501,4.177,1.481,5.899,1.463h8.619l0.761-2.149H126.741L126.741,24.025z M186.053,26.077h4.345l2.694-7.605l5.793-0.001
	c-0.095-0.232-0.247-0.45-0.469-0.64c-0.896-0.659-2.572-0.884-4.027-0.881h-7.326c-1.228-0.024-2.121,0.08-2.949,0.6
	c-0.147,0.099-0.271,0.203-0.374,0.309c0.078,0.172,0.153,0.429,0.198,0.61l4.812,0.003L186.053,26.077L186.053,26.077z
	 M184.679,27.087l2.696-7.605h-3.365c-0.038,0.593-0.199,1.196-0.428,1.77c-0.468,1.403-1.322,3.141-2.845,4.273
	c-1,0.665-2.051,1.086-3.135,1.257c-1.072,0.169-2.026,0.24-2.86,0.217l-4.078,0l-1.355,3.781h-6.376l1.975-5.53
	c-0.431,0.375-0.928,0.716-1.497,1.008c-2.184,1.002-4.932,1.115-7.377,1.079c-1.949,0.028-4.995,0.042-6.686-1.107
	c-0.445-0.358-0.734-0.776-0.909-1.22l-0.763,2.152h-6.377l2.057-5.805c0.233-0.62,0.302-1.049,0.05-1.365
	c-0.296-0.378-1.014-0.575-1.954-0.573c0.016,0-1.22,0.008-1.221,0c-0.531,0-0.719,0.251-0.863,0.559l-2.545,7.183l-14.693,0.02
	c-2.073,0.022-5.06-0.003-6.593-1.778c-1.364-1.507-0.786-3.735-0.187-5.431c0.638-1.881,1.728-4.364,3.938-5.821
	c2.394-1.487,5.198-1.878,7.928-1.82c0.022,0.01,8.511,0,8.511,0l-1.478,4.168h-5.043c-1.624-0.036-3.555-0.093-4.917,1.011
	c-0.728,0.637-1.313,1.859-1.582,2.672c-0.094,0.277-0.523,1.615-0.34,1.917c0.565,1.074,3.43,0.932,4.369,0.914h5.179l1.731-4.883
	c0.189-0.636,0.583-1.127,1.272-1.502c1.103-0.548,2.478-0.642,3.699-0.613h5.4c1.677-0.026,3.596,0.079,5.015,0.961
	c0.674,0.478,1.078,1.059,1.216,1.719c0.564-0.636,1.272-1.208,2.157-1.661c2.268-1.04,4.944-1.114,7.378-1.079
	c1.942-0.028,5.003-0.037,6.686,1.107c0.444,0.357,0.733,0.773,0.908,1.216l0.071-0.199c0.264-0.848,0.852-1.431,1.821-1.839
	c0.778-0.305,1.555-0.4,2.404-0.387h7.206c1.44-0.046,3.108,0.182,4.275,1.151c0.165-0.1,0.315-0.217,0.471-0.321
	c1.06-0.665,2.172-0.768,3.442-0.743h7.321c1.469-0.003,3.453,0.219,4.613,1.095c0.81,0.693,0.923,1.434,0.999,2.445l-6.25,0.001
	l-2.694,7.605H184.679L184.679,27.087z M155.625,19.272c0.836-0.617,2.188-0.768,3.179-0.783c0.852,0.013,2.333,0.12,2.871,0.948
	c0.501,0.672,0.217,1.7-0.029,2.412c-0.239,0.699-0.628,1.535-1.458,2.125c-0.812,0.641-2.195,0.816-3.181,0.833
	c-0.781-0.02-2.392-0.141-2.874-1.009c-0.471-0.648-0.197-1.672,0.036-2.357C154.457,20.669,154.921,19.717,155.625,19.272
	L155.625,19.272z M154.981,23.297c-0.319-0.392-0.065-1.076,0.081-1.507c0.2-0.534,0.568-1.36,1.076-1.668
	c0.572-0.431,1.674-0.609,2.673-0.624c0.457,0.008,1.821,0.088,2.101,0.539c0.23,0.294-0.051,1.156-0.158,1.466
	c-0.21,0.616-0.521,1.226-1.105,1.641c-0.539,0.437-1.652,0.637-2.647,0.654C156.076,23.772,155.483,23.681,154.981,23.297
	L154.981,23.297z M173.439,19.502l-1.521,3.958l2.068,0c0.946-0.019,1.805-0.289,2.273-0.732c0.431-0.387,0.634-0.898,0.827-1.468
	c0.133-0.363,0.32-0.847,0.259-1.246c-0.202-0.534-0.981-0.647-1.453-0.618l-2.029,0C173.746,19.399,173.544,19.453,173.439,19.502
	L173.439,19.502z M173.004,18.604c-0.253,0.141-0.513,0.388-0.625,0.69l-1.835,5.175h3.455c1.046-0.021,2.167-0.308,2.879-0.975
	c0.634-0.571,0.899-1.297,1.095-1.874c0.223-0.607,0.418-1.222,0.288-1.882c-0.36-1.058-1.423-1.397-2.384-1.352h-2.037
	C173.575,18.394,173.213,18.498,173.004,18.604L173.004,18.604z M88.922,22.789h2.063c0.307-1.34,1.017-4.414,1.232-5.119
	c0.922-3.105,2.108-6.173,4.396-8.284c2.368-2.059,5.14-2.821,8.236-2.719l9.334,0l0.47-2.012h-9.772
	c-3.615-0.115-6.861,0.833-9.623,3.243c-2.72,2.508-4.035,6.05-4.967,9.187C90.042,17.908,89.132,21.873,88.922,22.789
	L88.922,22.789z M82.956,22.789c0.422-1.835,1.297-5.606,1.57-6.495c1.188-4.002,2.849-8.458,6.263-11.607
	c3.473-3.031,7.552-4.216,12.099-4.07h12.649l-0.411,2.011l-12.27,0C98.83,2.495,95.22,3.496,92.142,6.174
	c-2.983,2.752-4.514,6.734-5.692,10.704c-0.246,0.803-0.992,4.005-1.431,5.911H82.956L82.956,22.789z M112.212,15.386
	c-1.187,3.995-2.821,8.357-6.15,11.429c-3.386,2.955-7.367,4.113-11.831,3.97l-13.01,0l1.159-5.268h9.875
	c3.174,0.105,6.047-0.683,8.504-2.819c2.373-2.189,3.587-5.351,4.51-8.463c0.202-0.66,0.834-3.381,1.17-4.84h7.226
	C113.218,11.332,112.461,14.571,112.212,15.386L112.212,15.386z M193.505,42.506h0.413c0.135-0.005,0.283,0.01,0.444,0.043
	c0.162,0.033,0.302,0.112,0.42,0.238c0.118,0.126,0.181,0.325,0.186,0.599c-0.014,0.395-0.138,0.645-0.371,0.751
	c-0.233,0.106-0.489,0.152-0.769,0.139h-0.324V42.506L193.505,42.506z M193.505,40.065h1.831c0.175-0.068,0.195-0.102,0.206-0.143
	l0.179-0.637c-0.043-0.181-0.075-0.189-0.116-0.188h-3.14l-0.18,5.966l1.812,0.179c0.633-0.012,1.099-0.128,1.398-0.347
	c0.299-0.219,0.489-0.47,0.574-0.753c0.084-0.283,0.121-0.526,0.111-0.73c-0.008-0.435-0.08-0.775-0.217-1.019
	c-0.136-0.244-0.291-0.422-0.465-0.533c-0.212-0.14-0.437-0.229-0.679-0.269c-0.241-0.04-0.47-0.059-0.686-0.054h-0.629V40.065
	L193.505,40.065z M175.085,43.511l-0.081,0.297c-0.013,0.062-0.043,0.14-0.088,0.237c-0.045,0.096-0.116,0.183-0.213,0.261
	c-0.097,0.077-0.23,0.118-0.399,0.123c-0.085,0-0.173-0.016-0.266-0.047c-0.093-0.032-0.193-0.078-0.3-0.142l-0.191-0.048
	l-0.32,0.721c0.017,0.155,0.09,0.203,0.216,0.26c0.348,0.151,0.683,0.226,1.004,0.224c0.237-0.002,0.437-0.033,0.598-0.092
	c0.162-0.06,0.291-0.133,0.389-0.221c0.133-0.122,0.241-0.268,0.322-0.437c0.081-0.169,0.141-0.328,0.181-0.478l1.382-4.791
	c0.033-0.2,0.01-0.228-0.031-0.24l-0.947-0.119c-0.169,0.092-0.187,0.141-0.197,0.198l-0.557,2.135l-0.137,0.53l-0.177,0.753
	l-0.235-0.692l-0.179-0.591l-0.691-2.154c-0.098-0.18-0.173-0.185-0.296-0.17l-0.808,0.072c-0.089,0.008-0.155,0.019-0.197,0.034
	l-0.018,0.226l1.535,4.073L175.085,43.511L175.085,43.511z M155.743,40.173h0.908v4.891c0.043,0.155,0.098,0.175,0.188,0.178h0.852
	l0.179-5.965c-0.091-0.174-0.132-0.183-0.179-0.18h-2.88c-0.175,0.092-0.183,0.133-0.18,0.18l-0.009,1.408l-0.016,0.721
	l-0.039,0.819l-0.052,0.703c-0.038,0.438-0.12,0.769-0.248,0.993c-0.128,0.225-0.347,0.354-0.658,0.388
	c-0.206,0.024-0.235,0.043-0.25,0.077l0.223,0.927l0.305,0.063c0.081-0.007,0.197-0.029,0.348-0.066
	c0.151-0.037,0.307-0.102,0.469-0.193c0.368-0.227,0.611-0.524,0.729-0.894c0.118-0.369,0.189-0.795,0.212-1.278l0.033-0.502
	l0.035-0.71l0.021-0.718L155.743,40.173L155.743,40.173z M136.125,45.242l0.18-2.71h0.386c0.268,0.008,0.445,0.075,0.529,0.2
	c0.085,0.125,0.135,0.259,0.153,0.402l0.215,1.077c0.022,0.148,0.057,0.301,0.105,0.461c0.048,0.16,0.138,0.302,0.272,0.427
	c0.17,0.13,0.352,0.212,0.547,0.248c0.195,0.036,0.324,0.051,0.386,0.047c0.17-0.066,0.187-0.097,0.197-0.134l0.234-0.681
	l-0.323-0.233c-0.129-0.026-0.218-0.082-0.268-0.166c-0.05-0.085-0.092-0.23-0.127-0.435l-0.143-0.754
	c-0.009-0.062-0.036-0.154-0.08-0.276c-0.044-0.123-0.123-0.248-0.236-0.374c-0.113-0.127-0.277-0.227-0.492-0.3
	c0.238-0.115,0.407-0.237,0.508-0.391c0.102-0.155,0.166-0.323,0.192-0.506l0.108-0.637c0.035-0.216,0.084-0.362,0.147-0.435
	c0.063-0.073,0.146-0.12,0.248-0.139l0.225-0.054c0.101-0.102,0.103-0.143,0.09-0.188l-0.189-0.637
	c-0.264-0.109-0.381-0.091-0.522-0.056c-0.14,0.035-0.277,0.093-0.411,0.173c-0.195,0.123-0.329,0.267-0.402,0.433
	c-0.072,0.166-0.121,0.342-0.146,0.527l-0.134,0.762c-0.048,0.267-0.134,0.448-0.257,0.542c-0.123,0.093-0.292,0.137-0.506,0.131
	h-0.305v-2.288c-0.092-0.174-0.133-0.183-0.18-0.18h-0.86l-0.18,5.966L136.125,45.242L136.125,45.242z M103.694,44.184
	c-0.148-0.088-0.182-0.077-0.219-0.055c-0.243,0.146-0.365,0.201-0.487,0.239c-0.122,0.039-0.246,0.058-0.371,0.059
	c-0.205-0.005-0.371-0.045-0.499-0.122c-0.128-0.076-0.225-0.161-0.291-0.256c-0.106-0.154-0.184-0.35-0.234-0.589
	c-0.05-0.239-0.083-0.476-0.097-0.709c-0.014-0.234-0.021-0.421-0.018-0.56c-0.001-0.584,0.029-1.029,0.091-1.336
	c0.063-0.307,0.16-0.526,0.295-0.656c0.086-0.091,0.19-0.161,0.313-0.211c0.123-0.05,0.261-0.076,0.414-0.076
	c0.142,0.001,0.272,0.032,0.393,0.091c0.12,0.059,0.237,0.136,0.352,0.232c0.123,0.085,0.156,0.097,0.189,0.099l0.43-0.592
	c0.046-0.143,0.033-0.175,0.007-0.213c-0.317-0.292-0.532-0.406-0.775-0.479c-0.243-0.072-0.478-0.107-0.704-0.106
	c-0.327-0.01-0.665,0.07-1.013,0.242c-0.348,0.172-0.643,0.498-0.885,0.978c-0.242,0.48-0.369,1.176-0.379,2.091
	c-0.004,0.325,0.02,0.667,0.073,1.028c0.052,0.36,0.157,0.7,0.313,1.019c0.156,0.319,0.388,0.579,0.696,0.781
	c0.308,0.201,0.716,0.305,1.223,0.311c0.274-0.001,0.536-0.039,0.784-0.113c0.249-0.074,0.454-0.176,0.616-0.308l0.098-0.21
	L103.694,44.184L103.694,44.184z M83.326,42.524h1.508l0.179-0.789l-1.687-0.18v-1.49h1.768l0.35-0.807l-3.158-0.162l-0.179,5.966
	l3.086,0.179l0.18-0.788c-0.097-0.172-0.137-0.182-0.18-0.179h-1.867V42.524L83.326,42.524z M62.362,45.064l1.04,0.178l0.179-2.71
	h1.697v2.531l1.04,0.178c0.174-0.091,0.183-0.132,0.179-0.178v-5.787l-1.04-0.18l-0.179,2.468h-1.697v-2.288
	c-0.092-0.174-0.133-0.183-0.179-0.18h-0.861L62.362,45.064L62.362,45.064z M46.225,40.173h1.131
	c0.142-0.043,0.169-0.082,0.188-0.144l0.197-0.744c0.012-0.161-0.032-0.184-0.117-0.188h-3.813l-0.135,0.941l1.328,0.134v4.891
	l1.04,0.178L46.225,40.173L46.225,40.173z M27.91,39.097c-0.184,0.084-0.21,0.13-0.233,0.189l-1.131,2.44l-0.182,0.412l-0.224,0.524
	l-0.187,0.455l-0.018-0.687l0.013-0.284l0.005-0.286v-2.584l-1.04-0.18l-0.179,5.966l1.04,0.178
	c0.163-0.065,0.187-0.102,0.206-0.151l1.239-2.665l0.218-0.473c0.079-0.18,0.174-0.422,0.285-0.73l0.011,0.52l-0.011,0.467v2.853
	l1.04,0.178c0.172-0.096,0.182-0.135,0.179-0.178v-5.787L27.91,39.097L27.91,39.097z M5.901,43.359
	c-0.161,0.006-0.306-0.025-0.435-0.092c-0.13-0.067-0.233-0.203-0.31-0.407c-0.077-0.205-0.116-0.51-0.118-0.918
	c0.002-0.407,0.041-0.714,0.118-0.918c0.077-0.205,0.18-0.341,0.31-0.408c0.13-0.067,0.274-0.098,0.435-0.092h0.198v2.836H5.901
	L5.901,43.359z M7.462,40.523c0.161-0.005,0.306,0.025,0.435,0.092c0.129,0.067,0.233,0.203,0.309,0.408
	c0.077,0.204,0.116,0.51,0.118,0.918c-0.002,0.408-0.041,0.714-0.118,0.918c-0.077,0.205-0.18,0.341-0.309,0.407
	c-0.13,0.067-0.275,0.098-0.435,0.092H7.265v-2.836H7.462L7.462,40.523z M7.094,45.242c0.195-0.098,0.202-0.141,0.197-0.187v-0.773
	h0.314c0.127,0.004,0.289-0.011,0.484-0.045c0.195-0.034,0.395-0.111,0.601-0.232c0.206-0.121,0.389-0.309,0.549-0.565
	c0.103-0.169,0.179-0.378,0.23-0.626c0.05-0.248,0.075-0.542,0.075-0.882c0.004-0.234-0.013-0.482-0.051-0.744
	c-0.038-0.262-0.123-0.508-0.253-0.737c-0.16-0.262-0.342-0.453-0.547-0.575c-0.205-0.122-0.404-0.199-0.599-0.233
	C7.899,39.61,7.736,39.596,7.606,39.6H7.292v-0.673c-0.043-0.171-0.098-0.188-0.188-0.188H6.26
	c-0.171,0.043-0.188,0.098-0.188,0.188V39.6H5.758c-0.13-0.004-0.293,0.01-0.488,0.043c-0.195,0.034-0.394,0.111-0.599,0.233
	c-0.205,0.122-0.387,0.313-0.547,0.575c-0.13,0.229-0.215,0.475-0.253,0.737c-0.039,0.262-0.056,0.51-0.051,0.744
	c0,0.34,0.025,0.634,0.075,0.882c0.05,0.248,0.127,0.457,0.23,0.626c0.16,0.256,0.343,0.444,0.549,0.565
	c0.206,0.121,0.406,0.199,0.601,0.232c0.195,0.034,0.356,0.049,0.484,0.045h0.314v0.773c0.04,0.165,0.099,0.185,0.197,0.187H7.094z"
	/>
</svg>
