<?xml version="1.0" encoding="utf-8"?>
<!-- Generator: Adobe Illustrator 23.0.2, SVG Export Plug-In . SVG Version: 6.00 Build 0)  -->
<svg version="1.1" id="Layer_1" xmlns="http://www.w3.org/2000/svg" xmlns:xlink="http://www.w3.org/1999/xlink" x="0px" y="0px"
	 width="100px" height="100px" viewBox="0 0 100 100" enable-background="new 0 0 100 100" xml:space="preserve">
<g>
	<g>
		<path fill="none" stroke="#F54C28" stroke-width="4" stroke-linecap="round" stroke-miterlimit="10" d="M2,38.4V3
			c0-0.552,0.448-1,1-1h94c0.552,0,1,0.448,1,1v94c0,0.552-0.448,1-1,1H3c-0.552,0-1-0.448-1-1V62.24"/>
		
			<line fill="none" stroke="#F54C28" stroke-width="4" stroke-linecap="round" stroke-miterlimit="10" x1="50" y1="2" x2="50" y2="16"/>
		<path fill="none" stroke="#F54C28" stroke-width="4" stroke-linecap="round" stroke-miterlimit="10" d="M50,25v20
			c0,0.552,0.448,1,1,1h8.5H97"/>
		
			<line fill="none" stroke="#F54C28" stroke-width="4" stroke-linecap="round" stroke-miterlimit="10" x1="60" y1="74" x2="60" y2="46"/>
		<path fill="none" stroke="#F54C28" stroke-width="4" stroke-linecap="round" stroke-miterlimit="10" d="M3,69h38
			c0.552,0,1,0.448,1,1v5"/>
		
			<line fill="none" stroke="#F54C28" stroke-width="4" stroke-linecap="round" stroke-miterlimit="10" x1="42" y1="98" x2="42" y2="85"/>
		
			<line fill="none" stroke="#F54C28" stroke-width="4" stroke-linecap="round" stroke-miterlimit="10" x1="60" y1="98" x2="60" y2="85"/>
	</g>
	<g>
		<path fill="none" stroke="#F54C28" stroke-width="4" stroke-linecap="round" stroke-miterlimit="10" d="M2,38.4V3
			c0-0.552,0.448-1,1-1h94c0.552,0,1,0.448,1,1v94c0,0.552-0.448,1-1,1H3c-0.552,0-1-0.448-1-1V62.24"/>
		
			<line fill="none" stroke="#F54C28" stroke-width="4" stroke-linecap="round" stroke-miterlimit="10" x1="50" y1="2" x2="50" y2="16"/>
		<path fill="none" stroke="#F54C28" stroke-width="4" stroke-linecap="round" stroke-miterlimit="10" d="M50,25v20
			c0,0.552,0.448,1,1,1h8.5H97"/>
		
			<line fill="none" stroke="#F54C28" stroke-width="4" stroke-linecap="round" stroke-miterlimit="10" x1="60" y1="74" x2="60" y2="46"/>
		<path fill="none" stroke="#F54C28" stroke-width="4" stroke-linecap="round" stroke-miterlimit="10" d="M3,69h38
			c0.552,0,1,0.448,1,1v5"/>
		
			<line fill="none" stroke="#F54C28" stroke-width="4" stroke-linecap="round" stroke-miterlimit="10" x1="42" y1="98" x2="42" y2="85"/>
		
			<line fill="none" stroke="#F54C28" stroke-width="4" stroke-linecap="round" stroke-miterlimit="10" x1="60" y1="98" x2="60" y2="85"/>
	</g>
</g>
</svg>
