<?xml version="1.0" encoding="utf-8"?>
<!-- Generator: Adobe Illustrator 23.0.2, SVG Export Plug-In . SVG Version: 6.00 Build 0)  -->
<svg version="1.1" id="Layer_1" xmlns="http://www.w3.org/2000/svg" xmlns:xlink="http://www.w3.org/1999/xlink" x="0px" y="0px"
	 width="106px" height="100px" viewBox="0 0 106 100" enable-background="new 0 0 106 100" xml:space="preserve">
<path fill="none" stroke="#F54C28" stroke-width="4" stroke-linecap="round" stroke-miterlimit="10" d="M2.5,25v49.685
	c0,0.798,0.475,1.52,1.208,1.836l48.987,21.132c0.513,0.221,1.096,0.218,1.606-0.01l48.513-21.615
	c0.721-0.321,1.186-1.037,1.186-1.827V25.5"/>
<path fill="none" stroke="#F54C28" stroke-width="4" stroke-linecap="round" stroke-miterlimit="10" d="M3.708,53.521l48.987,21.132
	c0.513,0.221,1.096,0.218,1.606-0.01l48.513-21.615"/>
<path fill="none" stroke="#F54C28" stroke-width="4" stroke-linecap="round" stroke-miterlimit="10" d="M3.708,42.521l48.987,21.132
	c0.513,0.221,1.096,0.218,1.606-0.01l48.513-21.615"/>
<path fill="none" stroke="#F54C28" stroke-width="4" stroke-linecap="round" stroke-miterlimit="10" d="M3.708,31.521l48.987,21.132
	c0.513,0.221,1.096,0.218,1.606-0.01l48.513-21.615"/>
<path fill="none" stroke="#F54C28" stroke-width="4" stroke-linecap="round" stroke-miterlimit="10" d="M3.708,28.479L52.695,7.347
	c0.513-0.221,1.096-0.218,1.606,0.01l48.513,21.615"/>
<path fill="none" stroke="#F54C28" stroke-width="4" stroke-linecap="round" stroke-miterlimit="10" d="M3.708,39.479l48.987-21.132
	c0.513-0.221,1.096-0.218,1.606,0.01l48.513,21.615"/>
<path fill="none" stroke="#F54C28" stroke-width="4" stroke-linecap="round" stroke-miterlimit="10" d="M3.708,50.479l48.987-21.132
	c0.513-0.221,1.096-0.218,1.606,0.01l48.513,21.615"/>
<line fill="none" stroke="#F54C28" stroke-width="4" stroke-linecap="round" stroke-miterlimit="10" x1="53.5" y1="49" x2="53.5" y2="98"/>
<line fill="none" stroke="#F54C28" stroke-width="4" stroke-linecap="round" stroke-miterlimit="10" x1="53.5" y1="3" x2="53.5" y2="29"/>
</svg>
