<?xml version="1.0" encoding="utf-8"?>
<!-- Generator: Adobe Illustrator 23.0.2, SVG Export Plug-In . SVG Version: 6.00 Build 0)  -->
<svg version="1.1" id="Layer_1" xmlns="http://www.w3.org/2000/svg" xmlns:xlink="http://www.w3.org/1999/xlink" x="0px" y="0px"
	 width="100px" height="100px" viewBox="0 0 100 100" enable-background="new 0 0 100 100" xml:space="preserve">
<path fill="none" stroke="#F54C28" stroke-width="4" stroke-linecap="round" stroke-miterlimit="10" d="M63.33,4.759l4.561,9.454
	c0.377,0.782,1.21,1.238,2.072,1.135L80.385,14.1c1.237-0.148,2.315,0.842,2.273,2.087l-0.355,10.49
	c-0.029,0.868,0.496,1.659,1.308,1.968l9.808,3.738c1.164,0.444,1.659,1.821,1.043,2.904l-5.19,9.124
	c-0.429,0.755-0.332,1.699,0.243,2.35l6.947,7.868c0.825,0.934,0.623,2.383-0.426,3.056l-8.835,5.667
	c-0.731,0.469-1.083,1.35-0.877,2.194l2.495,10.195c0.296,1.21-0.556,2.4-1.798,2.508l-10.457,0.912
	c-0.865,0.075-1.587,0.692-1.796,1.535L72.24,90.885c-0.3,1.209-1.608,1.866-2.757,1.385l-9.683-4.052
	c-0.801-0.335-1.727-0.124-2.304,0.525l-6.973,7.845c-0.828,0.931-2.291,0.905-3.085-0.055l-6.69-8.088
	c-0.554-0.669-1.471-0.913-2.284-0.606l-9.82,3.706c-1.166,0.44-2.449-0.263-2.706-1.482L23.77,79.792
	c-0.179-0.85-0.879-1.492-1.741-1.598l-10.418-1.282c-1.237-0.152-2.047-1.371-1.708-2.57l2.855-10.101
	c0.236-0.836-0.085-1.729-0.799-2.224L3.333,56.04c-1.024-0.71-1.175-2.165-0.318-3.069l7.222-7.617
	c0.598-0.63,0.729-1.57,0.326-2.34l-4.863-9.302c-0.577-1.104-0.034-2.463,1.145-2.865l9.935-3.388
	c0.822-0.28,1.375-1.052,1.377-1.92l0.017-10.496c0.002-1.246,1.115-2.197,2.346-2.005l10.371,1.617
	c0.858,0.134,1.706-0.292,2.111-1.061l4.893-9.286c0.581-1.102,2.008-1.427,3.009-0.685l8.432,6.252
	c0.698,0.517,1.647,0.534,2.362,0.042l8.648-5.948C61.374,3.261,62.789,3.637,63.33,4.759z"/>
<path fill="none" stroke="#F54C28" stroke-width="4" stroke-linecap="round" stroke-miterlimit="10" d="M37.5,47L37.5,47
	c-2.761,0-5-2.239-5-5v-8c0-2.761,2.239-5,5-5h0c2.761,0,5,2.239,5,5v8C42.5,44.761,40.261,47,37.5,47z"/>
<path fill="none" stroke="#F54C28" stroke-width="4" stroke-linecap="round" stroke-miterlimit="10" d="M61.5,71L61.5,71
	c-2.761,0-5-2.239-5-5v-8c0-2.761,2.239-5,5-5h0c2.761,0,5,2.239,5,5v8C66.5,68.761,64.261,71,61.5,71z"/>
<line fill="none" stroke="#F54C28" stroke-width="4" stroke-linecap="round" stroke-miterlimit="10" x1="62.5" y1="27" x2="37.5" y2="71"/>
</svg>
