<?xml version="1.0" encoding="utf-8"?>
<!-- Generator: Adobe Illustrator 23.0.2, SVG Export Plug-In . SVG Version: 6.00 Build 0)  -->
<svg version="1.1" id="Layer_1" xmlns="http://www.w3.org/2000/svg" xmlns:xlink="http://www.w3.org/1999/xlink" x="0px" y="0px"
	 width="45px" height="45px" viewBox="0 0 45 45" enable-background="new 0 0 45 45" xml:space="preserve">
<polygon fill="none" stroke="#F54C28" stroke-width="1.8696" stroke-linecap="round" stroke-linejoin="round" stroke-miterlimit="10" points="
	40.728,44 4.272,44 1,19.696 44,19.696 "/>
<line fill="none" stroke="#F54C28" stroke-width="1.8696" stroke-linecap="round" stroke-linejoin="round" stroke-miterlimit="10" x1="2.87" y1="31.38" x2="42.13" y2="31.38"/>
<line fill="none" stroke="#F54C28" stroke-width="1.8696" stroke-linecap="round" stroke-linejoin="round" stroke-miterlimit="10" x1="3.337" y1="34.652" x2="41.196" y2="34.652"/>
<line fill="none" stroke="#F54C28" stroke-width="1.8696" stroke-linecap="round" stroke-linejoin="round" stroke-miterlimit="10" x1="4.739" y1="41.196" x2="40.196" y2="41.196"/>
<line fill="none" stroke="#F54C28" stroke-width="1.8696" stroke-linecap="round" stroke-linejoin="round" stroke-miterlimit="10" x1="32.082" y1="19.696" x2="32.082" y2="31.38"/>
<line fill="none" stroke="#F54C28" stroke-width="1.8696" stroke-linecap="round" stroke-linejoin="round" stroke-miterlimit="10" x1="24.837" y1="19.696" x2="24.837" y2="31.38"/>
<line fill="none" stroke="#F54C28" stroke-width="1.8696" stroke-linecap="round" stroke-linejoin="round" stroke-miterlimit="10" x1="20.163" y1="19.696" x2="20.163" y2="31.38"/>
<line fill="none" stroke="#F54C28" stroke-width="1.8696" stroke-linecap="round" stroke-linejoin="round" stroke-miterlimit="10" x1="8.478" y1="19.696" x2="8.478" y2="31.38"/>
<line fill="none" stroke="#F54C28" stroke-width="1.8696" stroke-linecap="round" stroke-linejoin="round" stroke-miterlimit="10" x1="12.685" y1="19.696" x2="12.685" y2="31.38"/>
<line fill="none" stroke="#F54C28" stroke-width="1.8696" stroke-linecap="round" stroke-linejoin="round" stroke-miterlimit="10" x1="36.054" y1="19.696" x2="36.054" y2="31.38"/>
<line fill="none" stroke="#F54C28" stroke-width="1.8696" stroke-linecap="round" stroke-linejoin="round" stroke-miterlimit="10" x1="32.082" y1="34.652" x2="32.082" y2="41.196"/>
<line fill="none" stroke="#F54C28" stroke-width="1.8696" stroke-linecap="round" stroke-linejoin="round" stroke-miterlimit="10" x1="24.837" y1="34.652" x2="24.837" y2="41.196"/>
<line fill="none" stroke="#F54C28" stroke-width="1.8696" stroke-linecap="round" stroke-linejoin="round" stroke-miterlimit="10" x1="20.163" y1="34.652" x2="20.163" y2="41.196"/>
<line fill="none" stroke="#F54C28" stroke-width="1.8696" stroke-linecap="round" stroke-linejoin="round" stroke-miterlimit="10" x1="8.478" y1="34.652" x2="8.478" y2="41.196"/>
<line fill="none" stroke="#F54C28" stroke-width="1.8696" stroke-linecap="round" stroke-linejoin="round" stroke-miterlimit="10" x1="12.685" y1="34.652" x2="12.685" y2="41.196"/>
<line fill="none" stroke="#F54C28" stroke-width="1.8696" stroke-linecap="round" stroke-linejoin="round" stroke-miterlimit="10" x1="36.054" y1="34.652" x2="36.054" y2="41.196"/>
<circle fill="none" stroke="#F54C28" stroke-width="1.8696" stroke-linecap="round" stroke-linejoin="round" stroke-miterlimit="10" cx="37.69" cy="13.853" r="2.571"/>
<circle fill="none" stroke="#F54C28" stroke-width="1.8696" stroke-linecap="round" stroke-linejoin="round" stroke-miterlimit="10" cx="9.647" cy="13.853" r="2.571"/>
<circle fill="none" stroke="#F54C28" stroke-width="1.8696" stroke-linecap="round" stroke-linejoin="round" stroke-miterlimit="10" cx="5.207" cy="4.739" r="3.739"/>
<circle fill="none" stroke="#F54C28" stroke-width="1.8696" stroke-linecap="round" stroke-linejoin="round" stroke-miterlimit="10" cx="40.027" cy="4.505" r="3.505"/>
<path fill="none" stroke="#F54C28" stroke-width="1.8696" stroke-linecap="round" stroke-linejoin="round" stroke-miterlimit="10" d="
	M17.53,2.745c0.847,0.959,1.858,1.797,2.467,2.943c0.5,0.942,0.641,2.056,0.141,3.03c-0.428,0.832-1.215,1.406-1.663,2.226
	c-0.49,0.899-0.657,1.969-0.434,2.97c0.241,1.078,0.927,2.05,1.863,2.637"/>
<path fill="none" stroke="#F54C28" stroke-width="1.8696" stroke-linecap="round" stroke-linejoin="round" stroke-miterlimit="10" d="
	M23.138,2.745c0.847,0.959,1.858,1.797,2.467,2.943c0.5,0.942,0.641,2.056,0.141,3.03c-0.428,0.832-1.215,1.406-1.663,2.226
	c-0.49,0.899-0.657,1.969-0.434,2.97c0.241,1.078,0.927,2.05,1.863,2.637"/>
</svg>
