<?xml version="1.0" encoding="utf-8"?>
<!-- Generator: Adobe Illustrator 23.0.2, SVG Export Plug-In . SVG Version: 6.00 Build 0)  -->
<svg version="1.1" id="Layer_1" xmlns="http://www.w3.org/2000/svg" xmlns:xlink="http://www.w3.org/1999/xlink" x="0px" y="0px"
	 width="45px" height="45px" viewBox="0 0 45 45" enable-background="new 0 0 45 45" xml:space="preserve">
<path fill="none" stroke="#F54C28" stroke-width="1.8298" stroke-linecap="round" stroke-linejoin="round" stroke-miterlimit="10" d="
	M2.372,4.66H4.66v5.032H2.372C1.613,9.691,1,9.078,1,8.319V6.032C1,5.273,1.613,4.66,2.372,4.66z"/>
<path fill="none" stroke="#F54C28" stroke-width="1.8298" stroke-linecap="round" stroke-linejoin="round" stroke-miterlimit="10" d="
	M35.766,1v0.059c-0.791,0.201-1.372,0.919-1.372,1.77v37.053h0.032l-0.032,0.915c0,1.77-1.432,3.202-3.202,3.202H7.862
	c-1.77,0-3.202-1.432-3.202-3.202V4.202C4.66,2.432,6.091,1,7.862,1H35.766z"/>
<line fill="none" stroke="#F54C28" stroke-width="1.8298" stroke-linecap="round" stroke-linejoin="round" stroke-miterlimit="10" x1="5.117" y1="30.734" x2="34.394" y2="30.734"/>
<line fill="none" stroke="#F54C28" stroke-width="1.8298" stroke-linecap="round" stroke-linejoin="round" stroke-miterlimit="10" x1="5.117" y1="35.766" x2="34.394" y2="35.766"/>
<path fill="none" stroke="#F54C28" stroke-width="1.8298" stroke-linecap="round" stroke-linejoin="round" stroke-miterlimit="10" d="
	M44,6.032v2.287c0,0.759-0.613,1.372-1.372,1.372h-8.234V4.66h8.234C43.387,4.66,44,5.273,44,6.032z"/>
<path fill="none" stroke="#F54C28" stroke-width="1.8298" stroke-linecap="round" stroke-linejoin="round" stroke-miterlimit="10" d="
	M41.164,4.66h-6.77V2.83c0-0.851,0.581-1.569,1.372-1.77C35.912,1.018,36.063,1,36.223,1h0.457C38.89,1,40.738,2.574,41.164,4.66z"
	/>
<path fill="none" stroke="#F54C28" stroke-width="1.8298" stroke-linecap="round" stroke-linejoin="round" stroke-miterlimit="10" d="
	M41.255,9.691v28.362c0,1.011-0.819,1.83-1.83,1.83h-5.032V9.691H41.255z"/>
</svg>
