<?xml version="1.0" encoding="utf-8"?>
<!-- Generator: Adobe Illustrator 23.0.2, SVG Export Plug-In . SVG Version: 6.00 Build 0)  -->
<svg version="1.1" id="Layer_1" xmlns="http://www.w3.org/2000/svg" xmlns:xlink="http://www.w3.org/1999/xlink" x="0px" y="0px"
	 width="68px" height="57px" viewBox="0 0 68 57" enable-background="new 0 0 68 57" xml:space="preserve">
<path fill="none" stroke="#F54C28" stroke-width="2.0529" stroke-linecap="round" stroke-linejoin="round" stroke-miterlimit="10" d="
	M66.325,52.517v1.43c0,1.136-0.917,2.053-2.053,2.053H4.053C2.917,56,2,55.083,2,53.947v-3.353c0-1.163,0.958-2.094,2.121-2.053
	l1.225,0.041l20.365,0.65l38.629,1.232C65.442,50.498,66.325,51.408,66.325,52.517z"/>
<path fill="none" stroke="#F54C28" stroke-width="2.0529" stroke-linecap="round" stroke-linejoin="round" stroke-miterlimit="10" d="
	M25.711,49.232l-20.365-0.65c0.13-1.471,0.486-2.956,1.293-4.188c0.424-0.643,0.979-1.109,1.608-1.417
	c0.411-0.205,0.855-0.335,1.321-0.411c0.684-0.11,1.41-0.082,2.121,0.062c0.233,0.048,0.465,0.103,0.691,0.171
	c0.862,0.246,1.69,0.623,2.484,1.033c0.965,0.5,1.937,0.917,2.922,1.382c2.162,1.026,4.304,2.114,6.426,3.223
	C24.712,48.698,25.212,48.958,25.711,49.232z"/>
<path fill="none" stroke="#F54C28" stroke-width="2.0529" stroke-linecap="round" stroke-linejoin="round" stroke-miterlimit="10" d="
	M15.686,20.279L12.381,42.8c-0.226-0.068-0.458-0.123-0.691-0.171c-0.712-0.144-1.437-0.171-2.121-0.062
	c-0.465,0.075-0.91,0.205-1.321,0.411l4.017-27.352h0.479l2.286,3.962C15.193,19.882,15.426,20.115,15.686,20.279z"/>
<path fill="none" stroke="#F54C28" stroke-width="2.0529" stroke-linecap="round" stroke-linejoin="round" stroke-miterlimit="10" d="
	M18.779,19.793l-0.951,0.547c-0.691,0.397-1.519,0.349-2.142-0.062c-0.26-0.164-0.493-0.397-0.657-0.691l-2.286-3.962L8.87,8.926
	C8.302,7.941,8.638,6.689,9.616,6.121l0.951-0.547c0.979-0.568,2.238-0.233,2.806,0.753l6.159,10.668
	C20.093,17.973,19.758,19.225,18.779,19.793z"/>
<circle fill="none" stroke="#F54C28" stroke-width="2.0529" stroke-linecap="round" stroke-linejoin="round" stroke-miterlimit="10" cx="37.584" cy="5.361" r="4.106"/>
<path fill="none" stroke="#F54C28" stroke-width="2.0529" stroke-linecap="round" stroke-linejoin="round" stroke-miterlimit="10" d="
	M40.349,12.309c0.034-0.008,0.067-0.017,0.101-0.025c2.695-0.663,6.034-1.079,8.738-0.246c1.322,0.407,2.501,1.221,3.468,2.197
	c1.245,1.257,3.168,4.224,3.168,4.224l1.435,2.219c0.465,0.719,0.254,1.68-0.469,2.138l0,0c-0.639,0.405-1.475,0.29-1.975-0.278
	c-1.32-1.496-3.727-4.221-4.145-4.677c-1.148-1.253-3.181-1.479-4.825-1.506c0.264,0.902,0.858,1.798,1.275,2.648
	c0.5,1.017,0.997,2.036,1.494,3.055c0.97,1.992,1.874,4.032,2.913,5.989c2.114,4.33,4.229,8.659,6.343,12.989
	c0.452,0.926,0.876,1.874,1.36,2.785c0.526,1.078-0.017,2.385-1.182,2.756c-0.84,0.268-1.755-0.104-2.268-0.821L46.48,32.734
	l-5.474,0.684l3.173,3.626c0.843,0.963,0.609,2.454-0.489,3.112l-0.027,0.016c-0.767,0.46-1.744,0.371-2.414-0.221l-7.774-6.859
	c-1.2-1.059-0.781-3.022,0.746-3.499l4.854-1.517c1.307-0.409,1.856-1.959,1.096-3.098l-3.084-4.626
	c-0.514-0.77-1.479-1.102-2.357-0.809l-1.748,0.583c-0.554,0.185-1.161,0.125-1.668-0.165l-7.009-4.005
	c-0.78-0.446-1.163-1.412-0.8-2.234c0.417-0.944,1.505-1.303,2.377-0.868l5.511,1.847c0.461,0.155,0.964,0.136,1.417-0.042
	C35.366,13.651,37.517,13.018,40.349,12.309z"/>
</svg>
