<?xml version="1.0" encoding="utf-8"?>
<!-- Generator: Adobe Illustrator 23.0.2, SVG Export Plug-In . SVG Version: 6.00 Build 0)  -->
<svg version="1.1" id="Layer_2" xmlns="http://www.w3.org/2000/svg" xmlns:xlink="http://www.w3.org/1999/xlink" x="0px" y="0px"
	 width="33px" height="20px" viewBox="0 0 33 20" enable-background="new 0 0 33 20" xml:space="preserve">
<path fill="#F54C28" d="M31.491,19.429l-4.396-0.012c0,0-0.094,0.012-0.248,0.012c-0.354,0-1.084-0.094-1.945-0.684
	c-1.544-1.073-3.017-3.736-4.184-3.736c-0.083,0-0.153,0.012-0.224,0.035c-1.014,0.318-1.32,1.332-1.32,2.57
	c0,0.436-0.306,0.636-1.132,0.636h-2.275c-2.546,0-5.009-0.059-7.779-3.088C3.91,10.695,0.091,2.751,0.091,2.751
	s-0.212-0.46,0.012-0.731C0.315,1.773,0.81,1.749,0.998,1.749c0.047,0,0.071,0,0.071,0h4.715c0,0,0.436,0.083,0.754,0.318
	c0.271,0.2,0.413,0.566,0.413,0.566s0.802,1.556,1.803,3.312c1.686,2.9,2.593,3.866,3.241,3.866c0.106,0,0.212-0.024,0.318-0.083
	c0.967-0.53,0.684-4.821,0.684-4.821s0.012-1.556-0.495-2.239c-0.389-0.542-1.132-0.695-1.462-0.743
	c-0.259-0.035,0.165-0.648,0.731-0.931c0.731-0.354,1.945-0.424,3.406-0.424h0.707c1.379,0.024,1.414,0.165,1.957,0.295
	c1.627,0.389,1.073,1.909,1.073,5.552c0,1.167-0.212,2.805,0.625,3.359c0.059,0.035,0.141,0.059,0.248,0.059
	c0.542,0,1.709-0.695,3.571-3.842c1.037-1.792,1.839-3.571,1.839-3.571s0.177-0.318,0.448-0.483
	c0.259-0.153,0.259-0.153,0.601-0.153h0.035c0.377,0,4.125-0.035,4.95-0.035h0.094c0.79,0,1.509,0.012,1.638,0.495
	c0.189,0.731-0.578,2.039-2.593,4.75c-3.324,4.444-3.701,4.114-0.943,6.683c2.64,2.452,3.182,3.642,3.277,3.795
	C33.801,19.288,31.491,19.429,31.491,19.429z"/>
</svg>
