<?xml version="1.0" encoding="utf-8"?>
<!-- Generator: Adobe Illustrator 23.0.2, SVG Export Plug-In . SVG Version: 6.00 Build 0)  -->
<svg version="1.1" id="Layer_1" xmlns="http://www.w3.org/2000/svg" xmlns:xlink="http://www.w3.org/1999/xlink" x="0px" y="0px"
	 width="24px" height="45px" viewBox="0 0 24 45" enable-background="new 0 0 24 45" xml:space="preserve">
<rect x="6.5" y="1" fill="none" stroke="#F54C28" stroke-width="1.8333" stroke-linecap="round" stroke-linejoin="round" stroke-miterlimit="10" width="11" height="4.125"/>
<path fill="none" stroke="#F54C28" stroke-width="1.8333" stroke-linecap="round" stroke-linejoin="round" stroke-miterlimit="10" d="
	M2.375,36.292h19.25v5.5c0,1.013-0.82,1.833-1.833,1.833H4.208c-1.013,0-1.833-0.82-1.833-1.833V36.292z"/>
<path fill="none" stroke="#F54C28" stroke-width="1.8333" stroke-linecap="round" stroke-linejoin="round" stroke-miterlimit="10" d="
	M21.63,28.042H2.37c-0.032-3.768-0.275-7.549,0.133-11.307c0.215-1.985,0.619-3.955,1.329-5.821c0.435-1.15,0.889-2.31,1.733-3.218
	C6.078,7.142,6.674,6.67,7.288,6.23C7.54,6.051,8.508,5.125,8.792,5.125c0,0,1.04,0,2.026,0h0.99c1.402,0,3.401,0,3.401,0
	c0.284,0,1.251,0.926,1.503,1.105c0.614,0.44,1.21,0.912,1.723,1.467c0.843,0.907,1.297,2.067,1.733,3.218
	c0.71,1.865,1.114,3.836,1.329,5.821C21.905,20.493,21.662,24.274,21.63,28.042z"/>
<path fill="none" stroke="#F54C28" stroke-width="1.8333" stroke-linecap="round" stroke-linejoin="round" stroke-miterlimit="10" d="
	M16.583,19.333c0,2.531-2.052,4.583-4.583,4.583s-4.583-2.052-4.583-4.583S12,12.458,12,12.458S16.583,16.802,16.583,19.333z"/>
<rect x="1" y="28.042" fill="none" stroke="#F54C28" stroke-width="1.8333" stroke-linecap="round" stroke-linejoin="round" stroke-miterlimit="10" width="22" height="4.125"/>
<rect x="1" y="32.167" fill="none" stroke="#F54C28" stroke-width="1.8333" stroke-linecap="round" stroke-linejoin="round" stroke-miterlimit="10" width="22" height="4.125"/>
</svg>
